<?xml version="1.0" encoding="UTF-8"?>
<svg width="295px" height="334px" viewBox="0 0 295 334" version="1.1" xmlns="http://www.w3.org/2000/svg" xmlns:xlink="http://www.w3.org/1999/xlink">
    <title>card 1</title>
    <defs>
        <path d="M4.08493806,0 L285.815902,0 C288.071951,-4.14429477e-16 289.90084,1.82888907 289.90084,4.08493806 L289.90084,324.027301 C289.90084,326.28335 288.071951,328.112239 285.815902,328.112239 L4.08493806,328.112239 C1.82888907,328.112239 -1.21582116e-14,326.28335 0,324.027301 L0,4.08493806 C-2.76286318e-16,1.82888907 1.82888907,-1.113189e-14 4.08493806,0 Z" id="path-1"></path>
        <path d="M4.08493806,0 L285.815902,0 C288.071951,-4.14429477e-16 289.90084,1.82888907 289.90084,4.08493806 L289.90084,324.027301 C289.90084,326.28335 288.071951,328.112239 285.815902,328.112239 L4.08493806,328.112239 C1.82888907,328.112239 -1.21582116e-14,326.28335 0,324.027301 L0,4.08493806 C-2.76286318e-16,1.82888907 1.82888907,-1.113189e-14 4.08493806,0 Z" id="path-3"></path>
        <linearGradient x1="100%" y1="21.2668809%" x2="0.688872466%" y2="78.33725%" id="linearGradient-5">
            <stop stop-color="#00F3FF" offset="0%"></stop>
            <stop stop-color="#AE76EF" offset="100%"></stop>
        </linearGradient>
    </defs>
    <g id="Page-1" stroke="none" stroke-width="1" fill="none" fill-rule="evenodd">
        <g id="card-illustration" transform="translate(-433.000000, 3.000000)">
            <g id="card-1" transform="translate(436.000000, 0.000000)">
                <mask id="mask-2" fill="white">
                    <use xlink:href="#path-1"></use>
                </mask>
                <use id="bg" fill="#222430" xlink:href="#path-1"></use>
                <mask id="mask-4" fill="white">
                    <use xlink:href="#path-3"></use>
                </mask>
                <path stroke="#13141C" stroke-width="2.04246903" d="M285.815902,-1.02123452 L4.08493806,-1.02123452 C2.67490744,-1.02123452 1.3983643,-0.449706682 0.474328807,0.474328807 C-0.449706682,1.3983643 -1.02123452,2.67490744 -1.02123452,4.08493806 L-1.02123452,324.027301 C-1.02123452,325.437331 -0.449706682,326.713874 0.474328807,327.63791 C1.3983643,328.561945 2.67490744,329.133473 4.08493806,329.133473 L285.815902,329.133473 C287.225932,329.133473 288.502476,328.561945 289.426511,327.63791 C290.350546,326.713874 290.922074,325.437331 290.922074,324.027301 L290.922074,4.08493806 C290.922074,2.67490744 290.350546,1.3983643 289.426511,0.474328807 C288.502476,-0.449706682 287.225932,-1.02123452 285.815902,-1.02123452 Z"></path>
                <path d="M285.815902,-1.02123452 L4.08493806,-1.02123452 C2.67490744,-1.02123452 1.3983643,-0.449706682 0.474328807,0.474328807 C-0.449706682,1.3983643 -1.02123452,2.67490744 -1.02123452,4.08493806 L-1.02123452,220.784884 L290.922074,220.784884 L290.922074,4.08493806 C290.922074,2.67490744 290.350546,1.3983643 289.426511,0.474328807 C288.502476,-0.449706682 287.225932,-1.02123452 285.815902,-1.02123452 Z" id="image" stroke="#13141C" stroke-width="2.04246903" fill="url(#linearGradient-5)"></path>
                <g id="Group-8" transform="translate(112.625796, 116.490595)" fill="#13141C">
                    <path d="M32.3246242,34.0383152 C39.8414229,34.0383152 45.9349922,29.8807373 45.9349922,24.7521051 C45.9349922,22.210036 42.5662598,25.8852955 32.5017371,25.8523908 C22.4372144,25.8194861 18.7142561,22.165542 18.7142561,24.7521051 C18.7142561,29.8807373 24.8078254,34.0383152 32.3246242,34.0383152 Z" id="Oval-6"></path>
                    <ellipse id="Oval-2" cx="5.42352265" cy="6.59323285" rx="5.316816" ry="5.65164041"></ellipse>
                    <ellipse id="Oval-2" cx="56.4624029" cy="6.59323285" rx="5.316816" ry="5.65164041"></ellipse>
                </g>
                <path d="M26.5402177,206.450427 C22.0641161,206.450427 18.0120199,208.265753 15.0799244,211.20577 C12.1518591,214.141746 10.3405236,218.19954 10.3405236,222.691489 C10.3405236,227.164911 12.1537361,231.214834 15.0853042,234.146402 C18.0168722,237.07797 22.0667957,238.891183 26.5402177,238.891183 C31.0163194,238.891183 35.0684156,237.075857 38.0005111,234.13584 C40.9285764,231.199864 42.7399118,227.14207 42.7399118,222.650122 C42.7399118,218.1767 40.9266993,214.126776 37.9951313,211.195208 C35.0635633,208.26364 31.0136397,206.450427 26.5402177,206.450427 Z" id="source" stroke="#13141C" stroke-width="1.77606006" fill="#222430"></path>
            </g>
        </g>
    </g>
</svg>