<?xml version="1.0" encoding="UTF-8"?>
<svg width="257px" height="289px" viewBox="0 0 257 289" version="1.1" xmlns="http://www.w3.org/2000/svg" xmlns:xlink="http://www.w3.org/1999/xlink">
    <!-- Generator: Sketch 61.2 (89653) - https://sketch.com -->
    <title>card 3</title>
    <desc>Created with Sketch.</desc>
    <defs>
        <path d="M3.55212013,0 L248.62928,0 C250.591061,-1.55979944e-14 252.1814,1.59033835 252.1814,3.55212013 L252.1814,281.387456 C252.1814,283.349237 250.591061,284.939576 248.62928,284.939576 L3.55212013,284.939576 C1.59033835,284.939576 2.90478424e-15,283.349237 0,281.387456 L0,3.55212013 C-2.40248977e-16,1.59033835 1.59033835,-1.1185946e-14 3.55212013,0 Z" id="path-1"></path>
        <path d="M3.55212013,0 L248.62928,0 C250.591061,-1.55979944e-14 252.1814,1.59033835 252.1814,3.55212013 L252.1814,281.387456 C252.1814,283.349237 250.591061,284.939576 248.62928,284.939576 L3.55212013,284.939576 C1.59033835,284.939576 2.90478424e-15,283.349237 0,281.387456 L0,3.55212013 C-2.40248977e-16,1.59033835 1.59033835,-1.1185946e-14 3.55212013,0 Z" id="path-3"></path>
        <linearGradient x1="100%" y1="21.3637395%" x2="0%" y2="78.6362605%" id="linearGradient-5">
            <stop stop-color="#FF7D7C" offset="0%"></stop>
            <stop stop-color="#FFDF22" offset="100%"></stop>
        </linearGradient>
        <path d="M3.55212013,0 L248.62928,0 C250.591061,-1.55979944e-14 252.1814,1.59033835 252.1814,3.55212013 L252.1814,190.847379 L252.1814,190.847379 L0,190.847379 L0,3.55212013 C-6.84338187e-16,1.59033835 1.59033835,-1.1185946e-14 3.55212013,0 Z" id="path-6"></path>
        <filter x="-1.5%" y="-2.0%" width="103.0%" height="104.0%" filterUnits="objectBoundingBox" id="filter-7">
            <feGaussianBlur stdDeviation="1.5" in="SourceAlpha" result="shadowBlurInner1"></feGaussianBlur>
            <feOffset dx="0" dy="1" in="shadowBlurInner1" result="shadowOffsetInner1"></feOffset>
            <feComposite in="shadowOffsetInner1" in2="SourceAlpha" operator="arithmetic" k2="-1" k3="1" result="shadowInnerInner1"></feComposite>
            <feColorMatrix values="0 0 0 0 0   0 0 0 0 0   0 0 0 0 0  0 0 0 0.5 0" type="matrix" in="shadowInnerInner1"></feColorMatrix>
        </filter>
    </defs>
    <g id="Production" stroke="none" stroke-width="1" fill="none" fill-rule="evenodd">
        <g id="FTX---Choose-dark" transform="translate(-1347.000000, -65.000000)">
            <g id="card-3" transform="translate(1349.612479, 67.004621)">
                <mask id="mask-2" fill="white">
                    <use xlink:href="#path-1"></use>
                </mask>
                <use id="bg" fill="#222430" xlink:href="#path-1"></use>
                <mask id="mask-4" fill="white">
                    <use xlink:href="#path-3"></use>
                </mask>
                <path stroke="#13141C" stroke-width="1.77606006" d="M3.55212013,-0.888030032 L248.62928,-0.888030032 C251.081507,-0.888030032 253.06943,1.09989291 253.06943,3.55212013 L253.06943,281.387456 C253.06943,283.839683 251.081507,285.827606 248.62928,285.827606 L3.55212013,285.827606 C1.09989291,285.827606 -0.888030032,283.839683 -0.888030032,281.387456 L-0.888030032,3.55212013 C-0.888030032,1.09989291 1.09989291,-0.888030032 3.55212013,-0.888030032 Z"></path>
                <g id="image">
                    <use fill="url(#linearGradient-5)" fill-rule="evenodd" xlink:href="#path-6"></use>
                    <use fill="black" fill-opacity="1" filter="url(#filter-7)" xlink:href="#path-6"></use>
                    <path stroke="#13141C" stroke-width="1.77606006" d="M3.55212013,-0.888030032 L248.62928,-0.888030032 C251.081507,-0.888030032 253.06943,1.09989291 253.06943,3.55212013 L253.06943,191.735409 L-0.888030032,191.735409 L-0.888030032,3.55212013 C-0.888030032,1.09989291 1.09989291,-0.888030032 3.55212013,-0.888030032 Z"></path>
                </g>
                <g id="Group-8" transform="translate(97.971882, 101.162885)" fill="#13141C">
                    <path d="M25.4608981,31.5284121 C35.269063,31.5284121 43.2201516,27.9178839 43.2201516,23.4640717 C43.2201516,21.2564853 40.9150944,26.211106 27.7825759,26.1825309 C14.6500574,26.1539557 7.27184144,21.2202861 7.70164462,23.4640717 C8.53178203,27.7978004 15.6527332,31.5284121 25.4608981,31.5284121 Z" id="Oval-6"></path>
                    <path d="M4.57839792,4.9358209 C7.13273531,4.9358209 9.34289682,8.43631771 9.34289682,5.72570222 C9.34289682,3.01508672 7.27219724,0.817698704 4.71785985,0.817698704 C2.16352247,0.817698704 0.0928228892,3.01508672 0.0928228892,5.72570222 C0.0928228892,8.43631771 2.02406054,4.9358209 4.57839792,4.9358209 Z" id="Oval-2"></path>
                    <path d="M48.9765317,4.9358209 C51.5308691,4.9358209 53.7410306,8.43631771 53.7410306,5.72570222 C53.7410306,3.01508672 51.670331,0.817698704 49.1159936,0.817698704 C46.5616562,0.817698704 44.4909566,3.01508672 44.4909566,5.72570222 C44.4909566,8.43631771 46.4221943,4.9358209 48.9765317,4.9358209 Z" id="Oval-2"></path>
                </g>
                <path d="M23.0825229,181.774315 L23.0915362,181.774315 C30.9356164,181.774315 37.2944997,188.133198 37.2944997,195.977278 C37.2944997,203.821358 30.9356164,210.180242 23.0915362,210.180242 L23.0825229,210.180242 C15.2384427,210.180242 8.87955939,203.821358 8.87955939,195.977278 C8.87955939,188.133198 15.2384427,181.774315 23.0825229,181.774315 Z" id="source" stroke="#13141C" stroke-width="1.77606006" fill="#222430"></path>
            </g>
        </g>
    </g>
</svg>