<?xml version="1.0" encoding="UTF-8"?>
<svg width="362px" height="294px" viewBox="0 0 362 294" version="1.1" xmlns="http://www.w3.org/2000/svg" xmlns:xlink="http://www.w3.org/1999/xlink">
    <!-- Generator: Sketch 46.2 (44496) - http://www.bohemiancoding.com/sketch -->
    <title>Group</title>
    <desc>Created with Sketch.</desc>
    <defs>
        <polygon id="path-1" points="0 0 432 0 432 336 0 336"></polygon>
    </defs>
    <g id="final" stroke="none" stroke-width="1" fill="none" fill-rule="evenodd">
        <g id="google-mode-light-massage" transform="translate(-1450.000000, -105.000000)">
            <g id="Group-4" transform="translate(1419.000000, 56.000000)">
                <g id="no-messages" transform="translate(-5.000000, 26.000000)">
                    <g id="Group">
                        <mask id="mask-2" fill="white">
                            <use xlink:href="#path-1"></use>
                        </mask>
                        <g id="Duplicate-control"></g>
                        <g id="background" mask="url(#mask-2)" opacity="0.600000024">
                            <g transform="translate(34.000000, 24.000000)">
                                <circle id="Oval-9" stroke="#E7ECEE" stroke-width="2" fill="none" cx="309" cy="74" r="4"></circle>
                                <circle id="Oval-9" stroke="#E7ECEE" stroke-width="2" fill="none" cx="99" cy="24" r="4"></circle>
                                <circle id="Oval-9" stroke="#E7ECEE" stroke-width="2" fill="none" cx="119" cy="194" r="4"></circle>
                                <circle id="Oval-9" stroke="#E7ECEE" stroke-width="2" fill="none" cx="249" cy="114" r="4"></circle>
                                <circle id="Oval-9" stroke="#E7ECEE" stroke-width="2" fill="none" cx="139" cy="74" r="4"></circle>
                                <circle id="Oval-9" stroke="#E7ECEE" stroke-width="2" fill="none" cx="359" cy="4" r="4"></circle>
                                <circle id="Oval-9" stroke="#E7ECEE" stroke-width="2" fill="none" cx="359" cy="124" r="4"></circle>
                                <circle id="Oval-9" stroke="#E7ECEE" stroke-width="2" fill="none" cx="279" cy="284" r="4"></circle>
                                <rect id="Rectangle-27" stroke="#E7ECEE" stroke-width="2" fill="none" transform="translate(15.000000, 186.000000) rotate(45.000000) translate(-15.000000, -186.000000) " x="11" y="182" width="8" height="8"></rect>
                                <rect id="Rectangle-27" stroke="#E7ECEE" stroke-width="2" fill="none" transform="translate(25.000000, 76.000000) rotate(-166.015844) translate(-25.000000, -76.000000) " x="21" y="72" width="8" height="8"></rect>
                                <rect id="Rectangle-27" stroke="#E7ECEE" stroke-width="2" fill="none" transform="translate(205.000000, 66.000000) rotate(-226.872032) translate(-205.000000, -66.000000) " x="201" y="62" width="8" height="8"></rect>
                                <rect id="Rectangle-27" stroke="#E7ECEE" stroke-width="2" fill="none" transform="translate(115.000000, 276.000000) rotate(-60.979868) translate(-115.000000, -276.000000) " x="111" y="272" width="8" height="8"></rect>
                                <rect id="Rectangle-27" stroke="#E7ECEE" stroke-width="2" fill="none" transform="translate(255.000000, 206.000000) rotate(-260.724252) translate(-255.000000, -206.000000) " x="251" y="202" width="8" height="8"></rect>
                                <path d="M271.071068,25.0710678 L274.071068,25.0710678 C274.623353,25.0710678 275.071068,24.6233526 275.071068,24.0710678 C275.071068,23.5187831 274.623353,23.0710678 274.071068,23.0710678 L271.071068,23.0710678 L271.071068,20.0710678 C271.071068,19.5187831 270.623353,19.0710678 270.071068,19.0710678 C269.518783,19.0710678 269.071068,19.5187831 269.071068,20.0710678 L269.071068,20.0710678 L269.071068,23.0710678 L266.071068,23.0710678 C265.518783,23.0710678 265.071068,23.5187831 265.071068,24.0710678 C265.071068,24.6233526 265.518783,25.0710678 266.071068,25.0710678 L269.071068,25.0710678 L269.071068,28.0710678 C269.071068,28.6233526 269.518783,29.0710678 270.071068,29.0710678 C270.623353,29.0710678 271.071068,28.6233526 271.071068,28.0710678 L271.071068,25.0710678 Z" id="Combined-Shape" stroke="none" fill="#E7ECEE" fill-rule="evenodd" transform="translate(270.071068, 24.071068) rotate(45.000000) translate(-270.071068, -24.071068) "></path>
                                <path d="M336.071068,237.071068 L339.071068,237.071068 C339.623353,237.071068 340.071068,236.623353 340.071068,236.071068 C340.071068,235.518783 339.623353,235.071068 339.071068,235.071068 L336.071068,235.071068 L336.071068,232.071068 C336.071068,231.518783 335.623353,231.071068 335.071068,231.071068 C334.518783,231.071068 334.071068,231.518783 334.071068,232.071068 L334.071068,232.071068 L334.071068,235.071068 L331.071068,235.071068 C330.518783,235.071068 330.071068,235.518783 330.071068,236.071068 C330.071068,236.623353 330.518783,237.071068 331.071068,237.071068 L334.071068,237.071068 L334.071068,240.071068 C334.071068,240.623353 334.518783,241.071068 335.071068,241.071068 C335.623353,241.071068 336.071068,240.623353 336.071068,240.071068 L336.071068,237.071068 Z" id="Combined-Shape-Copy-4" stroke="none" fill="#E7ECEE" fill-rule="evenodd" transform="translate(335.071068, 236.071068) rotate(-121.679615) translate(-335.071068, -236.071068) "></path>
                                <path d="M296.071068,159.071068 L299.071068,159.071068 C299.623353,159.071068 300.071068,158.623353 300.071068,158.071068 C300.071068,157.518783 299.623353,157.071068 299.071068,157.071068 L296.071068,157.071068 L296.071068,154.071068 C296.071068,153.518783 295.623353,153.071068 295.071068,153.071068 C294.518783,153.071068 294.071068,153.518783 294.071068,154.071068 L294.071068,154.071068 L294.071068,157.071068 L291.071068,157.071068 C290.518783,157.071068 290.071068,157.518783 290.071068,158.071068 C290.071068,158.623353 290.518783,159.071068 291.071068,159.071068 L294.071068,159.071068 L294.071068,162.071068 C294.071068,162.623353 294.518783,163.071068 295.071068,163.071068 C295.623353,163.071068 296.071068,162.623353 296.071068,162.071068 L296.071068,159.071068 Z" id="Combined-Shape-Copy-5" stroke="none" fill="#E7ECEE" fill-rule="evenodd" transform="translate(295.071068, 158.071068) rotate(-352.002854) translate(-295.071068, -158.071068) "></path>
                                <path d="M189.071068,8.07106781 L192.071068,8.07106781 C192.623353,8.07106781 193.071068,7.62335256 193.071068,7.07106781 C193.071068,6.51878306 192.623353,6.07106781 192.071068,6.07106781 L189.071068,6.07106781 L189.071068,3.07106781 C189.071068,2.51878306 188.623353,2.07106781 188.071068,2.07106781 C187.518783,2.07106781 187.071068,2.51878306 187.071068,3.07106781 L187.071068,3.07106781 L187.071068,6.07106781 L184.071068,6.07106781 C183.518783,6.07106781 183.071068,6.51878306 183.071068,7.07106781 C183.071068,7.62335256 183.518783,8.07106781 184.071068,8.07106781 L187.071068,8.07106781 L187.071068,11.0710678 C187.071068,11.6233526 187.518783,12.0710678 188.071068,12.0710678 C188.623353,12.0710678 189.071068,11.6233526 189.071068,11.0710678 L189.071068,8.07106781 Z" id="Combined-Shape-Copy-6" stroke="none" fill="#E7ECEE" fill-rule="evenodd" transform="translate(188.071068, 7.071068) rotate(45.000000) translate(-188.071068, -7.071068) "></path>
                                <path d="M74.0710678,230.071068 L77.0710678,230.071068 C77.6233526,230.071068 78.0710678,229.623353 78.0710678,229.071068 C78.0710678,228.518783 77.6233526,228.071068 77.0710678,228.071068 L74.0710678,228.071068 L74.0710678,225.071068 C74.0710678,224.518783 73.6233526,224.071068 73.0710678,224.071068 C72.5187831,224.071068 72.0710678,224.518783 72.0710678,225.071068 L72.0710678,225.071068 L72.0710678,228.071068 L69.0710678,228.071068 C68.5187831,228.071068 68.0710678,228.518783 68.0710678,229.071068 C68.0710678,229.623353 68.5187831,230.071068 69.0710678,230.071068 L72.0710678,230.071068 L72.0710678,233.071068 C72.0710678,233.623353 72.5187831,234.071068 73.0710678,234.071068 C73.6233526,234.071068 74.0710678,233.623353 74.0710678,233.071068 L74.0710678,230.071068 Z" id="Combined-Shape-Copy" stroke="none" fill="#E7ECEE" fill-rule="evenodd" transform="translate(73.071068, 229.071068) rotate(-7.034443) translate(-73.071068, -229.071068) "></path>
                                <path d="M8.07106781,289.071068 L11.0710678,289.071068 C11.6233526,289.071068 12.0710678,288.623353 12.0710678,288.071068 C12.0710678,287.518783 11.6233526,287.071068 11.0710678,287.071068 L8.07106781,287.071068 L8.07106781,284.071068 C8.07106781,283.518783 7.62335256,283.071068 7.07106781,283.071068 C6.51878306,283.071068 6.07106781,283.518783 6.07106781,284.071068 L6.07106781,284.071068 L6.07106781,287.071068 L3.07106781,287.071068 C2.51878306,287.071068 2.07106781,287.518783 2.07106781,288.071068 C2.07106781,288.623353 2.51878306,289.071068 3.07106781,289.071068 L6.07106781,289.071068 L6.07106781,292.071068 C6.07106781,292.623353 6.51878306,293.071068 7.07106781,293.071068 C7.62335256,293.071068 8.07106781,292.623353 8.07106781,292.071068 L8.07106781,289.071068 Z" id="Combined-Shape-Copy-7" stroke="none" fill="#E7ECEE" fill-rule="evenodd" transform="translate(7.071068, 288.071068) rotate(-31.683808) translate(-7.071068, -288.071068) "></path>
                                <path d="M196.071068,251.071068 L199.071068,251.071068 C199.623353,251.071068 200.071068,250.623353 200.071068,250.071068 C200.071068,249.518783 199.623353,249.071068 199.071068,249.071068 L196.071068,249.071068 L196.071068,246.071068 C196.071068,245.518783 195.623353,245.071068 195.071068,245.071068 C194.518783,245.071068 194.071068,245.518783 194.071068,246.071068 L194.071068,246.071068 L194.071068,249.071068 L191.071068,249.071068 C190.518783,249.071068 190.071068,249.518783 190.071068,250.071068 C190.071068,250.623353 190.518783,251.071068 191.071068,251.071068 L194.071068,251.071068 L194.071068,254.071068 C194.071068,254.623353 194.518783,255.071068 195.071068,255.071068 C195.623353,255.071068 196.071068,254.623353 196.071068,254.071068 L196.071068,251.071068 Z" id="Combined-Shape-Copy-8" stroke="none" fill="#E7ECEE" fill-rule="evenodd" transform="translate(195.071068, 250.071068) rotate(-229.988707) translate(-195.071068, -250.071068) "></path>
                                <path d="M64.0710678,122.071068 L67.0710678,122.071068 C67.6233526,122.071068 68.0710678,121.623353 68.0710678,121.071068 C68.0710678,120.518783 67.6233526,120.071068 67.0710678,120.071068 L64.0710678,120.071068 L64.0710678,117.071068 C64.0710678,116.518783 63.6233526,116.071068 63.0710678,116.071068 C62.5187831,116.071068 62.0710678,116.518783 62.0710678,117.071068 L62.0710678,117.071068 L62.0710678,120.071068 L59.0710678,120.071068 C58.5187831,120.071068 58.0710678,120.518783 58.0710678,121.071068 C58.0710678,121.623353 58.5187831,122.071068 59.0710678,122.071068 L62.0710678,122.071068 L62.0710678,125.071068 C62.0710678,125.623353 62.5187831,126.071068 63.0710678,126.071068 C63.6233526,126.071068 64.0710678,125.623353 64.0710678,125.071068 L64.0710678,122.071068 Z" id="Combined-Shape-Copy-2" stroke="none" fill="#E7ECEE" fill-rule="evenodd" transform="translate(63.071068, 121.071068) rotate(45.000000) translate(-63.071068, -121.071068) "></path>
                                <path d="M8.07106781,26.0710678 L11.0710678,26.0710678 C11.6233526,26.0710678 12.0710678,25.6233526 12.0710678,25.0710678 C12.0710678,24.5187831 11.6233526,24.0710678 11.0710678,24.0710678 L8.07106781,24.0710678 L8.07106781,21.0710678 C8.07106781,20.5187831 7.62335256,20.0710678 7.07106781,20.0710678 C6.51878306,20.0710678 6.07106781,20.5187831 6.07106781,21.0710678 L6.07106781,21.0710678 L6.07106781,24.0710678 L3.07106781,24.0710678 C2.51878306,24.0710678 2.07106781,24.5187831 2.07106781,25.0710678 C2.07106781,25.6233526 2.51878306,26.0710678 3.07106781,26.0710678 L6.07106781,26.0710678 L6.07106781,29.0710678 C6.07106781,29.6233526 6.51878306,30.0710678 7.07106781,30.0710678 C7.62335256,30.0710678 8.07106781,29.6233526 8.07106781,29.0710678 L8.07106781,26.0710678 Z" id="Combined-Shape-Copy-3" stroke="none" fill="#E7ECEE" fill-rule="evenodd" transform="translate(7.071068, 25.071068) rotate(-181.704383) translate(-7.071068, -25.071068) "></path>
                            </g>
                        </g>
                    </g>
                </g>
            </g>
        </g>
    </g>
</svg>