<?xml version="1.0" encoding="UTF-8"?>
<svg width="5px" height="18px" viewBox="0 0 5 18" version="1.1" xmlns="http://www.w3.org/2000/svg" xmlns:xlink="http://www.w3.org/1999/xlink">
    <!-- Generator: Sketch 45.1 (43504) - http://www.bohemiancoding.com/sketch -->
    <title>settings</title>
    <desc>Created with Sketch.</desc>
    <defs></defs>
    <g id="Symbols" stroke="none" stroke-width="1" fill="none" fill-rule="evenodd">
        <g id="header-logout" transform="translate(-1883.000000, -23.000000)" fill="#FFFFFF">
            <path d="M1885.14286,27.2857143 C1883.95939,27.2857143 1883,26.3263245 1883,25.1428571 C1883,23.9593898 1883.95939,23 1885.14286,23 C1886.32632,23 1887.28571,23.9593898 1887.28571,25.1428571 C1887.28571,26.3263245 1886.32632,27.2857143 1885.14286,27.2857143 Z M1885.14286,34.1428571 C1883.95939,34.1428571 1883,33.1834673 1883,32 C1883,30.8165327 1883.95939,29.8571429 1885.14286,29.8571429 C1886.32632,29.8571429 1887.28571,30.8165327 1887.28571,32 C1887.28571,33.1834673 1886.32632,34.1428571 1885.14286,34.1428571 Z M1885.14286,41 C1883.95939,41 1883,40.0406102 1883,38.8571429 C1883,37.6736755 1883.95939,36.7142857 1885.14286,36.7142857 C1886.32632,36.7142857 1887.28571,37.6736755 1887.28571,38.8571429 C1887.28571,40.0406102 1886.32632,41 1885.14286,41 Z" id="settings"></path>
        </g>
    </g>
</svg>