<?xml version="1.0" encoding="utf-8"?>
<svg version="1.1" id="Capa_1" xmlns="http://www.w3.org/2000/svg" xmlns:xlink="http://www.w3.org/1999/xlink" x="0px" y="0px"
	 viewBox="0 0 80 62.2" style="enable-background:new 0 0 80 62.2;" xml:space="preserve">
<path class="st0" d="M73.1,0.2H6.9c-2.5,0-4.6,2.1-4.6,4.6v52.8c0,2.5,2.1,4.6,4.6,4.6h66.2c2.5,0,4.6-2.1,4.6-4.6V4.8
	C77.7,2.3,75.6,0.2,73.1,0.2z M19.8,23c0-2.5,2-4.5,4.5-4.5s4.5,2,4.5,4.5s-2,4.5-4.5,4.5S19.8,25.5,19.8,23z M23,43.7l12.3-17
	L46.7,40l6-8.2l7.5,12H23z" fill="currentColor"/>
</svg>
