<?xml version="1.0" encoding="UTF-8"?>
<svg width="269px" height="302px" viewBox="0 0 269 302" version="1.1" xmlns="http://www.w3.org/2000/svg" xmlns:xlink="http://www.w3.org/1999/xlink">
    <!-- Generator: Sketch 61 (89581) - https://sketch.com -->
    <title>card 3</title>
    <desc>Created with Sketch.</desc>
    <defs>
        <path d="M3.55212013,0 L248.62928,0 C250.591061,-1.55979944e-14 252.1814,1.59033835 252.1814,3.55212013 L252.1814,281.387456 C252.1814,283.349237 250.591061,284.939576 248.62928,284.939576 L3.55212013,284.939576 C1.59033835,284.939576 2.90478424e-15,283.349237 0,281.387456 L0,3.55212013 C-2.40248977e-16,1.59033835 1.59033835,-1.1185946e-14 3.55212013,0 Z" id="path-1"></path>
        <path d="M19.2594405,14.2025957 L259.778817,14.2025957 C263.059389,14.2025957 265.718817,16.8620244 265.718817,20.142596 L265.718817,293.344621 C265.718817,296.625193 263.059389,299.284622 259.778817,299.284622 L19.2594405,299.284622 C15.9788689,299.284622 13.3194401,296.625193 13.3194401,293.344621 L13.3194401,20.142596 C13.3194401,16.8620244 15.9788689,14.2025957 19.2594405,14.2025957 Z" id="path-3"></path>
        <path d="M3.55212013,0 L248.62928,0 C250.591061,-1.55979944e-14 252.1814,1.59033835 252.1814,3.55212013 L252.1814,281.387456 C252.1814,283.349237 250.591061,284.939576 248.62928,284.939576 L3.55212013,284.939576 C1.59033835,284.939576 2.90478424e-15,283.349237 0,281.387456 L0,3.55212013 C-2.40248977e-16,1.59033835 1.59033835,-1.1185946e-14 3.55212013,0 Z" id="path-5"></path>
        <linearGradient x1="100%" y1="21.3637395%" x2="0%" y2="78.6362605%" id="linearGradient-7">
            <stop stop-color="#FF0200" stop-opacity="0.1" offset="0%"></stop>
            <stop stop-color="#FDFF22" stop-opacity="0.3" offset="100%"></stop>
        </linearGradient>
    </defs>
    <g id="Muzli-V4" stroke="none" stroke-width="1" fill="none" fill-rule="evenodd">
        <g id="FTX" transform="translate(-1033.000000, -525.000000)">
            <g id="popup" transform="translate(464.000000, 97.000000)">
                <g id="illustration" transform="translate(0.000000, 399.000000)">
                    <g id="card-illustration">
                        <g transform="translate(157.000000, 0.000000)">
                            <g id="card-3" transform="translate(414.480773, 31.226594)">
                                <mask id="mask-2" fill="white">
                                    <use xlink:href="#path-1"></use>
                                </mask>
                                <use id="bg" fill="#FFFFFF" xlink:href="#path-1"></use>
                                <mask id="mask-4" fill="white">
                                    <use xlink:href="#path-3"></use>
                                </mask>
                                <use id="bg" fill-opacity="0.100000001" fill="#97A3AA" xlink:href="#path-3"></use>
                                <mask id="mask-6" fill="white">
                                    <use xlink:href="#path-5"></use>
                                </mask>
                                <path stroke="#A2AFB7" stroke-width="1.77606006" d="M3.55212013,-0.888030032 L248.62928,-0.888030032 C251.081507,-0.888030032 253.06943,1.09989291 253.06943,3.55212013 L253.06943,281.387456 C253.06943,283.839683 251.081507,285.827606 248.62928,285.827606 L3.55212013,285.827606 C1.09989291,285.827606 -0.888030032,283.839683 -0.888030032,281.387456 L-0.888030032,3.55212013 C-0.888030032,1.09989291 1.09989291,-0.888030032 3.55212013,-0.888030032 Z"></path>
                                <path d="M3.55212013,-0.888030032 L248.62928,-0.888030032 C251.081507,-0.888030032 253.06943,1.09989291 253.06943,3.55212013 L253.06943,191.735409 L-0.888030032,191.735409 L-0.888030032,3.55212013 C-0.888030032,1.09989291 1.09989291,-0.888030032 3.55212013,-0.888030032 Z" id="image" stroke="#A2AFB7" stroke-width="1.77606006" fill="url(#linearGradient-7)"></path>
                                <g id="Group-8" transform="translate(97.971882, 101.162885)" fill="#7C878D">
                                    <path d="M25.4608981,31.5284121 C35.269063,31.5284121 43.2201516,27.9178839 43.2201516,23.4640717 C43.2201516,21.2564853 40.9150944,26.211106 27.7825759,26.1825309 C14.6500574,26.1539557 7.27184144,21.2202861 7.70164462,23.4640717 C8.53178203,27.7978004 15.6527332,31.5284121 25.4608981,31.5284121 Z" id="Oval-6"></path>
                                    <path d="M4.57839792,4.9358209 C7.13273531,4.9358209 9.34289682,8.43631771 9.34289682,5.72570222 C9.34289682,3.01508672 7.27219724,0.817698704 4.71785985,0.817698704 C2.16352247,0.817698704 0.0928228892,3.01508672 0.0928228892,5.72570222 C0.0928228892,8.43631771 2.02406054,4.9358209 4.57839792,4.9358209 Z" id="Oval-2"></path>
                                    <path d="M48.9765317,4.9358209 C51.5308691,4.9358209 53.7410306,8.43631771 53.7410306,5.72570222 C53.7410306,3.01508672 51.670331,0.817698704 49.1159936,0.817698704 C46.5616562,0.817698704 44.4909566,3.01508672 44.4909566,5.72570222 C44.4909566,8.43631771 46.4221943,4.9358209 48.9765317,4.9358209 Z" id="Oval-2"></path>
                                </g>
                                <path d="M23.081922,180.88702 L23.0921371,180.88702 C31.4262564,180.88702 38.182395,187.643159 38.182395,195.977278 C38.182395,204.311397 31.4262564,211.067536 23.0921371,211.067536 L23.081922,211.067536 C14.7478027,211.067536 7.99166407,204.311397 7.99166407,195.977278 C7.99166407,187.643159 14.7478027,180.88702 23.081922,180.88702 Z" id="source" fill="#A2AFB7"></path>
                                <path d="M23.0825229,182.662345 L23.0915362,182.662345 C30.4451709,182.662345 36.4064697,188.623643 36.4064697,195.977278 C36.4064697,203.330913 30.4451709,209.292212 23.0915362,209.292212 L23.0825229,209.292212 C15.7288882,209.292212 9.76758942,203.330913 9.76758942,195.977278 C9.76758942,188.623643 15.7288882,182.662345 23.0825229,182.662345 Z" id="source" fill="#F4F5F6"></path>
                            </g>
                        </g>
                    </g>
                </g>
            </g>
        </g>
    </g>
</svg>