<?xml version="1.0" encoding="utf-8"?>
<!-- Generator: Adobe Illustrator 19.0.1, SVG Export Plug-In . SVG Version: 6.00 Build 0)  -->
<svg version="1.1" id="Capa_1" xmlns="http://www.w3.org/2000/svg" xmlns:xlink="http://www.w3.org/1999/xlink" x="0px" y="0px"
	 viewBox="399.1 1 30 30" style="enable-background:new 399.1 1 30 30;" xml:space="preserve">
<style type="text/css">
	.st0{fill:#FFFFFF;}
</style>
<g>
	<path id="LinkedIn" class="st0" d="M429.1,19.2v11.1h-6.4V19.9c0-2.6-0.9-4.4-3.3-4.4c-1.8,0-2.8,1.2-3.3,2.4
		c-0.2,0.4-0.2,1-0.2,1.6v10.8h-6.4c0,0,0.1-17.5,0-19.3h6.4v2.7c0,0,0,0,0,0.1h0v-0.1c0.9-1.3,2.4-3.2,5.8-3.2
		C425.9,10.5,429.1,13.2,429.1,19.2z M402.7,1.6c-2.2,0-3.6,1.4-3.6,3.3c0,1.9,1.4,3.3,3.6,3.3h0c2.2,0,3.6-1.5,3.6-3.3
		C406.3,3.1,404.9,1.6,402.7,1.6z M399.4,30.3h6.4V10.9h-6.4V30.3z"/>
</g>
</svg>
