<?xml version="1.0" encoding="utf-8"?>
<!-- Generator: Adobe Illustrator 19.1.0, SVG Export Plug-In . SVG Version: 6.00 Build 0)  -->
<svg version="1.1" id="Layer_1" xmlns="http://www.w3.org/2000/svg" xmlns:xlink="http://www.w3.org/1999/xlink" x="0px" y="0px"
	 viewBox="-84 86 30 30" style="enable-background:new -84 86 30 30;" xml:space="preserve">
<style type="text/css">
	.st0{display:none;fill:#FFFFFF;}
	.st1{fill:#FFFFFF;}
</style>
<path id="f" class="st0" d="M-1047.3,382v-11.6h3.9l0.6-4.5h-4.5V363c0-1.3,0.4-2.2,2.2-2.2h2.4v-4c-0.4-0.1-1.8-0.2-3.5-0.2
	c-3.5,0-5.8,2.1-5.8,6v3.3h-3.9v4.5h3.9V382H-1047.3z"/>
<path class="st1" d="M-55.2,95.8l-8.3-0.8c-0.5,0-1-0.4-1.2-0.9l-3-7.2c-0.5-1.2-2.2-1.2-2.6,0l-2.9,7.2c-0.2,0.5-0.7,0.8-1.2,0.9
	l-8.3,0.8c-1.2,0.1-1.7,1.7-0.8,2.5l6.2,5.5c0.4,0.4,0.6,0.9,0.4,1.4l-1.9,7.7c-0.3,1.2,1,2.2,2.1,1.6l6.9-4c0.4-0.3,1-0.3,1.4,0
	l6.9,4c1.1,0.6,2.4-0.3,2.1-1.6l-1.8-7.7c-0.1-0.5,0-1,0.4-1.4l6.2-5.5C-53.5,97.4-54,95.9-55.2,95.8z"/>
</svg>
