<?xml version="1.0" encoding="utf-8"?>
<!-- Generator: Adobe Illustrator 19.2.1, SVG Export Plug-In . SVG Version: 6.00 Build 0)  -->
<svg version="1.1" id="Layer_1" xmlns="http://www.w3.org/2000/svg" xmlns:xlink="http://www.w3.org/1999/xlink" x="0px" y="0px"
	 viewBox="-159 34.1 24 24" style="enable-background:new -159 34.1 24 24;" xml:space="preserve">
<style type="text/css">
	.st0{fill:#4F4F4F;}
</style>
<path class="st0" d="M-136,42.1l-6.6-0.6c-0.4,0-0.7-0.4-1-0.7l-2.4-6c-0.4-1-1.7-1-2.2,0l-2.4,6c-0.1,0.4-0.5,0.6-0.8,0.7l-6.6,0.6
	c-1.1,0.1-1.4,1.4-0.7,2.2l5,4.6c0.4,0.2,0.5,0.7,0.4,1.2l-1.4,6.5c-0.2,1,0.8,1.8,1.7,1.3l5.4-3.5c0.4-0.2,0.8-0.2,1.2,0l5.5,3.4
	c0.8,0.5,1.9-0.2,1.7-1.3l-1.4-6.5c-0.1-0.5,0-0.8,0.4-1.2l5-4.6C-134.7,43.6-135,42.3-136,42.1z"/>
</svg>
