<svg width="50" height="50" viewBox="0 0 50 50" fill="none" xmlns="http://www.w3.org/2000/svg">
<path d="M0 25C0 11.1929 11.1929 0 25 0C38.8071 0 50 11.1929 50 25C50 38.8071 38.8071 50 25 50C11.1929 50 0 38.8071 0 25Z" fill="#3A5EFB"/>
<path d="M36.8723 31.1739C37.1848 30.8156 37.6037 30.9167 37.8065 31.2259C37.9637 31.4802 38.027 31.7565 37.9895 32.0225C37.9074 32.5226 37.626 32.874 37.306 33.2024C36.8268 33.6931 36.2487 34.0465 35.6177 34.314C34.9881 34.5815 34.3368 34.7572 33.6361 34.7189C33.5212 34.7068 33.4062 34.6934 33.2911 34.6838C31.9779 34.5746 30.7818 33.6456 30.3469 32.4711C30.0166 31.544 30.1817 30.6713 30.4018 29.8527C30.8973 27.9975 31.8884 26.4156 32.824 24.8338C33.3244 23.8919 33.8697 22.9956 34.378 22.0624C34.4806 21.8741 34.6106 21.6975 34.6797 21.4944C34.7314 21.3423 34.7512 21.1784 34.7512 21.0144C34.8066 20.5786 34.4763 20.3597 34.0356 20.4692C33.2093 20.6331 32.5491 20.96 31.8884 21.3968C30.0714 22.5973 28.7505 24.2331 27.7595 26.0883C26.4935 28.3793 25.227 30.7253 24.0163 33.0713C23.685 33.7255 22.915 33.7255 22.2543 33.3987C21.6485 33.1258 21.3736 32.3626 21.6485 31.8163C22.1435 30.7798 22.6945 29.6892 23.2998 28.7072C24.6771 26.3612 26.1077 24.0152 27.484 21.6692C27.8693 21.0144 28.1447 20.3052 28.3648 19.596C28.4751 19.2692 28.3648 18.8873 28.3099 18.5595C28.255 18.2871 28.0349 18.1232 27.7595 18.1781C26.9885 18.2321 26.3827 18.5595 25.7779 18.9418C24.456 19.8694 23.3552 21.0144 22.3641 22.2694C20.3825 24.7244 18.6754 27.3977 17.1339 30.18C16.5286 31.2166 15.9233 32.2527 15.317 33.2897C14.9871 33.7805 14.6563 34.2718 14.0515 34.5442C13.4457 34.8171 12.1796 34.3258 12.0689 33.3987C11.9586 32.744 12.1796 32.1442 12.51 31.5984C13.1702 30.4529 13.8863 29.2519 14.6563 28.1064C15.7027 26.5246 16.8589 24.9433 17.9049 23.3609C18.7303 22.1055 19.5017 20.906 20.2173 19.651C20.4363 19.2598 20.5859 18.8343 20.721 18.4017C20.79 18.1805 20.8898 17.9614 20.886 17.7297C20.8835 17.5793 20.8532 17.4254 20.8226 17.305C20.658 16.8142 20.2173 16.5953 19.7218 16.6498C18.1798 16.7593 17.0241 17.5229 15.8679 18.3965C15.0974 18.9418 14.4367 19.5411 13.6662 20.0324C13.0055 20.5241 12.3448 20.1963 12.1243 19.596C11.9586 19.1053 11.9586 18.6145 12.1243 18.1781C12.4541 17.3595 13.0599 16.8687 13.7206 16.4319C14.7117 15.7772 15.8125 15.3958 16.9687 15.1774C18.1249 14.9585 19.2812 14.905 20.4374 15.2319C21.924 15.7232 22.8047 16.6498 22.8047 18.1232C22.8047 18.3031 22.7898 18.4783 22.766 18.6515C22.72 18.9853 23.1709 19.2336 23.41 18.9963C24.4006 18.0687 25.5024 17.2505 26.8787 16.8687C27.7041 16.6498 28.5854 16.5418 29.521 17.0321C29.9617 17.305 30.1817 17.6873 30.3469 18.1232C30.7289 19.0969 30.4074 19.91 30.1339 20.7743C30.1292 20.789 30.1271 20.8009 30.1263 20.8163C30.1186 20.9507 30.2465 21.0311 30.3564 20.9535C30.4497 20.8876 30.5425 20.8213 30.6224 20.7421C31.6134 19.9239 32.7691 19.2692 34.0356 18.9418C34.9718 18.7229 35.7423 18.8324 36.3481 19.4326C36.8985 20.0873 37.0637 20.906 36.7882 21.6692C36.403 22.7602 35.9075 23.7968 35.4673 24.8338C34.7512 26.4706 33.8601 27.8286 33.1994 29.4659C32.9736 30.0012 32.7843 30.5062 32.6322 31.0608C32.5726 31.2785 32.5346 31.5023 32.5457 31.7277C32.5864 32.5581 33.0098 34.0388 35.7271 32.2797C36.0199 32.0902 36.2742 31.8436 36.5008 31.5784C36.6194 31.4396 36.7413 31.3039 36.8723 31.1739Z" fill="white"/>
</svg>
