<svg width="314" height="153" viewBox="0 0 314 153" fill="none" xmlns="http://www.w3.org/2000/svg">
<path fill-rule="evenodd" clip-rule="evenodd" d="M200.944 6.92366C201.089 6.09829 201.876 5.54718 202.701 5.69271L305.811 23.8737C306.636 24.0192 307.187 24.8063 307.042 25.6316L286.431 142.523C286.285 143.348 285.498 143.899 284.673 143.754L181.563 125.573C180.738 125.427 180.187 124.64 180.332 123.815L200.944 6.92366Z" fill="#333333"/>
<path fill-rule="evenodd" clip-rule="evenodd" d="M205.708 14.4991C205.951 13.1189 207.267 12.1973 208.648 12.4407L309.839 30.2835C311.219 30.5269 312.141 31.843 311.898 33.2232L291.63 148.165C291.387 149.545 290.071 150.467 288.691 150.224L187.499 132.381C186.119 132.137 185.197 130.821 185.44 129.441L205.708 14.4991Z" fill="#1A1A1A"/>
<path d="M202.775 5.27368C201.719 5.08734 200.711 5.79298 200.524 6.84977L179.913 123.741C179.727 124.798 180.433 125.806 181.489 125.992L284.599 144.173C285.656 144.359 286.663 143.654 286.85 142.597L307.461 25.7055C307.647 24.6487 306.941 23.641 305.885 23.4546L202.775 5.27368Z" fill="#333333" stroke="black" stroke-width="0.850992"/>
<path d="M292.866 104.421L293.285 104.494L293.359 104.075L307.254 25.2763C307.44 24.2195 306.734 23.2118 305.678 23.0254L202.568 4.84448C201.512 4.65814 200.504 5.36378 200.317 6.42057L186.423 85.2197L186.349 85.6388L186.768 85.7126L292.866 104.421Z" fill="white" fill-opacity="0.1" stroke="black" stroke-width="0.850992"/>
<path d="M243.562 65.2568L234.824 52.7909C232.363 49.2797 233.473 44.3961 237.234 42.1877C240.965 39.9968 245.747 41.3572 247.661 45.1543L247.983 45.7926L248.516 45.2995C251.69 42.3664 256.67 42.6636 259.377 45.9477C262.105 49.258 261.376 54.2063 257.793 56.6912L245.074 65.5136C244.579 65.8569 243.902 65.7419 243.562 65.2568Z" fill="#ccc" stroke="black" stroke-width="0.850992" stroke-linecap="round" stroke-linejoin="round"/>
<path fill-rule="evenodd" clip-rule="evenodd" d="M190.029 88.4743C190.647 84.9679 193.993 82.6271 197.499 83.2453C201.006 83.8636 203.349 87.2076 202.731 90.714C202.113 94.2203 198.767 96.5612 195.26 95.9429C191.754 95.3247 189.411 91.9806 190.029 88.4743Z" fill="#A2AFB7"/>
<path fill-rule="evenodd" clip-rule="evenodd" d="M190.782 88.6058C191.327 85.512 194.279 83.4465 197.373 83.992C200.467 84.5375 202.535 87.4881 201.989 90.582C201.444 93.6758 198.492 95.7413 195.398 95.1958C192.304 94.6502 190.236 91.6996 190.782 88.6058Z" fill="#F4F5F6"/>
<path fill-rule="evenodd" clip-rule="evenodd" d="M1.28955 28.8324C1.12964 28.0097 1.66693 27.2131 2.48963 27.0532L105.266 7.07554C106.089 6.91563 106.885 7.45292 107.045 8.27562L129.693 124.789C129.853 125.612 129.316 126.409 128.493 126.569L25.7167 146.546C24.894 146.706 24.0975 146.169 23.9375 145.346L1.28955 28.8324Z" fill="#333333"/>
<path fill-rule="evenodd" clip-rule="evenodd" d="M8.22639 34.7039C7.95897 33.3281 8.85745 31.9961 10.2332 31.7287L111.098 12.1225C112.474 11.8551 113.806 12.7536 114.073 14.1294L136.344 128.7C136.611 130.076 135.713 131.408 134.337 131.675L33.4719 151.281C32.0962 151.549 30.7641 150.65 30.4967 149.275L8.22639 34.7039Z" fill="#1A1A1A"/>
<path d="M2.40844 26.6355C1.35506 26.8403 0.667121 27.8602 0.871876 28.9136L23.5199 145.427C23.7246 146.481 24.7445 147.169 25.7979 146.964L128.574 126.986C129.628 126.782 130.315 125.762 130.111 124.708L107.463 8.19443C107.258 7.14105 106.238 6.45311 105.185 6.65786L2.40844 26.6355Z" fill="#333333" stroke="black" stroke-width="0.850992"/>
<path d="M122.394 87.8952L122.811 87.814L122.73 87.3963L107.463 8.85165C107.258 7.79828 106.238 7.11034 105.185 7.31509L2.40844 27.2928C1.35506 27.4975 0.667121 28.5174 0.871876 29.5708L16.1394 108.115L16.2206 108.533L16.6383 108.452L122.394 87.8952Z" fill="white" fill-opacity="0.1" stroke="black" stroke-width="0.850992"/>
<path d="M64.4383 69.2568L73.1756 56.7909C75.6366 53.2797 74.5268 48.3961 70.7659 46.1877C67.0348 43.9968 62.2534 45.3572 60.3391 49.1543L60.0172 49.7926L59.4837 49.2995C56.3104 46.3664 51.3302 46.6636 48.6232 49.9477C45.8946 53.258 46.6239 58.2063 50.2067 60.6912L62.9261 69.5136C63.4212 69.8569 64.0982 69.7419 64.4383 69.2568Z" fill="#ccc" stroke="black" stroke-width="0.850992" stroke-linecap="round" stroke-linejoin="round"/>
<path fill-rule="evenodd" clip-rule="evenodd" d="M92.5391 2.74513C92.5391 1.78132 93.3204 1 94.2842 1H214.643C215.607 1 216.388 1.78132 216.388 2.74513V139.428C216.388 140.392 215.607 141.173 214.643 141.173H94.2842C93.3204 141.173 92.5391 140.392 92.5391 139.428V2.74513Z" fill="#333333"/>
<path fill-rule="evenodd" clip-rule="evenodd" d="M99 10.5376C99 9.13614 100.136 8 101.538 8H220.418C221.82 8 222.956 9.13614 222.956 10.5376V145.706C222.956 147.107 221.82 148.244 220.418 148.244H101.538C100.136 148.244 99 147.107 99 145.706V10.5376Z" fill="#1A1A1A"/>
<path d="M94.2842 0.574504C93.0854 0.574504 92.1136 1.54632 92.1136 2.74513V139.428C92.1136 140.627 93.0854 141.599 94.2842 141.599H214.643C215.842 141.599 216.814 140.627 216.814 139.428V2.74513C216.814 1.54633 215.842 0.574504 214.643 0.574504H94.2842Z" fill="#333333" stroke="black" stroke-width="0.850992"/>
<path d="M216.388 95.3111H216.814V94.8856V2.74513C216.814 1.54633 215.842 0.574504 214.643 0.574504H94.2842C93.0854 0.574504 92.1136 1.54632 92.1136 2.74513V94.8856V95.3111H92.5391H216.388Z" fill="white" fill-opacity="0.1" stroke="black" stroke-width="0.850992"/>
<path d="M156.826 68.9581L142.316 53.849C138.229 49.5932 138.487 42.6151 142.875 38.6983C147.229 34.8125 153.83 35.5671 157.27 40.3438L157.848 41.1468L158.427 40.3438C161.867 35.5671 168.468 34.8125 172.822 38.6983C177.21 42.6151 177.467 49.5932 173.38 53.849L158.871 68.9581C158.306 69.5461 157.391 69.5461 156.826 68.9581Z" fill="#ccc" stroke="black" stroke-width="0.850992" stroke-linecap="round" stroke-linejoin="round"/>
</svg>
