<?xml version="1.0" encoding="UTF-8"?>
<svg width="15px" height="12px" viewBox="0 0 15 12" version="1.1" xmlns="http://www.w3.org/2000/svg" xmlns:xlink="http://www.w3.org/1999/xlink">
    <!-- Generator: Sketch 45.1 (43504) - http://www.bohemiancoding.com/sketch -->
    <title>muzli logo</title>
    <desc>Created with Sketch.</desc>
    <defs></defs>
    <g id="final" stroke="none" stroke-width="1" fill="none" fill-rule="evenodd">
        <g id="google-mode-light-search" transform="translate(-869.000000, -186.000000)" fill="#FFFFFF">
            <g id="search-results" transform="translate(129.000000, 177.000000)">
                <g id="muzli-search" transform="translate(733.000000, 0.000000)">
                    <path d="M18.9409098,18.97597 C18.9458651,18.9170367 18.9505452,18.9067234 18.9409098,18.97597 M21.8659527,18.9084914 C21.7530805,18.7228514 21.5199029,18.6621501 21.3459145,18.8772567 C21.20331,19.029894 21.0802518,19.1954966 20.9519628,19.3625726 C18.9510958,20.8963121 18.9161329,19.3811366 18.9387074,19.0066153 C19.0301064,18.5931981 19.1512375,18.2354729 19.301275,17.851817 C19.6690734,16.8688093 20.1651607,16.0534668 20.5637924,15.0707538 C20.8088078,14.4481233 21.0846565,13.8257875 21.2991138,13.1707436 C21.4524549,12.7125371 21.3605053,12.2210332 21.0540984,11.827948 C20.7168582,11.4675708 20.2879436,11.4018601 19.7668042,11.5332814 C19.0617656,11.729824 18.4183938,12.1229093 17.8666963,12.6141185 C17.7747467,12.7125371 17.6519638,12.7776584 17.5600142,12.8760771 C17.5600142,12.7776584 17.5908476,12.7125371 17.5908476,12.6468265 C17.7439134,12.1229093 17.9278125,11.6314054 17.7133553,11.0417776 C17.6214057,10.7801136 17.498898,10.5505684 17.2536073,10.3867338 C16.7327432,10.0923618 16.2421619,10.1571885 15.7826893,10.2886098 C15.0165345,10.5178604 14.4031702,11.0090696 13.851748,11.5659894 C13.6986822,11.729824 13.514783,11.8930693 13.3614419,12.0902013 C13.4225581,11.729824 13.514783,11.4018601 13.514783,11.0417776 C13.514783,10.1571885 13.024477,9.60085798 12.1969307,9.30589673 C11.5532836,9.10964878 10.9096365,9.14176744 10.2659894,9.27318874 C9.62234234,9.40431537 9.00952864,9.6332713 8.45783112,10.0263565 C8.09003278,10.2886098 7.75279254,10.5832764 7.56916866,11.0747802 C7.47694378,11.3367388 7.47694378,11.6314054 7.56916866,11.926072 C7.69195164,12.2864492 8.05974998,12.4832865 8.42754833,12.1880306 C8.85646286,11.8930693 9.2242612,11.5332814 9.65317573,11.2059069 C10.2968228,10.6814003 10.9401946,10.2228991 11.7985743,10.1571885 C12.074423,10.1244805 12.3197137,10.2559018 12.411388,10.5505684 C12.4422214,10.6814003 12.4725042,10.8782376 12.411388,11.0090696 C12.3197137,11.3367388 12.2274888,11.6641134 12.074423,11.9590746 C11.6760666,12.7125371 11.2466015,13.4327022 10.7871289,14.1864594 C10.2048732,15.1364644 9.56122615,16.0858802 8.97869524,17.0355906 C8.55005601,17.7233424 8.15142427,18.4443915 7.78390123,19.1321433 C7.60000206,19.4598125 7.47694378,19.8198951 7.53833527,20.2129803 C7.60000206,20.7696055 8.30476535,21.0645668 8.64200559,20.9007321 C8.97869524,20.7371922 9.16286971,20.4422309 9.34649358,20.1475643 C9.68400913,19.5249339 10.0209741,18.9028927 10.357939,18.2805569 C11.2160434,16.610092 12.1663726,15.0050431 13.2694924,13.5311209 C13.8211899,12.7776584 14.4340036,12.0902013 15.1698756,11.5332814 C15.5065652,11.3037362 15.8438055,11.1071936 16.2729953,11.0747802 C16.4263364,11.0417776 16.548844,11.1401962 16.5794021,11.3037362 C16.6099602,11.5005734 16.6713517,11.729824 16.6099602,11.926072 C16.4874526,12.3518652 16.3341115,12.7776584 16.1196542,13.1707436 C15.3534994,14.5792499 14.5570619,15.9877562 13.7903565,17.3962625 C13.4533915,17.9858903 13.1467094,18.6406394 12.8711359,19.2629753 C12.7180701,19.5909392 12.8711359,20.0491457 13.2083762,20.2129803 C13.5761745,20.4092283 14.0048137,20.4092283 14.1892635,20.0164377 C14.8631934,18.6079314 15.568232,17.1994252 16.2729953,15.8239216 C16.8246928,14.7100819 17.5600142,13.7279581 18.5714596,13.0072037 C18.939258,12.7449504 19.306781,12.5487025 19.7668042,12.4502838 C20.0120949,12.3845732 20.1959941,12.5159945 20.1651607,12.7776584 C20.1651607,12.941493 20.1346026,13.1053277 20.0423777,13.2364543 C19.7359708,13.8587901 19.3990059,14.4481233 19.0923237,15.0707538 C18.5714596,16.0204642 18.0197621,16.9701746 17.7439134,18.0840143 C17.6214057,18.5755181 17.5294561,19.0994353 17.7133553,19.6560605 C17.966079,20.3921376 18.6804777,20.9676214 19.4488349,20.9903108 C19.4763647,20.9962041 19.508024,21.0015081 19.5443633,21.0056334 C19.9344608,21.0286174 20.2970285,20.9231268 20.647483,20.7625335 C20.9987635,20.6019402 21.320587,20.3897803 21.587351,20.0951137 C21.7654689,19.8979817 21.9221135,19.6870005 21.967813,19.3867352 C21.9887357,19.2270259 21.9534975,19.0611286 21.8659527,18.9084914" id="muzli-logo"></path>
                </g>
            </g>
        </g>
    </g>
</svg>