<?xml version="1.0" encoding="UTF-8"?>
<svg width="20px" height="10px" viewBox="0 0 20 10" version="1.1" xmlns="http://www.w3.org/2000/svg" xmlns:xlink="http://www.w3.org/1999/xlink">
    <!-- Generator: Sketch 45.1 (43504) - http://www.bohemiancoding.com/sketch -->
    <title>link</title>
    <desc>Created with Sketch.</desc>
    <defs></defs>
    <g id="final" stroke="none" stroke-width="1" fill="none" fill-rule="evenodd" fill-opacity="0.5">
        <g id="sidebar-open---dark" transform="translate(-220.000000, -132.000000)" fill="#FFFFFF">
            <g id="sidebar" transform="translate(0.000000, -23.000000)">
                <g id="feed-hover" transform="translate(0.000000, 135.000000)">
                    <path d="M221.9,24.9999997 C221.9,23.2899997 223.29,21.8999995 225,21.8999995 L228.999999,21.8999995 L228.999999,20 L225,20 C222.24,20 220,22.2399996 220,24.9999997 C220,27.7599997 222.24,29.9999994 225,29.9999994 L228.999999,29.9999994 L228.999999,28.0999998 L225,28.0999998 C223.29,28.0999998 221.9,26.7099996 221.9,24.9999997 Z M226,25.9999996 L233.999999,25.9999996 L233.999999,23.9999998 L226,23.9999998 L226,25.9999996 Z M234.999999,20 L230.999999,20 L230.999999,21.8999995 L234.999999,21.8999995 C236.709998,21.8999995 238.099999,23.2899997 238.099999,24.9999997 C238.099999,26.7099996 236.71,28.0999998 234.999999,28.0999998 L230.999999,28.0999998 L230.999999,29.9999994 L234.999999,29.9999994 C237.759999,29.9999994 239.999999,27.7599997 239.999999,24.9999997 C239.999999,22.2399996 237.759999,20 234.999999,20 Z" id="link"></path>
                </g>
            </g>
        </g>
    </g>
</svg>