<?xml version="1.0" encoding="utf-8"?>
<!-- Generator: Adobe Illustrator 19.0.1, SVG Export Plug-In . SVG Version: 6.00 Build 0)  -->
<svg version="1.1" id="Layer_1" xmlns="http://www.w3.org/2000/svg" xmlns:xlink="http://www.w3.org/1999/xlink" x="0px" y="0px"
	 viewBox="-405 283.3 30 30" style="enable-background:new -405 283.3 30 30;" xml:space="preserve">
<style type="text/css">
	.st0{fill:#FFFFFF;}
</style>
<path class="st0" d="M-376.7,283.3h-26.6c-1,0-1.7,0.7-1.7,1.7v26.7c0,0.9,0.7,1.6,1.7,1.6h14.3v-11.6h-3.9v-4.5h3.9v-3.3
	c0-3.9,2.3-6,5.8-6c1.7,0,3.1,0.1,3.5,0.2v4h-2.4c-1.8,0-2.2,0.9-2.2,2.2v2.9h4.5l-0.6,4.5h-3.9v11.6h7.6c0.9,0,1.7-0.7,1.7-1.7V285
	C-375,284-375.7,283.3-376.7,283.3z"/>
</svg>
