<?xml version="1.0" standalone="no"?>
<!DOCTYPE svg PUBLIC "-//W3C//DTD SVG 1.1//EN" "http://www.w3.org/Graphics/SVG/1.1/DTD/svg11.dtd" >
<svg xmlns="http://www.w3.org/2000/svg">
<metadata>Generated by IcoMoon</metadata>
<defs>
<font id="icomoon" horiz-adv-x="1024">
<font-face units-per-em="1024" ascent="960" descent="-64" />
<missing-glyph horiz-adv-x="1024" />
<glyph unicode="&#x20;" horiz-adv-x="512" d="" />
<glyph unicode="&#xe900;" glyph-name="home-hollow" d="M448.249 887.74l-415.67-356.544c-30.451-26.12-40.867-67.784-25.65-104.771l3.229-7.013c16.304-31.883 49.575-51.765 86.17-51.765l17.586 0.043 0.043-308.512c0-41.774 34.667-74.41 76.007-74.41h179.079c41.34 0 76.007 32.634 76.007 74.41v168.138h133.906v-168.14c0-41.774 34.667-74.409 76.007-74.409h179.069l6.824 0.298c38.261 3.356 69.184 34.656 69.184 74.111l-0.048 308.514 17.69-0.043c39.207 0 74.601 22.824 89.396 58.773 15.206 37.011 4.789 78.66-25.654 104.777l-415.678 356.548c-36.508 31.32-90.99 31.32-127.496-0.004zM918.573 465.213l-106.057-0.043-0.048-382.88h-135.995l0.006 145.026c0 53.86-43.662 97.522-97.522 97.522h-133.906l-7.278-0.268c-50.462-3.723-90.245-45.843-90.245-97.255l-0.047-145.026h-136.044l0.043 382.88-106.099 0.043 406.369 348.512h0.5l406.324-348.512z" />
<glyph unicode="&#xe901;" glyph-name="pin" d="M713.771 777.771c-16.597 16.683-43.563 16.768-60.331 0.171-4.437-4.437-7.509-9.685-9.6-15.147-35.499-74.069-74.581-115.84-123.904-140.501-55.339-27.307-118.869-46.293-221.269-46.293-5.547 0-11.093-1.067-16.299-3.243-10.453-4.352-18.731-12.672-23.083-23.083-4.309-10.411-4.309-22.187 0-32.597 2.176-5.248 5.291-9.984 9.259-13.909l138.368-138.368-193.579-258.133 258.133 193.579 138.325-138.325c3.925-4.011 8.661-7.083 13.909-9.259 5.205-2.176 10.752-3.328 16.299-3.328s11.093 1.152 16.299 3.328c10.453 4.352 18.773 12.587 23.083 23.083 2.176 5.163 3.285 10.752 3.285 16.256 0 102.4 18.944 165.931 46.208 220.416 24.619 49.323 66.389 88.405 140.501 123.904 5.504 2.091 10.709 5.163 15.104 9.6 16.597 16.768 16.512 43.733-0.171 60.331l-170.539 171.52z" />
<glyph unicode="&#xe902;" glyph-name="search" d="M731.847 315.975l292.153-292.739-87.236-87.236-292.739 292.153v46.253l-15.808 16.393c-66.744-57.377-153.395-91.92-247.657-91.92-210.187 0-380.56 170.374-380.56 380.56s170.374 380.56 380.56 380.56c210.186 0 380.56-170.374 380.56-380.56 0-94.262-34.543-180.913-91.92-247.657l16.394-15.808h46.252zM380.56 315.975c145.783 0 263.464 117.681 263.464 263.465s-117.681 263.465-263.464 263.465c-145.784 0-263.465-117.681-263.465-263.465s117.681-263.465 263.465-263.465z" />
<glyph unicode="&#xe903;" glyph-name="dribbble" d="M512 960c-282.655 0-512-229.345-512-512s229.345-512 512-512c282.1 0 512 229.345 512 512s-229.9 512-512 512zM850.186 723.992c61.085-74.412 97.736-169.372 98.847-272.104-14.438 2.777-158.82 32.208-304.312 13.883-3.332 7.218-6.109 14.993-9.44 22.768-8.885 21.102-18.882 42.759-28.877 63.306 161.041 65.527 234.342 159.93 243.783 172.148zM512 884.477c111.063 0 212.686-41.648 289.874-109.952-7.774-11.106-73.857-99.402-229.344-157.709-71.636 131.61-151.046 239.341-163.262 256 32.763 7.774 67.193 11.662 102.733 11.662zM325.97 843.384c11.661-15.548 89.405-123.835 162.151-252.668-204.356-54.42-384.833-53.314-404.269-53.314 28.321 135.5 119.948 248.229 242.117 305.982zM74.412 447.445c0 4.442 0 8.884 0 13.327 18.881-0.555 231.011-3.332 449.249 62.195 12.772-24.434 24.434-49.422 35.54-74.412-5.553-1.666-11.661-3.332-17.214-4.997-225.457-72.747-345.405-271.549-355.401-288.209-69.415 77.189-112.174 179.922-112.174 292.096zM512 10.412c-101.067 0-194.36 34.43-268.217 92.183 7.775 16.103 96.626 187.141 343.184 273.214 1.111 0.555 1.666 0.555 2.777 1.111 61.64-159.375 86.629-293.206 93.293-331.523-52.754-22.768-110.507-34.985-171.037-34.985zM755.784 85.379c-4.443 26.656-27.766 154.378-84.963 311.532 137.163 21.658 257.11-13.882 272.103-18.881-18.881-121.613-88.85-226.568-187.14-292.651z" />
<glyph unicode="&#xe904;" glyph-name="chat" horiz-adv-x="1109" d="M547.947 960c-302.623 0-547.947-192.799-547.947-430.53 0-112.564 55.030-215.187 145.128-291.899-3.444-74.756-18.943-175.265-73.738-227.085 104.658 0 211.821 68.885 275.383 118.513 62.309-19.413 130.177-30.059 201.175-30.059 302.623 0 547.947 192.799 547.947 430.53s-245.324 430.53-547.947 430.53z" />
<glyph unicode="&#xe905;" glyph-name="share" horiz-adv-x="1229" d="M750.933 686.933v273.067l477.867-477.867-477.867-477.867v279.893c-341.333 0-580.267-109.227-750.933-348.16 68.267 341.333 273.067 682.667 750.933 750.933z" />
<glyph unicode="&#xe906;" glyph-name="view" horiz-adv-x="1536" d="M768 960c-349.091 0-647.215-212.309-768-512 120.785-299.691 418.909-512 768-512s647.215 212.309 768 512c-120.785 299.691-418.909 512-768 512zM768 106.667c-192.698 0-349.091 152.917-349.091 341.333s156.393 341.333 349.091 341.333c192.698 0 349.091-152.917 349.091-341.333s-156.393-341.333-349.091-341.333zM768 652.8c-115.898 0-209.455-91.477-209.455-204.8s93.556-204.8 209.455-204.8c115.898 0 209.455 91.477 209.455 204.8s-93.556 204.8-209.455 204.8z" />
<glyph unicode="&#xe907;" glyph-name="ph" d="M1024 448c0-282.769-229.231-512-512-512s-512 229.231-512 512c0 282.769 229.231 512 512 512s512-229.231 512-512zM580.267 448.002h-145.067v153.6h145.067c42.415 0 76.8-34.389 76.8-76.8 0-42.415-34.385-76.8-76.8-76.8zM580.267 704.002h-247.467v-512h102.4v153.6h145.067c98.97 0 179.2 80.23 179.2 179.2 0 98.965-80.23 179.2-179.2 179.2z" />
<glyph unicode="&#xe908;" glyph-name="time" d="M507.611 960c279.897 0 507.611-227.715 507.611-507.611s-227.715-507.611-507.611-507.611c-279.897 0-507.611 227.715-507.611 507.611s227.715 507.611 507.611 507.611zM772.159 468.062h-228.122v274.286c0 23.082-18.714 41.796-41.796 41.796s-41.796-18.714-41.796-41.796v-316.082c0-23.082 18.714-41.796 41.796-41.796h269.918c23.082 0 41.796 18.714 41.796 41.796s-18.714 41.796-41.796 41.796z" />
<glyph unicode="&#xe909;" glyph-name="google" horiz-adv-x="1109" d="M571.948 344.515v187.958h482.578c7.218-31.832 12.889-61.642 12.889-103.579 0-288.505-197.465-493.642-494.952-493.642-284.597 0-515.575 226.358-515.575 505.263s230.977 505.263 515.575 505.263c139.205 0 255.725-50.021 344.919-131.874l-146.423-139.453c-37.121 34.358-102.084 74.779-198.496 74.779-170.655 0-309.86-138.947-309.86-309.221s139.205-309.221 309.86-309.221c197.465 0 270.161 133.895 283.566 213.221h-284.082v0.505z" />
<glyph unicode="&#xe90a;" glyph-name="brave" d="M668.971 959.999l89.429-101.547c0 0 78.507 21.845 115.584-15.275 37.035-37.12 67.584-69.888 67.584-69.888l-23.979-58.923 30.507-87.339c0 0-89.771-340.48-100.267-382.080-20.736-81.877-34.901-113.493-93.781-155.008-60.476-42.321-121.54-83.797-183.168-124.416-17.451-10.923-39.253-29.525-58.88-29.525s-41.387 18.603-58.881 29.525c-61.632 40.619-122.694 82.095-183.168 124.416-58.88 41.515-73.045 73.131-93.739 155.008-10.539 41.6-100.309 382.080-100.309 382.080l30.507 87.339-23.979 58.923c0 0 30.549 32.768 67.627 69.888 37.035 37.12 115.541 15.275 115.541 15.275l89.387 101.547h313.985zM512.001 322.731c-5.973 0-44.289-13.525-75.009-29.44s-52.992-27.179-60.117-31.659c-7.125-4.437-2.773-12.843 3.712-17.451 6.485-4.565 93.612-72.107 102.103-79.616 8.448-7.467 20.864-19.797 29.312-19.797s20.907 12.373 29.355 19.797c8.448 7.467 95.573 75.051 102.059 79.616 6.485 4.608 10.837 13.013 3.712 17.493-7.125 4.437-29.397 15.701-60.16 31.616-30.72 15.915-68.992 29.44-74.965 29.44zM512.001 803.925c0 0-17.451-0.043-43.607-8.789s-54.528-19.627-67.584-19.627c-13.099 0-110.123 18.517-110.123 18.517s-114.987-139.179-114.987-168.917c0-29.739 14.464-37.589 29.013-53.035l86.187-91.691c8.192-8.661 25.173-21.803 15.189-45.483-10.027-23.68-24.747-53.76-8.363-84.352 16.384-30.549 44.459-50.944 62.464-47.573 17.963 3.413 60.245 25.515 75.776 35.584 15.531 10.112 64.769 50.773 64.769 66.304 0 15.573-50.903 43.52-60.289 49.835-9.387 6.4-52.309 30.933-53.205 40.533-0.853 9.685-0.512 12.501 12.117 36.309 12.672 23.851 35.456 55.637 31.659 76.8-3.797 21.12-40.533 32.128-66.773 42.069-26.24 9.899-76.757 28.629-83.072 31.573-6.315 2.901-4.693 5.675 14.464 7.467 19.115 1.835 73.344 9.045 97.792 2.219s66.219-17.195 69.632-22.699c3.371-5.547 6.359-5.717 2.859-24.704-3.456-18.987-21.333-110.123-23.083-126.293-1.707-16.213-5.12-26.88 12.288-30.891 17.452-4.011 46.807-10.923 56.876-10.923s39.424 6.912 56.875 10.923c17.408 3.968 14.037 14.677 12.288 30.848-1.707 16.213-19.627 107.349-23.083 126.336-3.499 18.987-0.512 19.2 2.859 24.704 3.413 5.504 45.184 15.872 69.632 22.699s78.72-0.384 97.792-2.219c19.157-1.792 20.779-4.565 14.464-7.467-6.315-2.944-56.832-21.675-83.072-31.573-26.24-9.941-62.976-20.907-66.773-42.069-3.84-21.163 18.987-52.949 31.659-76.8 12.672-23.808 12.971-26.624 12.117-36.267s-43.776-34.219-53.205-40.533c-9.387-6.4-60.288-34.304-60.288-49.877 0-15.531 49.237-56.192 64.768-66.304 15.531-10.069 57.813-32.213 75.776-35.584 18.005-3.371 46.080 17.067 62.464 47.573 16.384 30.549 1.664 60.672-8.32 84.352-10.027 23.68 6.955 36.821 15.147 45.483l86.187 91.691c14.549 15.445 29.013 23.296 29.013 53.035s-114.987 168.96-114.987 168.96c0 0-97.024-18.603-110.080-18.603-13.099 0-41.472 10.923-67.627 19.669s-43.605 8.789-43.605 8.789z" />
<glyph unicode="&#xe90b;" glyph-name="muzli" horiz-adv-x="1336" d="M1055.783 114.283c0.457 5.081 0.889 5.97 0 0zM1325.711 120.101c-10.416 16.005-31.934 21.238-47.99 2.693-13.16-13.16-24.516-27.437-36.354-41.842-184.643-132.233-187.869-1.601-185.786 30.689 8.434 35.643 19.613 66.485 33.458 99.562 33.941 84.751 79.721 155.046 116.507 239.772 22.61 53.681 48.066 107.336 67.857 163.811 14.151 39.505 5.665 81.88-22.61 115.77-31.121 31.070-70.702 36.735-118.793 25.405-65.062-16.945-124.433-50.835-175.345-93.185-8.485-8.485-19.816-14.1-28.301-22.585 0 8.485 2.845 14.1 2.845 19.765 14.125 45.17 31.096 87.545 11.305 138.381-8.485 22.56-19.79 42.35-42.426 56.475-48.066 25.379-93.338 19.79-135.738 8.46-70.702-19.765-127.304-62.115-178.19-110.13-14.125-14.125-31.096-28.199-45.246-45.195 5.64 31.070 14.151 59.346 14.151 90.391 0 76.266-45.246 124.23-121.613 149.66-59.397 16.92-118.793 14.151-178.19 2.82-59.397-11.305-115.948-31.045-166.859-64.935-33.941-22.61-65.062-48.015-82.007-90.391-8.511-22.585-8.511-47.99 0-73.395 11.331-31.070 45.272-48.041 79.212-22.585 39.581 25.43 73.522 56.45 113.103 84.675 59.397 45.221 118.768 84.751 197.98 90.416 25.456 2.82 48.091-8.511 56.551-33.916 2.845-11.28 5.64-28.25 0-39.53-8.46-28.25-16.97-56.475-31.096-81.905-36.761-64.96-76.393-127.050-118.793-192.036-53.731-81.905-113.128-163.76-166.885-245.64-39.555-59.295-76.342-121.461-110.257-180.756-16.97-28.25-28.326-59.295-22.661-93.185 5.691-47.99 70.727-73.42 101.848-59.295 31.070 14.1 48.066 39.53 65.011 64.935 31.146 53.681 62.242 107.31 93.338 160.965 79.187 144.020 166.885 282.401 268.682 409.476 50.911 64.96 107.463 124.23 175.37 172.245 31.070 19.79 62.191 36.735 101.797 39.53 14.151 2.845 25.456-5.64 28.276-19.74 2.82-16.97 8.485-36.735 2.82-53.655-11.305-36.71-25.456-73.42-45.246-107.31-70.702-121.435-144.198-242.871-214.951-364.306-31.096-50.835-59.397-107.285-84.827-160.94-14.125-28.276 0-67.78 31.121-81.905 33.941-16.92 73.496-16.92 90.518 16.945 62.191 121.435 127.253 242.871 192.29 361.461 50.911 96.031 118.768 180.705 212.106 242.845 33.941 22.61 67.857 39.53 110.308 48.015 22.636 5.665 39.606-5.665 36.761-28.225 0-14.125-2.82-28.25-11.331-39.555-28.276-53.655-59.371-104.465-87.672-158.146-48.066-81.88-98.978-163.76-124.433-259.791-11.305-42.375-19.79-87.545-2.82-135.535 23.322-63.461 89.247-113.077 160.153-115.033 2.54-0.508 5.462-0.965 8.816-1.321 35.999-1.982 69.457 7.113 101.797 20.959 32.417 13.846 62.115 32.137 86.732 57.542 16.437 16.996 30.892 35.186 35.11 61.073 1.931 13.769-1.321 28.072-9.4 41.232z" />
<glyph unicode="&#xe90c;" glyph-name="menu" horiz-adv-x="284" d="M121.905 716.19c-67.326 0-121.905 54.579-121.905 121.905s54.579 121.905 121.905 121.905c67.326 0 121.904-54.579 121.904-121.905s-54.579-121.905-121.904-121.905zM121.905 326.095c-67.326 0-121.905 54.579-121.905 121.905s54.579 121.905 121.905 121.905c67.326 0 121.904-54.579 121.904-121.905s-54.579-121.905-121.904-121.905zM121.905-64c-67.326 0-121.905 54.579-121.905 121.905s54.579 121.905 121.905 121.905c67.326 0 121.904-54.579 121.904-121.905s-54.579-121.905-121.904-121.905z" />
<glyph unicode="&#xe90d;" glyph-name="notification" horiz-adv-x="910" d="M341.821 33.036c0-53.638 43.398-97.036 97.036-97.036s97.036 43.398 97.036 97.036h-194.072zM774.339 237.349v283.794c0 158.476-109.714 291.109-257.95 326.217v35.109c0 42.91-34.621 77.531-77.531 77.531s-77.531-34.621-77.531-77.531v-35.109c-148.236-35.109-257.95-167.741-257.95-326.217v-283.794l-103.375-103.375v-51.688h877.714v51.688l-103.375 103.375z" />
<glyph unicode="&#xe90e;" glyph-name="like" horiz-adv-x="1138" d="M558.545-64l-80.989 73.661c-287.651 260.604-477.557 432.48-477.557 643.418 0 171.876 135.168 306.921 307.2 306.921 97.187 0 190.464-45.201 251.345-116.63 60.881 71.429 154.159 116.63 251.345 116.63 172.032 0 307.2-135.045 307.2-306.921 0-210.938-189.905-382.814-477.556-643.976l-80.989-73.103z" />
<glyph unicode="&#xe90f;" glyph-name="user" d="M512 923.429c141.615 0 256-114.385 256-256s-114.385-256-256-256c-141.615 0-256 114.385-256 256s114.385 256 256 256zM36.571-27.428v109.714c0 153.947 260.398 263.314 475.429 263.314s475.429-109.367 475.429-263.314v-109.714h-950.857z" />
<glyph unicode="&#xe910;" glyph-name="star" d="M512 178.176l316.416-190.976-83.968 359.936 279.552 242.176-368.128 31.232-143.872 339.456-143.872-339.456-368.128-31.232 279.552-242.176-83.968-359.936z" />
<glyph unicode="&#xe911;" glyph-name="location" horiz-adv-x="896" d="M272.312 929.685c155.51 61.645 334.535 27.526 453.499-86.437 78.234-74.543 122.042-175.975 121.69-281.625-0.013-154.244-112.922-316.125-208.001-424.81-63.36-72.371-132.94-139.539-208-200.813-75.060 61.274-144.641 128.442-208 200.813-95.081 108.685-207.988 270.566-208 424.81-0.084 161.101 101.299 306.408 256.812 368.062zM431.5 703.998c-57.163 0-109.981-30.497-138.563-80s-28.581-110.496 0-160c28.581-49.504 81.4-80 138.563-80 88.368 0 160 71.637 160 160 0 88.365-71.632 160-160 160z" />
<glyph unicode="&#xe912;" glyph-name="close" d="M503.424 577.256l-301.286 301.286c-33.603 33.603-87.768 33.738-121.093 0.413-33.557-33.557-33.14-87.54 0.413-121.093l301.286-301.286-301.286-301.286c-33.603-33.603-33.738-87.768-0.413-121.093 33.557-33.557 87.54-33.14 121.093 0.413l301.286 301.286 301.286-301.286c33.603-33.603 87.768-33.738 121.093-0.413 33.557 33.557 33.14 87.54-0.413 121.093l-301.286 301.286 301.286 301.286c33.603 33.603 33.738 87.768 0.413 121.093-33.557 33.557-87.54 33.14-121.093-0.413l-301.286-301.286z" />
<glyph unicode="&#xe913;" glyph-name="link" d="M926.72 448c0-87.552-71.168-158.72-158.72-158.72h-204.8v-97.28h204.8c141.312 0 256 114.688 256 256s-114.688 256-256 256h-204.8v-97.28h204.8c87.552 0 158.72-71.168 158.72-158.72zM716.8 499.2h-409.6v-102.4h409.6v102.4zM256 192h204.8v97.28h-204.8c-87.552 0-158.72 71.168-158.72 158.72s71.168 158.72 158.72 158.72h204.8v97.28h-204.8c-141.312 0-256-114.688-256-256s114.688-256 256-256z" />
<glyph unicode="&#xe914;" glyph-name="home" horiz-adv-x="1138" d="M1118.667 505.056l-510.483 440.443c-22.407 19.335-56.195 19.333-78.593 0.002l-510.485-440.447c-17.949-15.487-23.878-39.348-15.109-60.788 8.771-21.439 30.127-35.291 54.409-35.291h81.533v-441.291c0-17.496 14.982-31.685 33.46-31.685h279.808c18.478 0 33.46 14.186 33.46 31.685v267.938h164.448v-267.94c0-17.496 14.982-31.683 33.46-31.683h279.795c18.478 0 33.46 14.184 33.46 31.683v441.293h81.549c24.28 0 45.638 13.854 54.409 35.291 8.758 21.442 2.829 45.301-15.12 60.79z" />
<glyph unicode="&#xe915;" glyph-name="slack" d="M218.013 314.219c0-58.632-47.897-106.529-106.529-106.529s-106.529 47.897-106.529 106.529c0 58.632 47.897 106.529 106.529 106.529h106.529v-106.529zM271.69 314.219c0 58.632 47.897 106.529 106.529 106.529s106.529-47.897 106.529-106.529v-266.735c0-58.632-47.897-106.529-106.529-106.529s-106.529 47.897-106.529 106.529c0 0 0 266.735 0 266.735zM378.219 741.987c-58.632 0-106.529 47.897-106.529 106.529s47.897 106.529 106.529 106.529c58.632 0 106.529-47.897 106.529-106.529v-106.529h-106.529zM378.219 688.31c58.632 0 106.529-47.897 106.529-106.529s-47.897-106.529-106.529-106.529h-266.735c-58.632 0-106.529 47.897-106.529 106.529s47.897 106.529 106.529 106.529c0 0 266.735 0 266.735 0zM805.987 581.781c0 58.632 47.897 106.529 106.529 106.529s106.529-47.897 106.529-106.529c0-58.632-47.897-106.529-106.529-106.529h-106.529v106.529zM752.31 581.781c0-58.632-47.897-106.529-106.529-106.529s-106.529 47.897-106.529 106.529v266.735c0 58.632 47.897 106.529 106.529 106.529s106.529-47.897 106.529-106.529v-266.735zM645.781 154.013c58.632 0 106.529-47.897 106.529-106.529s-47.897-106.529-106.529-106.529c-58.632 0-106.529 47.897-106.529 106.529v106.529h106.529zM645.781 207.69c-58.632 0-106.529 47.897-106.529 106.529s47.897 106.529 106.529 106.529h266.735c58.632 0 106.529-47.897 106.529-106.529s-47.897-106.529-106.529-106.529h-266.735z" />
<glyph unicode="&#xe916;" glyph-name="linkedin" d="M10.24-41.813h218.454v662.186h-218.454zM122.88 937.814c-75.094 0-122.88-47.787-122.88-112.64s47.787-112.64 122.88-112.64c75.094 0 122.88 51.2 122.88 112.64s-47.787 112.64-122.88 112.64v0zM1024 337.067v-378.88h-218.454v354.986c0 88.747-30.72 150.186-112.64 150.186-61.44 0-95.573-40.96-112.64-81.92-6.826-13.653-6.826-34.133-6.826-54.613v-368.64h-218.454c0 0 3.413 597.333 0 658.773h218.454v-92.16c30.72 44.374 81.92 109.227 197.973 109.227 143.36 0 252.587-92.16 252.587-296.96v0z" />
<glyph unicode="&#xe917;" glyph-name="twitter" d="M609.437 526.356l380.954 433.644h-90.243l-330.92-376.45-264.109 376.45h-304.693l399.471-569.313-399.471-454.687h90.241l349.235 397.629 278.978-397.629h304.692zM123.237 893.358h138.637l638.208-893.989h-138.673z" />
<glyph unicode="&#xe918;" glyph-name="facebook" d="M403.394-64v467.653h-156.875v181.418h156.875v133.040c0 157.229 92.516 241.889 233.302 241.889 68.381 0 124.695-4.031 140.786-8.063v-161.26h-96.539c-72.404 0-88.494-36.284-88.494-88.693v-116.913h181.010l-24.134-181.418h-156.875v-467.653h-189.055z" />
<glyph unicode="&#xe919;" glyph-name="plus" d="M585.143 521.143v365.214c0 40.733-32.747 73.644-73.143 73.644-40.677 0-73.143-32.971-73.143-73.644v-365.214h-365.214c-40.733 0-73.644-32.747-73.644-73.143 0-40.677 32.971-73.143 73.644-73.143h365.214v-365.214c0-40.733 32.747-73.644 73.143-73.644 40.677 0 73.143 32.971 73.143 73.644v365.214h365.214c40.733 0 73.644 32.747 73.644 73.143 0 40.677-32.971 73.143-73.644 73.143h-365.214z" />
<glyph unicode="&#xe91a;" glyph-name="check" horiz-adv-x="1339" d="M482.751 318.89l-306.34 306.34-167.095-167.095 473.435-473.435 807.625 807.625-167.095 167.095-640.53-640.53z" />
<glyph unicode="&#xe91b;" glyph-name="contact" d="M939.222 170.617c-6.957 0.148-13.824 1.581-20.262 4.224l-120.832 42.88c-2.618 1.094-5.427 1.638-8.262 1.606-2.612 0-5.203-0.474-7.648-1.395-2.912-1.094-29.171-10.963-56.724-18.521-14.931-4.102-66.918-17.472-108.644-17.472-106.639 0-206.349 40.98-280.731 115.404-36.336 36.115-65.15 79.078-84.77 126.402s-29.661 98.071-29.537 149.301c-0.001 26.694 2.875 53.311 8.578 79.388 18.569 85.811 67.748 163.867 138.474 219.701 72.551 56.911 162.116 87.8 254.325 87.711 110.293 0 213.070-42.25 289.416-118.68 72.16-72.397 111.706-167.586 111.392-268.014-0.064-74.626-22.349-147.543-64.012-209.455l-0.396-0.592-1.568-2.112c-0.358-0.486-0.717-0.95-1.056-1.436l-0.313-0.571c-0.838-1.429-1.6-2.903-2.284-4.416l33.254-118.175c1.465-4.87 2.265-9.926 2.362-15.021 0.013-6.669-1.299-13.274-3.846-19.43-2.547-6.164-6.285-11.763-11.001-16.48s-10.317-8.454-16.474-11.001c-6.164-2.547-12.768-3.859-19.436-3.846zM565.876 51.519c-2.182 4.244-5.254 7.968-9.005 10.918-3.751 2.957-8.093 5.063-12.733 6.189-12.21 3.232-26.449 2.682-37.328 3.488-102.724 7.142-199.391 51.225-272.133 124.108-64.669 64.307-106.697 147.885-119.757 238.143-2.957 20.576-2.957 25.688-2.957 25.688-0.001 6.865-2.093 13.567-5.997 19.214s-9.434 9.972-15.856 12.397c-6.423 2.427-13.43 2.84-20.093 1.186s-12.663-5.299-17.204-10.448c0 0-16.646-18.125-24.505-36.314-22.040-50.782-31.439-106.15-27.392-161.363s21.42-108.614 50.63-155.641c5.492-9.146 5.492-13.369 4.267-22.88-5.767-29.805-15.865-82.387-21.125-109.657-1.741-8.845-1.093-17.997 1.876-26.502 2.971-8.512 8.157-16.077 15.024-21.92l0.972-0.819c9.084-7.22 20.34-11.149 31.942-11.155 6.525-0.006 12.986 1.28 19.012 3.782l113.040 43.622c3.893 1.478 8.192 1.478 12.084 0 44.51-16.563 90.837-25.35 134.735-25.35 54.695-0.051 108.73 11.968 158.247 35.193 11.534 5.408 29.576 11.283 40.138 23.494 3.997 4.736 6.517 10.535 7.249 16.691s-0.357 12.391-3.131 17.933z" />
<glyph unicode="&#xe91c;" glyph-name="upload" d="M806.24 601.585c-24.992-24.993-65.517-24.993-90.509 0l-139.748 139.749v-443.101c0-35.347-28.654-64-64-64s-64 28.653-64 64v443.1l-139.748-139.748c-24.994-24.993-65.516-24.993-90.51 0s-24.993 65.516 0 90.51l249.004 249.003c2.125 2.126 4.385 4.086 6.759 5.874 9.127 6.882 20.156 11.377 32.157 12.557 2.097 0.209 4.213 0.315 6.339 0.315 2.154 0 4.296-0.109 6.42-0.323 11.698-1.165 22.468-5.48 31.451-12.085 2.603-1.911 5.072-4.027 7.384-6.338l249.001-249.003c24.998-24.994 24.998-65.516 0-90.51zM63.781 362.97c35.346 0 64-28.653 64-64v-199.2c0-9.446 3.751-18.502 10.428-25.178s15.732-10.426 25.174-10.426h697.213c9.44 0 18.496 3.75 25.171 10.426s10.426 15.731 10.426 25.178v199.2c0 35.347 28.653 64 64 64s64-28.653 64-64v-199.2c0-43.392-17.235-85.005-47.917-115.686s-72.294-47.917-115.68-47.917h-697.213c-43.389 0-85.002 17.235-115.683 47.917s-47.918 72.294-47.918 115.686v199.2c0 35.347 28.654 64 64 64z" />
<glyph unicode="&#xe91d;" glyph-name="behance" horiz-adv-x="1536" d="M1393.073 809.683h-369.47v91.774h369.501v-91.774h-0.031zM777.638 433.349c23.84-36.925 35.753-81.76 35.753-134.397 0-54.433-13.432-103.265-40.758-146.399-17.385-28.543-38.969-52.654-64.903-72.065-29.209-22.448-63.789-37.841-103.543-46.065-39.881-8.238-83.045-12.4-129.542-12.4h-413.204v917.497h443.098c111.688-1.817 190.87-34.176 237.628-97.725 28.057-38.976 41.958-85.743 41.958-140.105 0-56.093-14.069-100.975-42.4-135.076-15.76-19.119-39.041-36.511-69.86-52.208 46.682-17.090 82.103-44.001 105.775-81.057zM273.037 577.797h194.147c39.898 0 72.15 7.583 96.991 22.743 24.824 15.136 37.21 42.040 37.21 80.67 0 42.678-16.401 71.005-49.281 84.64-28.262 9.472-64.423 14.351-108.301 14.351h-170.767v-202.403zM620.080 312.058c0 47.659-19.479 80.608-58.359 98.287-21.742 10.048-52.418 15.184-91.75 15.55h-196.935v-244.508h193.887c39.833 0 70.663 5.214 92.912 16.092 40.124 20 60.244 58.064 60.244 114.578zM1530.158 461.32c4.464-30.018 6.483-73.57 5.663-130.495h-478.505c2.64-66.048 25.441-112.237 68.685-138.668 26.079-16.575 57.697-24.67 94.722-24.67 39.041 0 70.861 9.87 95.356 30.158 13.346 10.754 25.119 25.935 35.297 45.088h175.388c-4.594-39.010-25.712-78.575-63.662-118.781-58.798-63.906-141.26-95.949-247.165-95.949-87.488 0-164.593 27.025-231.519 80.879-66.703 54.043-100.204 141.689-100.204 263.271 0 114.013 30.076 201.278 90.43 262.019 60.577 60.854 138.754 91.143 235.118 91.143 57.118 0 108.606-10.209 154.541-30.734 45.791-20.545 83.635-52.88 113.44-97.321 26.973-39.137 44.32-84.389 52.414-135.94zM1357.523 444.199c-3.216 45.671-18.464 80.238-45.921 103.862-27.23 23.689-61.249 35.582-101.839 35.582-44.176 0-78.287-12.712-102.525-37.697-24.402-24.934-39.586-58.832-45.808-101.75l296.093 0.003z" />
<glyph unicode="&#xe91e;" glyph-name="bin" horiz-adv-x="910" d="M599.23 865.185v94.815h-288.237v-94.815h-284.444v-132.741h857.126v132.741zM121.363 607.289v-652.326h667.496v652.326z" />
<glyph unicode="&#xe91f;" glyph-name="users" d="M42.667 237.714c-12.089 0-22.215 4.095-30.379 12.29-8.164 8.19-12.26 18.316-12.288 30.378v24.536c0 30.576 15.645 55.465 46.933 74.665s72.534 28.8 123.734 28.8c9.245 0 18.134-0.185 26.667-0.555s16.712-1.251 24.534-2.645c-9.956-14.933-17.422-30.578-22.4-46.934s-7.467-33.422-7.467-51.2v-69.335h-149.333zM298.667 146.284c-12.088 0-22.215 4.1-30.378 12.29s-12.26 18.321-12.288 30.378v26.665c0 22.759 6.229 134.994 18.688 153.852s30.051 35.385 52.778 49.579c22.727 14.194 49.934 24.861 81.622 32s65.993 10.695 102.91 10.666c37.692 0 72.363-3.555 104.024-10.666 31.656-7.111 58.849-17.778 81.579-32 22.726-14.223 40.151-30.763 52.266-49.621s18.161-131.079 18.132-153.81v-26.665c0-12.086-4.080-22.227-12.246-30.421-8.161-8.19-18.301-12.275-30.421-12.246h-426.665zM831.999 237.714v69.335c0 18.489-2.304 35.911-6.912 52.267s-11.545 31.644-20.818 45.866c7.822 1.422 15.828 2.304 24.023 2.645 8.19 0.341 16.54 0.526 25.044 0.555 51.201 0 92.446-9.43 123.734-28.288s46.932-43.918 46.932-75.177v-24.536c0-12.086-4.095-22.227-12.29-30.421-8.19-8.19-18.316-12.275-30.378-12.246h-149.334zM170.667 451.049c-23.467 0-43.549 8.349-60.245 25.045s-25.060 36.793-25.088 60.288c0 24.178 8.363 44.445 25.088 60.8s36.807 24.533 60.245 24.533c24.178 0 44.445-8.177 60.8-24.533s24.533-36.623 24.533-60.8c0-23.466-8.177-43.563-24.533-60.288s-36.623-25.074-60.8-25.045zM853.335 451.049c-23.466 0-43.549 8.349-60.248 25.045-16.694 16.697-25.058 36.793-25.088 60.288 0 24.178 8.364 44.445 25.088 60.8 16.728 16.356 36.811 24.533 60.248 24.533 24.178 0 44.444-8.177 60.8-24.533s24.531-36.623 24.531-60.8c0-23.466-8.175-43.563-24.531-60.288s-36.622-25.074-60.8-25.045zM511.999 493.715c-35.552 0-65.776 12.445-90.665 37.334s-37.334 55.111-37.334 90.667c0 36.267 12.445 66.659 37.334 91.179s55.113 36.793 90.665 36.821c36.269 0 66.676-12.274 91.221-36.821 24.55-24.548 36.811-54.94 36.782-91.179 0-35.556-12.261-65.778-36.782-90.667-24.516-24.889-54.923-37.334-91.221-37.334z" />
<glyph unicode="&#xe920;" glyph-name="images" horiz-adv-x="1097" d="M976.457 674.743l54.857-10.971c40.229-7.314 65.829-43.886 58.514-84.114l-98.743-563.2c-7.314-40.229-43.886-65.829-84.114-58.514l-621.714 109.714c-32.914 3.657-54.857 29.257-58.514 58.514h676.571c40.229 0 73.143 32.914 73.143 73.143v475.429zM73.143 960h731.429c40.229 0 73.143-32.914 73.143-73.143v-585.143c0-40.229-32.914-73.143-73.143-73.143h-731.429c-40.229 0-73.143 32.914-73.143 73.143v585.143c0 40.229 32.914 73.143 73.143 73.143zM369.371 594.286l-138.971-175.543h416.914l-102.4 138.971-73.143-95.086-102.4 131.657zM614.4 696.686c0 29.257-25.6 51.2-54.857 51.2s-51.2-21.943-51.2-51.2c0-29.257 21.943-51.2 51.2-51.2s54.857 21.943 54.857 51.2z" />
<glyph unicode="&#xe921;" glyph-name="bolt-hollow" d="M999.148 167.787c4.177-7.219 6.543-15.344 6.884-23.671 0.346-8.333-1.345-16.623-4.914-24.16s-8.921-14.092-15.586-19.104c-6.665-5.013-14.444-8.328-22.678-9.668l-5.813-0.565-5.764 0.055-150.989 9.778-67.079-135.695c-3.634-7.356-8.97-13.741-15.574-18.616-6.598-4.875-14.268-8.103-22.365-9.41-8.103-1.312-16.397-0.664-24.193 1.883-7.8 2.548-14.877 6.917-20.647 12.753l-4.222 4.842-3.706 5.66-101.313 175.391c17.194 1.082 34.267 3.118 51.148 6.083 21.382 3.761 42.452 9.009 63.061 15.712 30.627 9.959 60.228 23.112 88.302 39.317 5.523 3.184 10.974 6.478 16.342 9.881 21.959 13.911 42.661 29.606 61.896 46.91 28.833 25.934 54.392 55.463 76.005 87.962l101.203-175.336zM223.668 100.401l-150.885-9.783c-8.315-0.544-16.638 0.933-24.255 4.315-7.617 3.377-14.3 8.553-19.475 15.085s-8.687 14.224-10.234 22.409c-1.547 8.191-1.084 16.629 1.351 24.599l2.060 5.507 2.574 5.149 101.311 175.495c21.602-32.516 47.154-62.056 75.98-87.995 18.718-16.843 38.817-32.164 60.113-45.795 5.93-3.799 11.952-7.46 18.064-10.991 28.063-16.211 57.655-29.364 88.269-39.323 20.597-6.703 41.657-11.951 63.026-15.712 16.881-2.975 33.954-5.018 51.144-6.104l-101.208-175.441c-4.093-7.115-9.828-13.153-16.728-17.6s-14.765-7.18-22.936-7.977c-8.172-0.79-16.415 0.384-24.040 3.431-7.625 3.042-14.412 7.862-19.794 14.065l-3.912 5.149-3.295 5.868-67.129 135.646zM194.533 429.049c-3.337 6.208-6.497 12.522-9.474 18.94l-6.692 15.289-2.677 6.847-4.118 11.171-4.89 15.134c-1.746 5.861-3.342 11.766-4.787 17.708l-3.088 13.951-2.523 13.951-1.030 7.156-2.007 16.628-1.236 18.79-0.309 15.031c-0.002 93.433 36.287 183.215 101.211 250.407s153.409 106.538 246.788 109.742l12.355 0.206 12.355-0.206c93.379-3.203 181.863-42.55 246.79-109.742 64.922-67.191 101.214-156.973 101.208-250.407l-0.154-9.935-0.357-9.885-0.928-12.612-1.339-12.459-1.236-9.163c-3.393-22.22-8.855-44.074-16.321-65.276l-5.967-15.856-7.878-17.916c-2.816-6.001-5.792-11.907-8.926-17.727-5.292-9.822-11.023-19.38-17.178-28.636-27.877-41.942-64.35-77.746-107.225-104.914-4.177-2.646-8.411-5.204-12.687-7.674-48.15-27.811-102.060-44.082-157.478-47.585-3.952-0.253-7.917-0.434-11.881-0.554-3.885-0.121-7.775-0.17-11.67-0.165-3.381 0.005-6.757 0.060-10.13 0.165-3.951 0.121-7.895 0.308-11.832 0.554-55.418 3.508-109.308 19.774-157.44 47.563-4.746 2.739-9.435 5.594-14.065 8.553-42.288 27.064-78.281 62.544-105.86 104.025-6.208 9.338-11.991 18.978-17.322 28.899zM285.114 493.214c20.102-42.827 51.919-79.098 91.783-104.609 40.169-25.703 86.839-39.416 134.529-39.521 47.688-0.104 94.422 13.401 134.7 38.928 39.937 25.307 71.894 61.392 92.183 104.076l6.088 13.848 4.469 11.861c4.914 14.147 8.547 28.707 10.858 43.503l0.894 6.656 0.983 9.148 0.643 8.747 0.248 6.714 0.121 7.86c-0.198 64.687-25.406 126.803-70.373 173.335-44.939 46.508-106.111 73.83-170.716 76.273l-9.47 0.158-9.47-0.158c-64.604-2.443-125.776-29.766-170.715-76.273-44.905-46.474-70.108-108.489-70.371-173.086l0.233-11.327 0.876-13.331 1.499-12.417 0.571-3.964 1.789-9.9 2.359-10.65c0.846-3.42 1.765-6.824 2.756-10.204l3.78-11.698 2.975-8.071 1.491-3.811 5.289-12.083z" />
<glyph unicode="&#xe922;" glyph-name="refresh" d="M872.96 809.6c-92.8 92.8-220.16 150.4-361.6 150.4-282.88 0-511.36-229.12-511.36-512s228.48-512 511.36-512c238.72 0 437.76 163.2 494.72 384h-133.12c-52.48-149.12-194.56-256-361.6-256-211.84 0-384 172.16-384 384s172.16 384 384 384c106.24 0 200.96-44.16 270.080-113.92l-206.080-206.080h448v448l-150.4-150.4z" />
<glyph unicode="&#xe923;" glyph-name="play" horiz-adv-x="768" d="M130.218 925.371l560.156-399.928c36.822-26.289 45.36-77.45 19.071-114.272-5.26-7.367-11.704-13.811-19.071-19.071l-560.156-399.928c-36.822-26.289-87.983-17.751-114.272 19.071-9.918 13.891-15.249 30.533-15.249 47.601v799.855c0 45.243 36.677 81.92 81.92 81.92 17.068 0 33.71-5.331 47.601-15.249z" />
<glyph unicode="&#xe924;" glyph-name="right" horiz-adv-x="658" d="M492.099 295.031l-332.484-332.484c-36.725-36.725-96.269-36.725-132.994 0v0c-36.725 36.725-36.725 96.269 0 132.994l332.484 332.484-332.485 332.485c-36.725 36.725-36.725 96.269 0 132.994v0c36.725 36.725 96.269 36.725 132.994 0l465.478-465.478-132.994-132.994z" />
<glyph unicode="&#xe925;" glyph-name="fav" d="M755.811 960h-487.619c-53.638 0-97.037-51.2-97.037-113.778l-0.488-910.222 341.333 170.667 341.333-170.667v910.222c0 62.578-43.886 113.778-97.524 113.778z" />
<glyph unicode="&#xe926;" glyph-name="plus-lite" d="M1024 374.857h-438.857v-438.857h-146.286v438.857h-438.857v146.286h438.857v438.857h146.286v-438.857h438.857z" />
<glyph unicode="&#xe927;" glyph-name="check-lite" horiz-adv-x="1303" d="M1244.063 785.112l-789.902-789.902-394.951 394.951 131.65 131.65 263.301-263.301 658.252 658.252z" />
<glyph unicode="&#xe928;" glyph-name="fill" d="M771.448 421.496l-508.516 538.504-80.202-84.932 135.377-143.36-292.937-310.212c-33.56-35.539-33.56-92.762 0-127.699l312.845-331.294c16.495-17.468 38.679-26.504 60.294-26.504s43.798 9.035 60.294 26.504l312.845 331.294c33.56 34.936 33.56 92.16 0 127.699v0zM125.849 357.647l272.46 288.527 272.46-288.527h-544.92zM910.238 267.294c0 0-113.762-130.711-113.762-210.824 0-66.259 51.193-120.471 113.762-120.471s113.762 54.212 113.762 120.471c0 80.113-113.762 210.824-113.762 210.824z" />
<glyph unicode="&#xe92a;" glyph-name="download" d="M477.867 251.733c17.067-21.333 51.2-21.333 68.267 0l256 268.8c21.333 21.333 0 55.467-34.133 55.467h-170.667c0 0 8.533 196.267 0 298.667-4.267 46.933-38.4 85.333-85.333 85.333s-81.067-38.4-85.333-85.333c-8.533-98.133 0-298.667 0-298.667h-170.667c-34.133 0-55.467-34.133-34.133-59.733l256-264.533zM810.667 149.333h-597.333c-46.933 0-85.333-38.4-85.333-85.333v0c0-25.6 17.067-42.667 42.667-42.667h682.667c25.6 0 42.667 17.067 42.667 42.667v0c0 46.933-38.4 85.333-85.333 85.333z" />
<glyph unicode="&#xe92b;" glyph-name="instagram" d="M511.839 959.677c-139.008 0-156.438-0.589-211.031-3.080-54.479-2.485-91.687-11.138-124.243-23.792-33.658-13.078-62.202-30.58-90.659-59.034-28.455-28.457-45.956-57.001-59.034-90.659-12.654-32.557-21.307-69.764-23.792-124.243-2.491-54.593-3.080-72.023-3.080-211.031 0-139.006 0.589-156.436 3.080-211.029 2.485-54.479 11.138-91.687 23.792-124.243 13.078-33.658 30.58-62.202 59.034-90.659 28.457-28.455 57.001-45.956 90.659-59.036 32.557-12.652 69.764-21.305 124.243-23.79 54.593-2.491 72.023-3.080 211.031-3.080 139.006 0 156.436 0.589 211.029 3.080 54.479 2.485 91.687 11.138 124.243 23.79 33.658 13.080 62.202 30.582 90.659 59.036 28.455 28.457 45.956 57.001 59.036 90.659 12.652 32.557 21.305 69.764 23.79 124.243 2.491 54.593 3.080 72.023 3.080 211.029 0 139.008-0.589 156.438-3.080 211.031-2.485 54.479-11.138 91.687-23.79 124.243-13.080 33.658-30.582 62.202-59.036 90.659-28.457 28.455-57.001 45.956-90.659 59.034-32.557 12.654-69.764 21.307-124.243 23.792-54.593 2.491-72.023 3.080-211.029 3.080zM511.839 867.454c136.665 0 152.854-0.522 206.826-2.985 49.904-2.276 77.005-10.614 95.041-17.623 23.891-9.285 40.942-20.376 58.852-38.288 17.912-17.91 29.003-34.96 38.288-58.852 7.010-18.036 15.348-45.137 17.623-95.041 2.462-53.971 2.985-70.16 2.985-206.828 0-136.665-0.522-152.854-2.985-206.826-2.276-49.904-10.614-77.005-17.623-95.041-9.285-23.891-20.376-40.942-38.288-58.852-17.91-17.912-34.96-29.003-58.852-38.288-18.036-7.010-45.137-15.348-95.041-17.623-53.963-2.462-70.15-2.985-206.826-2.985-136.678 0-152.862 0.522-206.828 2.985-49.904 2.276-77.005 10.614-95.041 17.623-23.891 9.285-40.942 20.376-58.852 38.288-17.91 17.91-29.003 34.96-38.288 58.852-7.010 18.036-15.348 45.137-17.623 95.041-2.462 53.971-2.985 70.16-2.985 206.826s0.522 152.856 2.985 206.828c2.276 49.904 10.614 77.005 17.623 95.041 9.285 23.891 20.376 40.942 38.288 58.852 17.91 17.912 34.96 29.003 58.852 38.288 18.036 7.010 45.137 15.348 95.041 17.623 53.971 2.462 70.16 2.985 206.828 2.985zM511.839 277.226c-94.228 0-170.614 76.386-170.614 170.612 0 94.228 76.386 170.614 170.614 170.614 94.226 0 170.612-76.386 170.612-170.614 0-94.226-76.386-170.612-170.612-170.612zM511.839 710.674c-145.162 0-262.837-117.675-262.837-262.837 0-145.16 117.675-262.835 262.837-262.835 145.16 0 262.835 117.675 262.835 262.835 0 145.162-117.675 262.837-262.835 262.837zM846.48 721.059c0-33.922-27.5-61.42-61.422-61.42-33.92 0-61.42 27.498-61.42 61.42s27.5 61.422 61.42 61.422c33.922 0 61.422-27.5 61.422-61.422z" />
<glyph unicode="&#xe92c;" glyph-name="camera" horiz-adv-x="1161" d="M398.222 960l-104.107-113.778h-180.338c-62.578 0-113.778-51.2-113.778-113.778v-682.667c0-62.578 51.2-113.778 113.778-113.778h910.222c62.578 0 113.778 51.2 113.778 113.778v682.667c0 62.578-51.2 113.778-113.778 113.778h-180.338l-104.107 113.778h-341.333zM568.889 106.667c-157.013 0-284.444 127.431-284.444 284.444s127.431 284.444 284.444 284.444c157.013 0 284.444-127.431 284.444-284.444s-127.431-284.444-284.444-284.444zM750.933 391.111c0-121.363-60.681-182.044-182.044-182.044s-182.044 60.681-182.044 182.044c0 121.363 60.681 182.044 182.044 182.044s182.044-60.681 182.044-182.044z" />
<glyph unicode="&#xe92d;" glyph-name="lightness" d="M874.157 298.157l149.843 149.843-149.843 149.843v212.315h-212.315l-149.843 149.843-149.843-149.843h-212.315v-212.315l-149.843-149.843 149.843-149.843v-212.315h212.315l149.843-149.843 149.843 149.843h212.315v212.315zM512 176.382v543.236c149.843 0 271.618-121.775 271.618-271.618s-121.775-271.618-271.618-271.618z" />
<glyph unicode="&#xe92e;" glyph-name="lock" horiz-adv-x="755" d="M660.211 618.667h-47.158v97.524c0 134.583-105.634 243.81-235.789 243.81s-235.789-109.227-235.789-243.81v-97.524h-47.158c-51.874 0-94.316-43.886-94.316-97.524v-487.619c0-53.638 42.442-97.524 94.316-97.524h565.895c51.874 0 94.316 43.886 94.316 97.524v487.619c0 53.638-42.442 97.524-94.316 97.524zM377.263 179.81c-51.874 0-94.316 43.886-94.316 97.524s42.442 97.524 94.316 97.524c51.874 0 94.316-43.886 94.316-97.524s-42.442-97.524-94.316-97.524zM523.453 618.667h-292.379v97.524c0 83.383 65.549 151.162 146.189 151.162s146.189-67.779 146.189-151.162v-97.524z" />
<glyph unicode="&#xe92f;" glyph-name="pick" d="M1007.432 810.261l-133.111 133.102c-22.185 22.184-58.023 22.184-80.208 0l-177.481-177.469-109.788 108.643-80.208-80.202 80.777-80.771-507.413-507.378v-270.185h270.203l507.413 507.378 80.777-80.771 80.208 80.202-109.219 109.212 177.481 177.469c22.754 22.752 22.754 58.587 0.569 80.771v0zM222.989 49.762l-109.219 109.212 458.492 458.461 109.219-109.212-458.492-458.461z" />
<glyph unicode="&#xe930;" glyph-name="copy" horiz-adv-x="896" d="M651.636 960h-558.545c-51.2 0-93.091-41.891-93.091-93.091v-651.636h93.091v651.636h558.545v93.091zM791.273 773.818h-512c-51.2 0-93.091-41.891-93.091-93.091v-651.636c0-51.2 41.891-93.091 93.091-93.091h512c51.2 0 93.091 41.891 93.091 93.091v651.636c0 51.2-41.891 93.091-93.091 93.091z" />
<glyph unicode="&#xe931;" glyph-name="bolt" d="M897.945 343.122l101.203-175.337c4.177-7.22 6.543-15.343 6.884-23.671 0.346-8.334-1.345-16.623-4.913-24.16s-8.921-14.092-15.586-19.105c-6.665-5.013-14.443-8.328-22.679-9.667l-5.813-0.565-5.764 0.055-150.989 9.778-67.079-135.695c-3.634-7.357-8.971-13.741-15.574-18.615-6.598-4.876-14.268-8.103-22.365-9.41-8.103-1.312-16.397-0.665-24.194 1.883-7.802 2.548-14.877 6.917-20.646 12.752l-4.222 4.842-3.706 5.66-101.315 175.392c71.318 4.48 140.627 25.395 202.512 61.112 61.892 35.711 114.681 85.256 154.245 144.753zM482.708 137.258l-101.208-175.441c-4.093-7.115-9.829-13.154-16.728-17.601s-14.764-7.181-22.936-7.976c-8.172-0.79-16.415 0.384-24.039 3.431-7.626 3.041-14.413 7.862-19.794 14.065l-3.913 5.15-3.295 5.868-67.129 135.646-150.885-9.783c-8.315-0.543-16.639 0.933-24.256 4.314-7.616 3.377-14.3 8.553-19.474 15.086s-8.686 14.224-10.233 22.41c-1.547 8.191-1.084 16.628 1.351 24.6l2.060 5.505 2.574 5.15 101.311 175.496c39.537-59.503 92.297-109.054 154.158-144.781 61.86-35.733 131.144-56.622 202.439-61.139zM512.053 960l12.352-0.206c93.382-3.204 181.866-42.551 246.793-109.741 64.921-67.191 101.213-156.973 101.208-250.407l-0.153-9.935-0.357-9.885-0.927-12.612-1.34-12.459-1.235-9.162c-3.392-22.221-8.856-44.075-16.321-65.277l-5.966-15.856-7.878-17.917c-29.145-62.085-75.396-114.561-133.329-151.277-57.927-36.71-125.133-56.132-193.717-55.979s-135.699 19.868-193.469 56.835c-57.767 36.968-103.788 89.653-132.657 151.863l-6.692 15.289-2.677 6.847-4.118 11.171-4.89 15.134c-1.746 5.862-3.342 11.766-4.787 17.708l-3.089 13.951-2.523 13.95-1.031 7.156-2.007 16.628-1.235 18.789-0.309 15.032c-0.002 93.434 36.287 183.215 101.211 250.407s153.409 106.538 246.788 109.741l12.356 0.206z" />
<glyph unicode="&#xe932;" glyph-name="bolt-strong" horiz-adv-x="843" d="M833.477 591.754c-7.64 16.415-24.101 26.913-42.204 26.913h-256.543l171.691 269.799c9.12 14.333 9.706 32.495 1.533 47.386s-23.813 24.148-40.802 24.148h-279.273c-16.611 0-31.961-8.85-40.28-23.223l-341.333-589.576c-8.338-14.401-8.353-32.154-0.043-46.57 8.313-14.417 23.685-23.298 40.324-23.298h280.393l-77.058-282.54c-5.75-21.079 3.938-43.318 23.285-53.465 6.851-3.593 14.262-5.328 21.6-5.328 13.383 0 26.537 5.772 35.623 16.567l496.485 589.576c11.664 13.846 14.24 33.199 6.603 49.611z" />
<glyph unicode="&#xe933;" glyph-name="grid-masonry" horiz-adv-x="1152" d="M64 960h128c35.346 0 64-28.654 64-64v-128c0-35.346-28.654-64-64-64h-128c-35.346 0-64 28.654-64 64v128c0 35.346 28.654 64 64 64zM64 576h128c35.346 0 64-28.654 64-64v-512c0-35.346-28.654-64-64-64h-128c-35.346 0-64 28.654-64 64v512c0 35.346 28.654 64 64 64zM960 960h128c35.346 0 64-28.654 64-64v-512c0-35.346-28.654-64-64-64h-128c-35.346 0-64 28.654-64 64v512c0 35.346 28.654 64 64 64zM512 960h128c35.346 0 64-28.654 64-64v-320c0-35.346-28.654-64-64-64h-128c-35.346 0-64 28.654-64 64v320c0 35.346 28.654 64 64 64zM512 384h128c35.346 0 64-28.654 64-64v-320c0-35.346-28.654-64-64-64h-128c-35.346 0-64 28.654-64 64v320c0 35.346 28.654 64 64 64zM960 192h128c35.346 0 64-28.654 64-64v-128c0-35.346-28.654-64-64-64h-128c-35.346 0-64 28.654-64 64v128c0 35.346 28.654 64 64 64z" />
<glyph unicode="&#xe934;" glyph-name="grid-small" horiz-adv-x="1152" d="M64 960h128c35.346 0 64-28.654 64-64v-128c0-35.346-28.654-64-64-64h-128c-35.346 0-64 28.654-64 64v128c0 35.346 28.654 64 64 64zM64 576h128c35.346 0 64-28.654 64-64v-128c0-35.346-28.654-64-64-64h-128c-35.346 0-64 28.654-64 64v128c0 35.346 28.654 64 64 64zM64 192h128c35.346 0 64-28.654 64-64v-128c0-35.346-28.654-64-64-64h-128c-35.346 0-64 28.654-64 64v128c0 35.346 28.654 64 64 64zM512 960h128c35.346 0 64-28.654 64-64v-128c0-35.346-28.654-64-64-64h-128c-35.346 0-64 28.654-64 64v128c0 35.346 28.654 64 64 64zM512 576h128c35.346 0 64-28.654 64-64v-128c0-35.346-28.654-64-64-64h-128c-35.346 0-64 28.654-64 64v128c0 35.346 28.654 64 64 64zM512 192h128c35.346 0 64-28.654 64-64v-128c0-35.346-28.654-64-64-64h-128c-35.346 0-64 28.654-64 64v128c0 35.346 28.654 64 64 64zM960 960h128c35.346 0 64-28.654 64-64v-128c0-35.346-28.654-64-64-64h-128c-35.346 0-64 28.654-64 64v128c0 35.346 28.654 64 64 64zM960 576h128c35.346 0 64-28.654 64-64v-128c0-35.346-28.654-64-64-64h-128c-35.346 0-64 28.654-64 64v128c0 35.346 28.654 64 64 64zM960 192h128c35.346 0 64-28.654 64-64v-128c0-35.346-28.654-64-64-64h-128c-35.346 0-64 28.654-64 64v128c0 35.346 28.654 64 64 64z" />
<glyph unicode="&#xe935;" glyph-name="grid-big" horiz-adv-x="1152" d="M64 960h384c35.346 0 64-28.654 64-64v-320c0-35.346-28.654-64-64-64h-384c-35.346 0-64 28.654-64 64v320c0 35.346 28.654 64 64 64zM64 384h384c35.346 0 64-28.654 64-64v-320c0-35.346-28.654-64-64-64h-384c-35.346 0-64 28.654-64 64v320c0 35.346 28.654 64 64 64zM704 960h384c35.346 0 64-28.654 64-64v-320c0-35.346-28.654-64-64-64h-384c-35.346 0-64 28.654-64 64v320c0 35.346 28.654 64 64 64zM704 384h384c35.346 0 64-28.654 64-64v-320c0-35.346-28.654-64-64-64h-384c-35.346 0-64 28.654-64 64v320c0 35.346 28.654 64 64 64z" />
<glyph unicode="&#xe936;" glyph-name="warning" horiz-adv-x="1252" d="M98.671-64h1054.214c31.419 0 56.889 25.47 56.889 56.889 0 10.009-2.641 19.841-7.656 28.503l-527.107 910.458c-15.742 27.191-50.546 36.472-77.737 20.73-8.602-4.98-15.75-12.128-20.73-20.73l-527.107-910.458c-15.742-27.191-6.461-61.994 20.73-77.737 8.662-5.015 18.494-7.656 28.503-7.656zM682.667 106.667h-113.778v113.778h113.778v-113.778zM682.667 334.222h-113.778v227.556h113.778v-227.556z" />
<glyph unicode="&#xe937;" glyph-name="edit" d="M0 146.668v-210.668h210.668l621.332 621.332-210.668 210.668-621.332-621.332zM1008.061 739.719c21.252 21.252 21.252 55.581 0 76.833l-127.51 127.51c-21.252 21.252-55.581 21.252-76.833 0l-99.719-99.719 204.342-204.342 99.719 99.719z" />
<glyph unicode="&#xe938;" glyph-name="medium" d="M179.649 959.998c-99.216 0-179.648-80.431-179.648-179.648v-664.698c0-99.22 80.432-179.653 179.648-179.653h664.701c99.214 0 179.647 80.433 179.647 179.653v46.622c-5.838-0.566-11.84-0.851-17.999-0.851-109.941 0-171.834 91.569-174.503 206.153-0.078 4.431-0.050 8.832 0.050 13.203 0.059 2.728 0.167 5.445 0.306 8.153 0.069 1.447 0.137 2.806 0.246 4.323s0.217 3.032 0.345 4.549c3.958 50.595 20.243 95.611 47.123 128.922 16.699 20.678 36.765 36.432 59.519 46.968 19.987 10.063 48.084 15.617 70.98 15.617h0.99c4.342 0 8.65-0.145 12.943-0.432v191.473c0 99.216-80.433 179.648-179.647 179.648h-664.701zM1023.997 255.27v155.067l-94.060-0.020c-4.239-74.89 36.75-138.181 94.060-155.047zM1023.997 432.002v131.287c-4.549 1.247-9.423 1.917-14.601 2.002-46.311-0.955-73.914-56.43-77.351-133.289h91.953zM836.921 715.558l-0.807-0.178c-30.094-6.794-45.376-16.926-45.376-53.465h-0.137l0.137-438.365c2.58-28.859 18.092-37.77 45.376-43.924l0.807-0.187v-6.203h-210.027v6.203l0.807 0.187c27.259 6.154 42.403 15.065 44.982 43.924v426.46l-202.435-475.79h-11.156l-196.703 462.88v-402.987c0-36.539 15.283-46.671 45.383-53.464l0.797-0.178v-6.252h-120.57v6.272l0.799 0.178c30.1 6.794 45.44 16.925 45.44 53.464v427.781c0 36.54-15.283 46.672-45.382 53.465l-0.799 0.178v6.253h177.709l153.125-359.888 153.122 359.888h164.907v-6.253z" />
<glyph unicode="&#xe939;" glyph-name="trend" d="M716.798 755.2l117.249-117.249-249.855-249.855-204.8 204.8-379.391-379.904 72.192-72.192 307.199 307.199 204.8-204.8 322.559 322.047 117.249-117.249v307.199z" />
<glyph unicode="&#xe93a;" glyph-name="bars" horiz-adv-x="896" d="M85.333 277.333v0c47.128 0 85.333-38.205 85.333-85.333v-170.667c0-47.128-38.205-85.333-85.333-85.333v0c-47.128 0-85.333 38.205-85.333 85.333v170.667c0 47.128 38.205 85.333 85.333 85.333zM426.667 618.667v0c47.128 0 85.333-38.205 85.333-85.333v-512c0-47.128-38.205-85.333-85.333-85.333v0c-47.128 0-85.333 38.205-85.333 85.333v512c0 47.128 38.205 85.333 85.333 85.333zM768 960v0c47.128 0 85.333-38.205 85.333-85.333v-853.333c0-47.128-38.205-85.333-85.333-85.333v0c-47.128 0-85.333 38.205-85.333 85.333v853.333c0 47.128 38.205 85.333 85.333 85.333z" />
<glyph unicode="&#xe93b;" glyph-name="hide" horiz-adv-x="1182" d="M199.342 897.492l813.235-887.166-58.065-53.226-813.235 887.166 58.065 53.226zM228.228 691.103l133.415-145.552c-24.994-39.877-39.406-86.771-39.406-136.936 0-144.935 120.302-262.564 268.531-262.564 40.833 0 79.547 8.926 114.21 24.891l107.502-117.183c-69.007-25.208-143.706-38.989-221.713-38.989-268.531 0-497.857 163.315-590.769 393.846 46.26 114.778 126.335 212.894 228.228 282.487zM590.769 802.462c268.531 0 497.857-163.315 590.769-393.846-45.652-113.272-124.239-210.316-224.228-279.733l-134.785 147.085c23.372 38.934 36.775 84.27 36.775 132.648 0 144.935-120.302 262.564-268.531 262.564-39.043 0-76.148-8.161-109.628-22.832l-107.186 116.891c67.639 24.084 140.649 37.223 216.814 37.223zM438.851 461.334l188.891-206.111c-11.868-2.713-24.246-4.147-36.973-4.147-89.152 0-161.119 70.367-161.119 157.538 0 18.501 3.242 36.244 9.201 52.719zM590.769 566.154c89.152 0 161.119-70.367 161.119-157.538 0-16.583-2.604-32.558-7.436-47.556l-185.169 202.103c10.18 1.963 20.707 2.991 31.486 2.991z" />
<glyph unicode="&#xe93c;" glyph-name="email" d="M652.914 430.706l344.010-348.639c-18.75-19.821-45.611-32.289-75.323-32.289v0h-819.2c-29.597 0-56.366 12.372-75.105 32.059l346.807 347.105 137.899-80.498 140.914 82.262zM0.398 646.941l288.199-168.107-288.598-306.314 0.398 474.421zM1023.943 647.168v-473.031l-288.541 304.754 288.541 168.278zM921.6 846.222c56.32 0 102.4-44.8 102.4-99.556v0l-512-298.667-511.545 298.439c0.057 52.246 41.182 95.279 93.582 99.451l8.363 0.331h819.2z" />
<glyph unicode="&#xe93d;" glyph-name="arrow-curly" d="M269.884 673.026c-2.474 0.571-14.454 3.384-26.458 6.099-44.903 10.13-88.956 4.677-131.543-7.772-46.902-13.716-77.010-45.312-91.89-90.244-8.983-27.109-4.011-52.128 12.64-75.858 10.654-15.167 24.67-26.802 40.458-36.336 19.708-11.907 40.383-22.418 62.983-27.93 52.299-12.766 104.538-25.403 158.94-25.71 82.391-0.462 161.25 15.145 238.148 40.798 5.538 1.846 8.99 8.776 7.075 14.426-13.615 39.93-34.53 76.045-63.611 107.765-3.045 3.326-6.675 6.275-10.392 8.923-56.462 40.259-115.329 75.505-196.351 85.84zM289.166 716.685c85.214-10.163 149.489-47.824 210.19-93.127 22.569-16.849 38.521-39.133 51.447-63.509 11.388-21.492 21.67-43.557 32.499-65.338 2.744-5.514 9.714-8.32 15.505-5.836 9.802 4.213 19.774 8.221 29.066 13.378 42.852 23.76 82.479 51.968 116.916 86.694 49.859 50.272 86.884 108.873 112.326 174.642 6.832 17.656 4.688 24.529-10.601 34.583-21.714 14.289-43.754 28.1-65.638 42.126-5.145 3.297-10.48 6.367-15.314 10.070-8.736 6.714-7.248 20.838 2.626 27.105 2.563 1.635 5.144 3.266 7.849 4.664 44.746 23.138 90.802 43.464 137.865 61.546 12.748 4.904 26.246 8.283 39.689 10.955 21.408 4.256 34.781-5.103 40.223-26.944 1.47-5.872 2.535-11.875 3.435-17.867 8.8-58.457 17.53-116.917 26.231-175.38 0.444-2.981 0.399-6.033 0.507-9.062 0.476-13.927-11.448-23.659-24.028-18.926-8.533 3.204-16.852 7.294-24.667 11.946-18.396 10.966-36.261 22.781-54.646 33.755-19.239 11.492-27.474 9.25-34.868-10.541-13.347-35.725-32.992-67.905-53.323-99.985-31.333-49.463-72.652-89.65-118.61-124.944-25.163-19.325-54.162-33.779-81.608-50.157-6.51-3.894-13.594-6.905-20.56-10.004-11.046-4.908-16.344-13.146-15.354-25.149 0.508-6.030 1.081-12.073 2.044-18.051 9.57-59.257 2.682-117.572-7.534-176.024-16.331-93.464-51.106-180.307-93.067-264.674-5.272-10.597-13.892-19.623-21.4-29.034-3.462-4.334-13.795-4.322-16.449 0.084-2.202 3.64-3.837 8.411-3.511 12.508 0.334 4.259 2.998 8.467 5.187 12.406 53.631 96.201 90.557 198.074 105.567 307.43 5.992 43.607 9.418 87.272 1.418 131.114-0.812 4.456-1.531 8.93-2.467 13.365-1.471 6.972-6.659 11.105-12.962 9.604-14.836-3.547-29.774-6.895-44.309-11.435-69.231-21.618-140.306-31.87-212.76-28.309-62.758 3.093-125.059 11.234-183.683 36.797-19.774 8.62-38.47 18.887-55.813 31.555-18.852 13.764-33.644 31.045-44.030 51.85-11.953 23.947-15.863 49.012-9.591 75.111 15.364 63.991 54.024 108.478 117.532 127.78 46.923 14.273 95.706 20.192 144.978 8.7 10.444-2.431 20.905-4.826 23.691-5.469z" />
<glyph unicode="&#xe93e;" glyph-name="prefs" d="M341.333 618.667c0 79.36-54.613 145.92-128 164.693v133.973c0 23.893-18.773 42.667-42.667 42.667s-42.667-18.773-42.667-42.667v-133.973c-73.387-18.773-128-85.333-128-164.693s54.613-145.92 128-164.693v-475.307c0-23.893 18.773-42.667 42.667-42.667s42.667 18.773 42.667 42.667v475.307c73.387 18.773 128 85.333 128 164.693zM170.667 533.333c-46.933 0-85.333 38.4-85.333 85.333s38.4 85.333 85.333 85.333c46.933 0 85.333-38.4 85.333-85.333s-38.4-85.333-85.333-85.333zM554.667 356.693v560.64c0 23.893-18.773 42.667-42.667 42.667s-42.667-18.773-42.667-42.667v-560.64c-73.387-18.773-128-85.333-128-164.693s54.613-145.92 128-164.693v-48.64c0-23.893 18.773-42.667 42.667-42.667s42.667 18.773 42.667 42.667v48.64c73.387 18.773 128 85.333 128 164.693s-54.613 145.92-128 164.693zM512 106.667c-46.933 0-85.333 38.4-85.333 85.333s38.4 85.333 85.333 85.333c46.933 0 85.333-38.4 85.333-85.333s-38.4-85.333-85.333-85.333zM1024 704c0 79.36-54.613 145.92-128 164.693v48.64c0 23.893-18.773 42.667-42.667 42.667s-42.667-18.773-42.667-42.667v-48.64c-73.387-18.773-128-85.333-128-164.693s54.613-145.92 128-164.693v-560.64c0-23.893 18.773-42.667 42.667-42.667s42.667 18.773 42.667 42.667v560.64c73.387 18.773 128 85.333 128 164.693zM853.333 618.667c-46.933 0-85.333 38.4-85.333 85.333s38.4 85.333 85.333 85.333c46.933 0 85.333-38.4 85.333-85.333s-38.4-85.333-85.333-85.333z" />
<glyph unicode="&#xe93f;" glyph-name="image" d="M1024.001 846.222c0 62.578-51.2 113.778-113.779 113.778h-796.443c-62.578 0-113.778-51.2-113.778-113.778v-796.443c0-62.579 51.2-113.779 113.778-113.779h796.443c62.579 0 113.779 51.2 113.779 113.779v796.443zM398.224 590.224c0-47.129-38.205-85.333-85.333-85.333s-85.334 38.205-85.334 85.333c0 47.129 38.205 85.333 85.334 85.333s85.333-38.205 85.333-85.333zM312.89 362.667l142.223-171.239 199.109 256.573 256-341.334h-796.443l199.111 256z" />
<glyph unicode="&#xe940;" glyph-name="fav-hollow" horiz-adv-x="1075" d="M489.737 919.042c-20.777-10.985-37.233-28.839-46.454-50.651l-91.897-217.28-235.056-20.029c-56.351-4.793-98.146-54.359-93.354-110.71l1.129-8.77c4.004-23.159 15.878-44.337 33.758-59.865l178.783-155.288-53.628-230.57c-12.818-55.082 21.444-110.126 76.527-122.944l8.713-1.634c23.325-3.336 47.193 1.467 67.506 13.758l201.836 122.15 201.836-122.15c48.386-29.277 111.344-13.786 140.621 34.6l4.257 7.776c10.409 21.138 13.249 45.318 7.868 68.443l-53.679 230.57 178.834 155.288c42.699 37.083 47.252 101.759 10.169 144.458l-6.081 6.42c-16.883 16.349-38.959 26.46-62.555 28.467l-235.107 20.029-91.846 217.28c-22.022 52.090-82.102 76.465-134.192 54.443l-7.988-3.792zM421.661 554.281l115.939 274.235 115.939-274.235 296.653-25.231-225.379-195.735 67.634-290.644-254.847 154.201-254.846-154.201 67.634 290.644-225.379 195.735 296.653 25.231z" />
<glyph unicode="&#xe941;" glyph-name="trend-hollow" d="M786.595 922.857l-147.726-39.583c-72.898-19.533-116.16-94.464-96.627-167.363l3.172-10.219c7.116-20.112 18.813-38.188 34.046-52.854l4.411-3.968-59.516-105.3-93.614 55.181c-71.539 42.182-162.901 21.024-208.971-46.666l-7.007-11.283-195.036-345.629c-40.868-72.424-16.234-164.235 55.399-206.474 68.897-40.624 156.885-20.248 201.254 44.943l6.223 9.946 122.868 217.421 93.746-55.253c71.539-42.182 162.901-21.024 208.971 46.666l6.894 11.083 131.041 231.524 8.134-2.414c57.145-14.762 119.444 9.19 150.919 62.57 18.516 31.402 23.633 68.93 14.197 104.144l-40.934 152.769c-22.39 83.561-108.281 133.15-191.843 110.761zM813.623 821.99c25.865 6.93 52.399-6.827 62.033-31.129l1.915-5.79 40.934-152.769c2.181-8.141 0.998-16.816-3.282-24.075-7.83-13.279-23.91-18.68-37.878-13.531l-5.118 2.431-21.177 12.477c-23.162 13.115-52.092 6.606-67.58-14.21l-3.581-5.499-156.136-275.731c-13.52-22.929-41.835-31.734-65.649-21.433l-5.848 2.976-140.36 82.753c-23.174 13.097-52.097 6.564-67.569-14.263l-3.576-5.502-149.010-263.634c-13.024-22.088-41.487-29.435-63.574-16.411-20.735 12.227-29.001 37.608-20.293 59.369l2.799 5.832 195.533 346.488c13.52 22.929 41.835 31.734 65.649 21.433l5.848-2.976 140.293-82.713c23.174-13.097 52.097-6.564 67.569 14.263l3.576 5.502 109.665 194.033c12.928 22.873 6.746 51.413-13.566 67.040l-5.369 3.626-21.997 12.971c-7.274 4.289-12.574 11.261-14.759 19.419-4.187 15.628 3.863 31.652 18.278 37.897l4.509 1.57 147.726 39.583z" />
<glyph unicode="&#xe942;" glyph-name="tv" horiz-adv-x="979" d="M773.901 922.203c15.636-16.452 16.228-41.73 2.207-58.844l-3.809-4.099-128.248-121.862 112.818-0.007c119.708 0 217.347-94.489 222.403-212.952l0.206-9.656v-356.174c0-119.708-94.489-217.347-212.952-222.403l-9.656-0.206h-534.261c-119.708 0-217.347 94.489-222.403 212.952l-0.206 9.656v356.174c0 119.708 94.489 217.347 212.952 222.403l9.656 0.206 112.15 0.007-128.216 121.862c-17.823 16.939-18.541 45.119-1.602 62.943 15.729 16.55 41.151 18.351 58.973 4.961l3.97-3.36 196.122-186.406h50.799l196.153 186.406 3.97 3.36c17.822 13.389 43.244 11.589 58.973-4.961zM756.87 648.348h-534.261c-71.132 0-129.276-55.604-133.338-125.717l-0.227-7.848v-356.174c0-71.132 55.604-129.276 125.717-133.338l7.848-0.227h534.261c71.132 0 129.276 55.604 133.338 125.717l0.227 7.848v356.174c0 73.766-59.799 133.565-133.565 133.565zM445.217 468.83c8.76 0 17.326-2.584 24.624-7.43l131.969-87.611c20.485-13.6 26.067-41.231 12.468-61.716-3.283-4.946-7.522-9.185-12.468-12.468l-131.969-87.611c-20.485-13.6-48.117-8.018-61.716 12.468-4.845 7.298-7.43 15.864-7.43 24.624v175.221c0 24.589 19.933 44.522 44.522 44.522z" />
<glyph unicode="&#xe943;" glyph-name="muzlitv" horiz-adv-x="5332" d="M4350.197 500.966c13.529 0 23.193 3.666 28.992 10.998 5.476 6.375 7.248 15.301 5.315 26.777v0l-4.832 5.738c-2.255 0.319-4.671 1.594-7.248 3.825-0.644 0.638-1.45 1.116-2.416 1.434s-1.772 0.797-2.416 1.434c-0.644 1.913-1.45 3.507-2.416 4.782s-1.933 2.55-2.899 3.825c-0.644 1.594-0.805 3.267-0.483 5.021s0.805 3.746 1.45 5.977c0.322 1.913 0.644 3.825 0.966 5.738s0.483 3.825 0.483 5.738c1.289 1.913 2.255 4.622 2.899 8.129-0.322 0.956-0.161 2.311 0.483 4.064s1.289 3.427 1.933 5.021c1.611 3.825 2.899 7.81 3.866 11.954 1.289 1.594 2.174 3.028 2.658 4.303s1.852 3.028 4.107 5.26v0l1.933 7.172c1.611 4.463 3.463 9.882 5.557 16.257s5.557 12.273 10.389 17.692c1.611 6.694 3.705 12.671 6.282 17.931s5.798 10.759 9.664 16.497c2.255 7.969 4.671 15.221 7.248 21.756s5.315 12.99 8.214 19.366c2.899 6.375 5.637 12.751 8.214 19.126s5.476 13.707 8.697 21.995c5.798 0.638 12.241 1.355 19.328 2.152s14.496 1.674 22.227 2.63c10.63 1.594 21.583 3.028 32.857 4.303s21.744 1.913 31.408 1.913v0h6.765c1.933 0 4.671-0.159 8.214-0.478 1.933 0.638 3.704 1.195 5.315 1.674s3.060 1.036 4.349 1.674c2.255 0.956 4.188 1.674 5.798 2.152s4.027 0.717 7.248 0.717v0h5.315l4.832 6.216c1.933 1.275 3.543 2.55 4.832 3.825v0l2.416 4.782c1.289 11.157-0.403 19.605-5.074 25.343s-9.422 10.52-14.254 14.345c-2.577 1.913-4.832 3.825-6.765 5.738s-3.543 3.985-4.832 6.216v0l-5.798 4.303c-4.51 0.638-9.181 1.116-14.013 1.434s-9.986 0.478-15.462 0.478c-12.563 0-25.448-0.797-38.656-2.391s-26.254-3.188-39.139-4.782c-9.342-1.275-18.361-2.47-27.059-3.586s-17.234-1.992-25.609-2.63c-1.611 1.913-3.866 3.905-6.765 5.977s-8.053 2.949-15.462 2.63v0l-5.315-2.869c-0.644-1.275-1.208-2.391-1.691-3.347s-1.53-3.188-3.141-6.694c-17.073-0.956-33.018-2.391-47.836-4.303-13.529-1.275-26.737-2.391-39.622-3.347s-25.448-1.434-37.689-1.434v0h-7.973c-2.738 0-5.396 0.159-7.973 0.478v0h-7.248l-1.933-8.607c-0.966-0.956-1.933-2.152-2.899-3.586s-1.772-3.746-2.416-6.933c0-6.057 0.644-11.316 1.933-15.779s2.738-8.607 4.349-12.432c0.966-2.55 1.852-4.861 2.658-6.933s1.369-4.383 1.691-6.933v0-5.26l5.315-1.434c1.611-0.319 3.382-2.231 5.315-5.738v0l3.382-3.825c3.543-1.913 6.926-3.108 10.147-3.586s6.12-0.717 8.698-0.717v0h24.643c2.255 0.956 5.315 1.434 9.181 1.434v0h11.597c2.255 0 4.51 0.080 6.765 0.239s4.671 0.877 7.248 2.152c1.289-0.319 3.382-0.478 6.282-0.478 3.866 0 7.892 0.478 12.080 1.434 1.933 0.319 3.785 0.558 5.557 0.717s3.785 0.239 6.040 0.239c-0.322-1.913-1.047-4.144-2.174-6.694s-2.335-5.1-3.624-7.651c-1.933-4.144-3.704-8.208-5.315-12.193s-2.416-8.049-2.416-12.193c-0.644-0.319-2.094-1.434-4.349-3.347v0l-5.315-5.26c-2.255-8.288-4.832-16.417-7.731-24.386s-5.959-15.779-9.181-23.43c-5.798-14.345-11.113-29.088-15.945-44.23s-6.926-33.87-6.281-56.184c1.611-2.231 2.819-4.782 3.624-7.651s1.691-6.057 2.658-9.563c0.966-4.463 2.174-8.766 3.624-12.91s3.463-7.969 6.040-11.476c0-1.275-0.161-3.507-0.483-6.694v0l5.315-2.869c1.933-1.275 4.51-2.391 7.731-3.347 0.644-0.638 1.45-1.036 2.416-1.195s1.772-0.558 2.416-1.195c1.611-2.231 3.382-3.746 5.315-4.543s4.349-1.833 7.248-3.108c0.322-0.638 1.611-2.072 3.866-4.303v0l6.765-0.478zM4695.681 506.943c5.798-0.478 11.436 0.558 16.912 3.108s10.55 6.375 15.221 11.476c4.671 5.1 8.456 11.476 11.355 19.126-0.322 2.55-0.403 4.702-0.242 6.455s0.403 3.427 0.725 5.021c0.322 1.594 0.483 3.188 0.483 4.782s-0.322 3.666-0.966 6.216c7.087 6.375 14.093 14.106 21.019 23.191s10.711 18.728 11.355 28.929c1.933 0 3.302 0.638 4.107 1.913s1.611 2.55 2.416 3.825c0.805 1.275 1.691 2.391 2.658 3.347s2.416 1.434 4.349 1.434c6.765 15.939 15.060 31.001 24.885 45.186s20.053 27.893 30.683 41.122c10.63 13.229 21.261 25.9 31.891 38.014s20.294 23.908 28.992 35.384c-0.322 6.057 0.966 11.237 3.866 15.54s4.993 9.165 6.282 14.584c-1.933-0.956-2.98-0.956-3.141 0s-0.081 2.231 0.242 3.825c0.322 1.594 0.564 3.427 0.725 5.499s-0.242 3.746-1.208 5.021c-1.933 5.1-3.382 8.926-4.349 11.476s-1.772 4.622-2.416 6.216c-0.644 1.594-1.369 3.267-2.174 5.021s-2.013 4.543-3.624 8.368c-4.51-0.638-8.053-0.717-10.63-0.239s-4.993 1.195-7.248 2.152c-2.255 0.956-4.51 1.913-6.765 2.869s-5.476 1.753-9.664 2.391c-19.328-18.808-35.193-35.703-47.595-50.685s-23.596-29.726-33.582-44.23c-9.986-14.504-19.892-29.646-29.716-45.425s-21.824-33.87-35.998-54.271c-2.255 7.013-3.785 15.221-4.59 24.625s-1.611 19.366-2.416 29.885c-0.805 10.52-1.772 21.198-2.899 32.037s-3.060 21.119-5.798 30.841c-2.738 9.723-6.604 18.648-11.597 26.777s-11.516 14.584-19.569 19.366c0.644 2.869 0.403 5.738-0.725 8.607s-2.899 5.658-5.315 8.368c-2.416 2.71-5.315 4.941-8.698 6.694s-7.167 2.949-11.355 3.586c-3.543-3.507-7.248-6.615-11.113-9.324s-7.087-6.455-9.664-11.237c-1.933-4.144-2.98-9.962-3.141-17.453s0.161-15.7 0.966-24.625c0.805-8.926 1.772-18.25 2.899-27.972s1.691-18.887 1.691-27.494c0-8.926-0.322-18.17-0.966-27.733s-0.161-18.808 1.45-27.733c0.644-4.144 1.852-7.73 3.624-10.759s2.497-6.455 2.174-10.28c-0.322-7.651 0.161-15.939 1.45-24.864s2.98-18.011 5.074-27.255c2.094-9.244 4.188-18.569 6.282-27.972s3.785-18.090 5.074-26.060c1.289 0 2.577-0.956 3.866-2.869s2.416-4.303 3.382-7.172c0.966-2.869 1.691-6.057 2.174-9.563s0.403-6.854-0.242-10.041c2.577-0.638 4.751-1.833 6.523-3.586s3.543-3.666 5.315-5.738c1.772-2.072 3.463-4.224 5.074-6.455s3.543-3.985 5.798-5.26c5.154-3.507 10.63-5.499 16.429-5.977zM4084.233 291.832c0 0 0 0-5.282 0 0 0-5.282 0-7.923-7.976 0-2.659-7.923-15.953-18.486-34.565 0 0 0 0-2.641-2.659-23.768-39.882-66.021-101.035-118.838-98.376h-2.641c-7.923 2.659-15.845 10.635-15.845 23.929 2.641 15.953 5.282 31.906 13.204 47.859 39.613 69.129 81.866 135.599 121.478 204.729 13.204 23.929 23.768 45.2 31.69 69.129 5.282 15.953-5.282 31.906-23.768 39.882-31.69 10.635-60.739 5.318-76.584-18.612-23.768-29.247-42.253-74.447-63.38-109.011-18.486-31.906-31.69-63.812-55.458-93.058-29.049-39.882-63.38-79.764-97.711-116.988-18.486-18.612-39.613-31.906-63.38-45.2-21.127-10.635-42.253 10.635-47.535 39.882-5.282 31.906-2.641 63.812 7.923 93.058 5.282 13.294 10.563 23.929 23.768 34.565 7.922 5.318 23.767 15.953 29.049 21.271 84.507 69.129 153.168 148.894 208.626 239.293 47.535 71.788 87.148 146.235 113.556 231.317 7.923 29.247 15.845 61.153 7.923 93.058-7.923 39.882-26.408 61.153-71.303 55.835-31.69-2.659-58.098-21.271-81.866-39.882-47.535-39.882-87.148-87.741-118.838-138.258-39.613-61.153-73.943-122.305-110.915-186.117-34.331-66.47-66.021-132.941-89.788-207.387-2.641-7.976-5.282-18.612-7.923-23.929 0-2.659-2.641-5.318-2.641-7.976-5.282-10.635-23.768-42.541-42.253-69.129-5.282-7.976-10.563-15.953-15.845-23.929-7.923-10.635-15.845-21.271-23.768-29.247-15.845-18.612-29.049-31.906-50.176-45.2-18.486-13.294-34.331-21.271-55.458-23.929-2.641 0-7.923 0-10.563 0-7.923 0-13.204 0-21.127 2.659-7.923 0-15.845 2.659-23.768 5.318-23.768 5.318-44.894 13.294-68.662 18.612-21.127 5.318-31.69 5.318-50.176 5.318-7.923 0-13.204 0-21.127 0-18.486 0-34.331-5.318-55.458-15.953 221.83 260.564 335.386 260.564 348.59 273.858 23.768 5.318 31.69 7.976 39.613 15.953 10.563 7.976 15.845 21.271 18.486 29.247 2.641 29.247-13.204 47.859-29.049 50.517-2.641 0-5.282 0-7.923 0h-2.641c-18.486 0-36.972-7.976-44.894-10.635-44.894-5.318-81.866-5.318-110.915-5.318-55.458 0-81.866 5.318-113.556 5.318-18.486 0-31.69 0-52.817-5.318-2.641 0-5.282-2.659-10.563-2.659 0 0-71.303-7.976-105.633-95.717l-2.641-2.659c0-2.659-34.331-71.788-47.535-93.058-26.408-47.859-55.458-85.082-76.584-111.67-31.69-34.565-71.303-69.129-110.915-69.129-5.282 0-10.563 0-15.845 2.659-2.641 0-7.923 2.659-10.563 2.659-13.204 5.318-10.563 29.247-7.923 37.223 2.641 10.635 5.282 21.271 10.563 29.247 31.69 61.153 68.662 116.988 100.352 178.141 18.486 29.247 34.331 61.153 50.176 93.058 5.282 13.294 0 29.247-13.204 34.565-26.408 15.953-73.943 15.953-95.070-10.635-15.845-21.271-26.408-39.882-39.613-63.812-47.535-77.106-92.429-156.87-150.528-228.658-23.768-26.588-44.894-53.176-76.584-66.47-15.845-5.318-29.049-7.976-44.894 2.659s-18.486 23.929-15.845 37.223c2.641 15.953 7.923 29.247 13.204 45.2 23.768 61.153 60.739 114.329 95.070 164.846 13.204 21.271 26.408 39.882 39.613 61.153 15.845 23.929 7.923 53.176-18.486 63.812-5.282 2.659-10.563 2.659-15.845 2.659-29.049 7.976-58.098 2.659-71.303-23.929-23.768-34.565-44.894-69.129-68.662-109.011-21.127-29.247-34.331-66.47-55.458-93.058-29.049-39.882-63.38-79.764-97.711-116.988-23.768-26.588-50.176-50.517-81.866-66.47-15.845-7.976-29.049-15.953-44.894-2.659-15.845 10.635-15.845 26.588-13.204 42.541 7.923 31.906 10.563 66.47 23.768 95.717 29.049 74.447 66.021 148.894 97.711 223.34 21.127 47.859 42.253 95.717 60.739 146.235 13.204 34.565 5.282 71.788-21.127 103.694-26.408 26.588-63.38 31.906-105.633 23.929-58.098-15.953-110.915-45.2-155.809-82.423-7.923-7.976-18.486-13.294-23.768-21.271 0 7.976 2.641 13.294 2.641 18.612 13.204 39.882 26.408 77.106 10.563 122.305-7.923 21.271-18.486 37.223-36.972 50.517-42.253 23.929-81.866 18.612-118.838 7.976-63.38-18.612-113.556-55.835-158.45-98.376-13.204-13.294-26.408-23.929-39.613-39.882 5.282 26.588 13.204 53.176 13.204 79.764 0 69.129-39.613 111.67-108.274 132.941-52.817 15.953-105.633 13.294-158.45 2.659s-102.993-26.588-147.887-58.494c-29.049-21.271-58.098-42.541-71.303-79.764-7.923-21.271-7.923-42.541 0-66.47 10.563-26.588 39.613-42.541 68.662-21.271 34.331 23.929 66.021 50.517 100.352 74.447 52.817 39.882 105.633 74.447 174.295 79.764 23.768 2.659 42.253-7.976 50.176-29.247 2.641-10.635 5.282-23.929 0-34.565-7.923-23.929-15.845-50.517-26.408-71.788-31.69-58.494-68.662-114.329-105.633-170.164-47.535-71.788-100.352-146.235-147.887-218.023-34.331-53.176-68.662-109.011-97.711-162.188-15.845-23.929-23.768-53.176-21.127-82.423 5.282-42.541 63.38-66.47 89.788-53.176s42.253 34.565 58.098 58.494c26.408 47.859 55.458 95.717 81.866 143.576 68.662 127.623 147.887 252.587 237.675 364.257 44.894 58.494 95.070 111.67 155.809 154.211 26.408 18.612 55.458 31.906 89.788 34.565 13.204 2.659 23.768-5.318 23.768-18.612 2.641-15.953 7.923-31.906 2.641-47.859-10.563-31.906-23.768-66.47-39.613-95.717-63.38-109.011-126.76-215.364-190.14-324.375-26.408-45.2-52.817-95.717-73.943-143.576-13.204-23.929 0-61.153 26.408-71.788 29.049-15.953 66.021-15.953 79.225 15.953 55.458 109.011 113.556 215.364 169.013 321.716 44.894 85.082 105.633 162.188 187.499 215.364 29.049 21.271 60.739 34.565 97.711 42.541 21.127 5.318 34.331-5.318 31.69-23.929 0-13.294-2.641-23.929-10.563-34.565-23.768-47.859-52.817-93.058-76.584-140.917-42.253-71.788-87.148-146.235-110.915-231.317-10.563-37.223-18.486-77.106-2.641-119.647 26.408-74.447 108.274-130.282 190.14-90.4 44.894 23.929 76.584 55.835 108.274 93.058 7.923 10.635 18.486 21.271 23.768 29.247 0-7.976 2.641-10.635 2.641-13.294 7.923-31.906 18.486-63.812 50.176-82.423 47.535-26.588 92.429-21.271 132.042 7.976 44.894 29.247 71.303 71.788 100.352 116.988 7.923 13.294 18.486 26.588 23.768 42.541 0 0 2.641 0 2.641-2.659s-2.641-7.976-2.641-10.635c-5.282-23.929-15.845-47.859-15.845-69.129-2.641-34.565 13.204-69.129 50.176-85.082 23.768-10.635 50.176-5.318 73.943 7.976 39.613 21.271 89.788 47.859 116.197 82.423 5.282 5.318 7.923 13.294 13.204 18.612 29.049 26.588 76.584 98.376 105.633 135.599 26.408 34.565 44.894 77.106 79.225 109.011 13.204 5.318 23.768 10.635 42.253 15.953 26.408 2.659 73.943 2.659 163.732-10.635-23.768-15.953-31.69-26.588-63.38-45.2-36.972-23.929-89.788-53.176-132.042-82.423-60.739-45.2-100.352-95.717-145.246-164.846-2.641-2.659-2.641-10.635-5.282-21.271 0-7.976 0-18.612 0-26.588v-2.659c0-15.953 13.204-29.247 29.049-29.247h5.282c5.282 0 10.563 2.659 15.845 2.659 2.641 2.659 7.923 5.318 10.563 7.976 7.923 5.318 13.204 7.976 21.127 10.635 10.563 5.318 23.768 7.976 34.331 7.976 23.768 0 44.894-2.659 68.662-7.976 5.282 0 10.563-2.659 15.845-2.659 23.768-5.318 29.049-10.635 52.817-15.953s44.894-7.976 66.021-7.976c7.923 0 15.845 0 23.768 0 26.408 2.659 55.458 13.294 81.866 26.588 23.768 18.612 50.176 37.223 71.303 63.812 18.486 18.612 29.049 34.565 44.894 55.835 0-2.659 2.641-5.318 2.641-10.635 0-13.294 0-23.929 2.641-34.565 0 0 0 0 0-2.659 5.282-23.929 15.845-50.517 34.331-69.129 36.972-34.565 79.225-39.882 121.478-23.929 39.613 13.294 68.662 39.882 97.711 69.129 5.282 5.318 7.923 7.976 15.845 15.953 2.641-7.976 5.282-13.294 5.282-18.612 5.282-23.929 18.486-39.882 34.331-53.176 2.641-2.659 7.923-5.318 10.563-5.318l2.641-2.659c5.282-2.659 10.563-5.318 15.845-7.976 29.049-13.294 58.098-7.976 79.225 5.318 13.204 5.318 23.768 13.294 34.331 23.929 23.767 18.612 36.972 37.223 52.817 61.153 10.563 18.612 21.127 31.906 26.408 50.517 7.923 15.953 21.127 47.859 26.408 77.106 2.641 7.976 0 7.976 0 7.976zM3704.244 479.835l120.497 243.442c22.132 41.883 51.641 81.147 78.692 120.412 7.377 10.471 17.214 23.559 29.509 23.559 9.836 2.618 14.755 0 14.755-10.471-2.459-15.706-4.918-31.412-9.836-47.118-22.132-65.441-54.1-123.030-88.528-180.618s-73.773-112.559-118.037-162.295c-19.673-20.941-39.346-36.647-59.019-57.588 14.755 28.794 22.132 52.353 31.968 70.677zM4263.206 347.983c-19.457-13.222-2.614-29.028 50.528-47.418 177.883-30.516 303.124-48.358 375.723-53.526 108.898-7.752 170.268-2.383 280.667-27.283 73.599-16.6 177.883-30.516 312.852-41.747-348.538 96.224-548.878 147.814-601.020 154.772-78.213 10.437-282.167 44.432-312.852 41.747s-76.713-6.711-105.898-26.544zM4279.92 124.811c-13.281-8.842-1.82-19.359 34.383-31.551 121.223-20.114 206.577-31.846 256.061-35.196 74.226-5.026 116.069-1.365 191.296-17.823 50.151-10.972 121.223-20.114 213.217-27.425-237.473 63.702-373.978 97.838-409.514 102.409-53.304 6.856-192.296 29.255-213.217 27.425s-52.304-4.576-72.226-17.839zM1061.594 347.983c19.457-13.222 2.614-29.028-50.528-47.418-177.883-30.516-303.124-48.358-375.723-53.526-108.898-7.752-170.268-2.383-280.667-27.283-73.599-16.6-177.883-30.516-312.852-41.747 348.538 96.224 548.878 147.814 601.020 154.772 78.213 10.437 282.167 44.432 312.852 41.747s76.713-6.711 105.898-26.544zM1044.88 124.811c13.281-8.842 1.82-19.359-34.383-31.551-121.223-20.114-206.577-31.846-256.061-35.196-74.226-5.026-116.069-1.365-191.296-17.823-50.151-10.972-121.223-20.114-213.217-27.425 237.473 63.702 373.978 97.838 409.514 102.409 53.304 6.856 192.296 29.255 213.217 27.425s52.304-4.576 72.226-17.839z" />
<glyph unicode="&#xe944;" glyph-name="instagram-full" horiz-adv-x="3663" d="M286.772 921.034c1.918-96.258 1.068-256.407 0.989-311.083-0.099-59.605 0-164.144-2.313-230.024-1.918-54.675-12.575-104.968-43.023-146.861-25.406-34.956-69.281-56.624-79.562-47.544-9.174 8.145 2.926 29.325 10.479 60.638 7.474 30.884 11.626 62.138 11.626 161.143 0 73.148 2.155 423.708 2.155 462.757 0 21.823 0.494 33.651-9.767 25.155-55.262-45.634-99.195-149.686-89.171-242.807 7.81-72.116 45.653-79.754 32.406-102.396-11.25-19.271-148.466 39.516-115.507 178.466 26.079 109.722 108.488 197.036 183.442 227.959 5.951 2.455 13.207 3.566 21.037 3.566 33.256 0 76.853-19.855 77.209-38.97zM2850.711 493.155c-2.432-51.46-13.979-91.698-28.313-120.049-14.433-28.487-36.854-46.784-58.544-46.784-20.108 0-39.563 15.725-51.347 53.74-13.346 43.062-13.959 114.924-4.35 175.036 9.708 61.144 36.993 107.345 82.112 103.194 44.506-4.111 65.346-60.618 60.442-165.138zM2100.374 173.869c-0.593-85.521-14.236-160.481-43.537-182.285-12.357-9.178-26-13.581-38.752-13.581-30.073 0-55.163 24.454-47.056 68.296 10.242 55.182 58.623 111.593 129.465 180.473 0 0 0.138-15.725-0.119-52.902zM2089.045 493.681c-2.531-46.901-14.908-93.997-28.352-120.575-14.374-28.507-36.973-46.842-58.702-46.842-20.127 0-39.583 15.763-51.149 53.799-16.47 54.052-12.515 123.966-4.37 168.022 10.538 57.169 36.142 110.209 82.112 110.209 44.704 0 66.77-48.323 60.462-164.612zM1654.363 494.383c-2.728-49.648-12.535-91.153-28.313-121.277-14.829-28.331-37.151-46.628-58.702-46.628-19.95 0-39.207 15.686-51.189 53.584-17.933 56.858-11.823 134.351-4.37 176.225 11.092 62.119 38.831 106.156 82.172 102.006 44.466-4.267 66.078-60.618 60.402-163.91zM3646.286 436.395c-10.835 0-15.797-11.068-19.91-29.637-14.275-64.691-29.222-79.286-48.5-79.286-21.591 0-40.967 32.034-45.949 96.141-3.895 50.408-3.282 143.178 1.7 235.461 1.068 18.959-4.271 37.723-55.875 56.195-22.184 7.969-54.471 19.661-70.566-18.569-45.415-108.027-63.19-193.8-67.363-228.641-0.198-1.773-2.471-2.163-2.867 2.065-2.649 27.903-8.64 78.585-9.352 185.129-0.119 20.771-4.607 38.483-27.878 52.961-15.105 9.372-60.995 26.032-77.525 6.235-14.275-16.173-30.824-59.703-48.065-111.3-13.998-41.913-23.726-70.284-23.726-70.284s0.138 113.132 0.336 156.058c0.079 16.192-11.21 21.609-14.591 22.583-15.303 4.326-45.435 11.672-58.247 11.672-15.778 0-19.653-8.71-19.653-21.375 0-1.637-2.471-148.965-2.471-251.945v-14.555c-8.68-47.388-37.032-111.631-67.818-111.631-30.824 0-45.356 26.851-45.356 149.667 0 71.628 2.175 102.805 3.262 154.635 0.613 29.812 1.819 52.727 1.74 57.968-0.217 15.919-28.194 23.947-41.204 26.928-13.128 2.962-24.497 4.15-33.355 3.663-12.575-0.721-21.452-8.827-21.452-20.011 0-6.021 0.079-17.381 0.079-17.381-16.193 25.077-42.232 42.536-59.552 47.583-46.641 13.62-95.32 1.52-132.016-49.083-29.203-40.217-46.78-85.794-53.7-151.264-5.062-47.817-3.42-96.394 5.576-137.43-10.855-46.316-31.002-65.276-53.146-65.276-32.070 0-55.301 51.577-52.632 140.84 1.76 58.67 13.721 99.882 26.751 159.468 5.536 25.409 1.028 38.698-10.321 51.48-10.36 11.652-32.465 17.673-64.297 10.288-22.619-5.222-55.044-10.873-84.643-15.198 0 0 1.76 7.034 3.243 19.466 7.691 64.984-63.981 59.703-86.818 38.931-13.662-12.373-22.935-26.987-26.474-53.292-5.576-41.698 28.926-61.398 28.926-61.398-11.329-51.090-39.088-117.828-67.758-166.092-15.323-25.876-27.087-44.972-42.272-65.354-0.040 7.541-0.059 15.159-0.099 22.72-0.356 107.423 1.107 191.949 1.74 222.406 0.613 29.851 1.839 52.162 1.76 57.364-0.178 11.672-7.078 16.075-21.452 21.667-12.713 4.93-27.72 8.34-43.32 9.509-19.673 1.52-31.536-8.768-31.2-20.947 0.020-2.28 0.020-16.387 0.020-16.387-16.193 25.077-42.212 42.536-59.532 47.583-46.661 13.62-95.3 1.52-132.036-49.083-29.143-40.217-48.262-96.667-53.719-150.777-5.042-50.369-4.073-93.199 2.788-129.285-7.395-36.145-28.748-73.908-52.869-73.908-30.784 0-48.342 26.851-48.342 149.667 0 71.628 2.195 102.805 3.243 154.596 0.633 29.851 1.839 52.766 1.76 58.007-0.237 15.919-28.234 23.947-41.244 26.928-13.603 3.118-25.387 4.248-34.383 3.605-11.942-0.896-20.325-11.379-20.325-19.251v-18.082c-16.173 25.077-42.212 42.536-59.532 47.583-46.661 13.62-95.043 1.325-132.036-49.083-24.121-32.891-43.656-69.329-53.68-150.037-2.926-23.343-4.192-45.167-4.014-65.549-9.629-58.027-52.118-124.803-86.877-124.803-20.325 0-39.701 38.853-39.701 121.705 0 110.345 6.96 267.455 8.106 282.576 0 0 43.932 0.76 52.414 0.818 21.927 0.234 41.718-0.292 70.902 1.228 14.611 0.721 28.728 52.454 13.623 58.884-6.841 2.864-55.222 5.436-74.382 5.807-16.134 0.351-60.995 3.644-60.995 3.644s4.033 104.266 4.963 115.275c0.791 9.216-11.25 13.932-18.17 16.777-16.826 7.015-31.852 10.386-49.686 13.99-5.813 1.208-10.894 1.832-15.264 1.832-14.117 0-21.037-6.566-22.698-22.213-3.302-31.059-5.002-122.134-5.002-122.134-18.071 0-79.799 3.527-97.851 3.527-16.826 0-34.956-71.2-11.725-72.077 26.731-1.033 73.294-1.91 104.138-2.825 0 0-1.384-159.701-1.384-208.98 0-5.261 0.020-10.308 0.079-15.218-16.984-87.236-76.814-134.371-76.814-134.371 12.812 57.715-13.385 101.071-60.699 137.761-17.399 13.523-51.782 39.107-90.239 67.147 0 0 22.283 21.648 42.054 65.179 13.979 30.864 14.591 66.153-19.772 73.947-56.784 12.86-103.604-28.234-117.583-72.116-10.815-33.963-5.022-59.215 16.153-85.404 1.522-1.929 3.203-3.839 4.943-5.826-12.812-24.356-30.409-57.13-45.336-82.579-41.402-70.576-72.662-126.382-96.308-126.382-18.882 0-18.605 56.663-18.605 109.761 0 45.751 3.42 114.515 6.149 185.714 0.909 23.538-11.052 36.944-31.061 49.142-12.199 7.365-38.159 21.862-53.186 21.862-22.5 0-87.49-2.981-148.861-177.959-7.75-22.096-22.935-62.275-22.935-62.275l1.325 210.442c0 4.93-2.709 9.684-8.779 12.958-10.38 5.514-37.981 16.835-62.538 16.835-11.705 0-17.577-5.358-17.577-16.036l-2.116-329.244c0-24.98 0.652-54.149 3.183-66.913 2.491-12.802 6.544-23.187 11.547-29.364 5.002-6.157 10.795-10.873 20.365-12.821 8.897-1.812 57.595-7.969 60.106 10.347 3.045 21.979 3.144 45.732 28.708 134.429 39.82 137.995 91.702 205.356 116.1 229.264 4.271 4.15 9.115 4.423 8.877-2.436-1.008-30.26-4.686-105.844-7.138-170.106-6.643-171.899 25.11-203.758 70.467-203.758 34.699 0 83.595 33.963 135.99 119.971 32.682 53.584 64.416 106.117 87.233 144.016 15.877-14.516 33.73-30.105 51.525-46.784 41.441-38.717 55.005-75.545 45.969-110.423-6.861-26.714-32.88-54.208-79.087-27.455-13.504 7.775-19.258 13.815-32.801 22.622-7.256 4.696-18.388 6.118-25.051 1.169-17.28-12.86-27.186-29.208-32.86-49.492-5.516-19.738 14.532-30.144 35.292-39.224 17.854-7.872 56.309-14.965 80.807-15.783 95.498-3.137 171.994 45.439 225.24 170.769 9.55-108.222 50.101-169.463 120.588-169.463 47.116 0 94.331 59.995 115.012 119.055 5.912-24.045 14.71-44.991 26.059-62.703 54.293-84.8 159.676-66.543 212.586 5.456 16.371 22.252 18.862 30.241 18.862 30.241 7.711-67.985 63.289-91.757 95.063-91.757 35.668 0 72.444 16.621 98.206 73.811 3.025-6.196 6.347-12.12 9.925-17.751 54.313-84.8 159.676-66.543 212.606 5.456 2.491 3.39 4.666 6.469 6.564 9.236l1.542-44.699c0 0-30.171-27.279-48.737-44.036-81.658-73.772-143.701-129.714-148.268-194.873-5.833-83.086 62.518-113.97 114.261-118.023 54.945-4.267 102.022 25.603 130.909 67.478 25.426 36.807 42.074 116.133 40.848 194.425-0.475 31.371-1.305 71.219-1.898 113.95 28.649 32.832 60.936 74.298 90.713 122.835 32.406 52.902 67.145 123.927 84.92 179.225 0 0 30.171-0.253 62.36 1.812 10.321 0.682 13.287-1.403 11.388-8.846-2.313-8.983-40.71-154.947-5.674-252.14 23.983-66.543 78.059-87.957 110.148-87.957 37.487 0 73.354 27.922 92.631 69.388 2.294-4.618 4.745-9.139 7.375-13.23 54.273-84.8 159.301-66.445 212.586 5.456 12.041 16.251 18.882 30.241 18.882 30.241 11.408-70.381 66.928-92.107 98.74-92.107 33.117 0 64.554 13.406 90.1 72.875 1.048-26.188 2.709-47.622 5.398-54.364 1.621-4.15 11.013-9.294 17.854-11.827 30.31-11.048 61.233-5.826 72.681-3.566 7.909 1.578 14.117 7.853 14.947 24.045 2.214 42.478 0.85 113.814 13.919 166.872 21.927 89.009 42.37 123.537 52.078 140.586 5.457 9.626 11.566 11.146 11.804 1.052 0.435-20.537 1.443-80.747 9.945-161.63 6.268-59.508 14.591-94.699 21.017-105.844 18.249-31.8 40.828-33.32 59.236-33.32 11.685 0 36.162 3.196 33.948 23.441-1.048 9.879 0.791 70.927 22.421 158.571 14.137 57.267 37.645 109.001 46.147 127.902 3.163 6.956 4.607 1.52 4.567 0.429-1.819-39.418-5.813-168.411 10.499-238.968 22.105-95.556 85.988-106.254 108.27-106.254 47.551 0 86.442 35.638 99.571 129.46 3.144 22.583-1.522 40.003-15.56 40.003z" />
<glyph unicode="&#xe945;" glyph-name="share-lite" horiz-adv-x="1241" d="M1217.939 470.27l-463.394-463.394v271.422c-330.997 0-562.667-105.903-728.182-337.607 66.187 331 264.78 661.963 728.182 728.183v264.758l463.394-463.362zM816.606 606.633h-58.607c-214.553-31.803-364.839-123.488-469.787-243.423-50.412-57.614-90.981-122.47-123.091-191.547 156.297 115.309 350.429 168.696 589.424 168.696h62.061v-183.634l313.515 313.546-313.515 313.544v-177.181z" />
<glyph unicode="&#xe946;" glyph-name="favorite-hollow" d="M755.809 960c53.102 0 96.645-50.181 97.511-111.904l0.013-1.874v-910.222l-341.333 170.667-341.333-170.667 0.488 910.222c0 61.952 42.535 112.753 95.431 113.763l1.606 0.015h487.617zM752.339 865h-480.44c-3.224-3.789-5.637-10.365-5.741-18.298l-0.003-0.531-0.407-756.416 246.252 123.125 246.333-123.166v756.508c0 7.762-2.332 14.338-5.556 18.267l-0.308 0.364-0.13 0.147z" />
<glyph unicode="&#xe947;" glyph-name="apple" d="M791.498 415.908c-1.294 129.682 105.758 191.876 110.542 194.966-60.152 88.020-153.85 100.078-187.242 101.472-79.742 8.074-155.596-46.948-196.066-46.948-40.368 0-102.818 45.754-168.952 44.552-86.916-1.292-167.058-50.538-211.812-128.38-90.304-156.698-23.126-388.84 64.89-515.926 43.008-62.204 94.292-132.076 161.626-129.58 64.842 2.588 89.362 41.958 167.756 41.958s100.428-41.958 169.050-40.67c69.774 1.296 113.982 63.398 156.692 125.796 49.39 72.168 69.726 142.038 70.924 145.626-1.548 0.706-136.060 52.236-137.408 207.134zM662.562 796.478c35.738 43.358 59.86 103.512 53.28 163.522-51.478-2.096-113.878-34.29-150.81-77.55-33.142-38.376-62.148-99.626-54.374-158.436 57.466-4.484 116.128 29.204 151.904 72.464z" />
<glyph unicode="&#xe948;" glyph-name="muzli-full" horiz-adv-x="3212" d="M3210.312 214.736c0 0 0 0-5.96 0 0 0-5.96 0-8.94-8.897 0-2.966-8.94-17.794-20.861-38.553 0 0 0 0-2.98-2.966-26.821-44.484-74.502-112.693-134.104-109.727h-2.98c-8.94 2.966-17.881 11.862-17.881 26.69 2.98 17.794 5.96 35.587 14.9 53.381 44.701 77.106 92.383 151.246 137.085 228.351 14.9 26.69 26.821 50.415 35.761 77.106 5.96 17.794-5.96 35.587-26.821 44.484-35.761 11.862-68.542 5.931-86.423-20.759-26.821-32.622-47.682-83.037-71.522-121.59-20.861-35.587-35.761-71.174-62.582-103.796-32.781-44.484-71.522-88.968-110.264-130.486-20.861-20.759-44.701-35.587-71.522-50.415-23.841-11.862-47.682 11.862-53.642 44.484-5.96 35.587-2.98 71.174 8.94 103.796 5.96 14.828 11.92 26.69 26.821 38.553 8.94 5.931 26.821 17.794 32.781 23.725 95.363 77.106 172.846 166.074 235.428 266.904 53.642 80.071 98.343 163.108 128.144 258.007 8.94 32.622 17.881 68.209 8.94 103.796-8.94 44.484-29.801 68.209-80.463 62.278-35.761-2.966-65.562-23.725-92.383-44.484-53.642-44.484-98.343-97.865-134.104-154.211-44.701-68.209-83.443-136.418-125.164-207.592-38.741-74.14-74.502-148.28-101.323-231.317-2.98-8.897-5.96-20.759-8.94-26.69 0-2.966-2.98-5.931-2.98-8.897-5.96-11.862-26.821-47.45-47.682-77.106-5.96-8.897-11.92-17.794-17.881-26.69-8.94-11.862-17.881-23.725-26.821-32.622-17.881-20.759-32.781-35.587-56.622-50.415-20.861-14.828-38.741-23.725-62.582-26.69-2.98 0-8.94 0-11.92 0-8.94 0-14.9 0-23.841 2.966-8.94 0-17.881 2.966-26.821 5.931-26.821 5.931-50.662 14.828-77.483 20.759-23.841 5.931-35.761 5.931-56.622 5.931-8.94 0-14.9 0-23.841 0-20.861 0-38.741-5.931-62.582-17.794 250.328 290.629 378.473 290.629 393.373 305.457 26.821 5.931 35.761 8.897 44.701 17.794 11.92 8.897 17.881 23.725 20.861 32.622 2.98 32.622-14.9 53.381-32.781 56.346-2.98 0-5.96 0-8.94 0h-2.98c-20.861 0-41.721-8.897-50.662-11.862-50.662-5.931-92.383-5.931-125.164-5.931-62.582 0-92.383 5.931-128.144 5.931-20.861 0-35.761 0-59.602-5.931-2.98 0-5.96-2.966-11.92-2.966 0 0-80.463-8.897-119.204-106.762l-2.98-2.966c0-2.966-38.741-80.071-53.642-103.796-29.801-53.381-62.582-94.899-86.423-124.555-35.761-38.553-80.463-77.106-125.164-77.106-5.96 0-11.92 0-17.881 2.966-2.98 0-8.94 2.966-11.92 2.966-14.9 5.931-11.92 32.622-8.94 41.518 2.98 11.862 5.96 23.725 11.92 32.622 35.761 68.209 77.483 130.486 113.244 198.695 20.861 32.622 38.741 68.209 56.622 103.796 5.96 14.828 0 32.622-14.9 38.553-29.801 17.794-83.443 17.794-107.284-11.862-17.881-23.725-29.801-44.484-44.701-71.174-53.642-86.002-104.303-174.97-169.866-255.042-26.821-29.656-50.662-59.312-86.423-74.14-17.881-5.931-32.781-8.897-50.662 2.966s-20.861 26.69-17.881 41.518c2.98 17.794 8.94 32.622 14.9 50.415 26.821 68.209 68.542 127.521 107.284 183.867 14.9 23.725 29.801 44.484 44.701 68.209 17.881 26.69 8.94 59.312-20.861 71.174-5.96 2.966-11.92 2.966-17.881 2.966-32.781 8.897-65.562 2.966-80.463-26.69-26.821-38.553-50.662-77.106-77.483-121.59-23.841-32.622-38.741-74.14-62.582-103.796-32.781-44.484-71.522-88.968-110.264-130.486-26.821-29.656-56.622-56.346-92.383-74.14-17.881-8.897-32.781-17.794-50.662-2.966-17.881 11.862-17.881 29.656-14.9 47.45 8.94 35.587 11.92 74.14 26.821 106.762 32.781 83.037 74.502 166.074 110.264 249.11 23.841 53.381 47.682 106.762 68.542 163.108 14.9 38.553 5.96 80.071-23.841 115.658-29.801 29.656-71.522 35.587-119.204 26.69-65.562-17.794-125.164-50.415-175.826-91.934-8.94-8.897-20.861-14.828-26.821-23.725 0 8.897 2.98 14.828 2.98 20.759 14.9 44.484 29.801 86.002 11.92 136.418-8.94 23.725-20.861 41.518-41.721 56.346-47.682 26.69-92.383 20.759-134.104 8.897-71.522-20.759-128.144-62.278-178.806-109.727-14.9-14.828-29.801-26.69-44.701-44.484 5.96 29.656 14.9 59.312 14.9 88.968 0 77.106-44.701 124.555-122.184 148.28-59.602 17.794-119.204 14.828-178.806 2.966s-116.224-29.656-166.886-65.243c-32.781-23.725-65.562-47.45-80.463-88.968-8.94-23.725-8.94-47.45 0-74.14 11.92-29.656 44.701-47.45 77.483-23.725 38.741 26.69 74.502 56.346 113.244 83.037 59.602 44.484 119.204 83.037 196.687 88.968 26.821 2.966 47.682-8.897 56.622-32.622 2.98-11.862 5.96-26.69 0-38.553-8.94-26.69-17.881-56.346-29.801-80.071-35.761-65.243-77.483-127.521-119.204-189.798-53.642-80.071-113.244-163.108-166.886-243.179-38.741-59.312-77.483-121.59-110.264-180.902-17.881-26.69-26.821-59.312-23.841-91.934 5.96-47.45 71.522-74.14 101.323-59.312s47.682 38.553 65.562 65.243c29.801 53.381 62.582 106.762 92.383 160.142 77.483 142.349 166.886 281.732 268.209 406.287 50.662 65.243 107.284 124.555 175.826 172.005 29.801 20.759 62.582 35.587 101.323 38.553 14.9 2.966 26.821-5.931 26.821-20.759 2.98-17.794 8.94-35.587 2.98-53.381-11.92-35.587-26.821-74.14-44.701-106.762-71.522-121.59-143.045-240.214-214.567-361.803-29.801-50.415-59.602-106.762-83.443-160.142-14.9-26.69 0-68.209 29.801-80.071 32.781-17.794 74.502-17.794 89.403 17.794 62.582 121.59 128.144 240.214 190.726 358.838 50.662 94.899 119.204 180.902 211.587 240.214 32.781 23.725 68.542 38.553 110.264 47.45 23.841 5.931 38.741-5.931 35.761-26.69 0-14.828-2.98-26.69-11.92-38.553-26.821-53.381-59.602-103.796-86.423-157.177-47.682-80.071-98.343-163.108-125.164-258.007-11.92-41.518-20.861-86.002-2.98-133.452 29.801-83.037 122.184-145.314 214.567-100.83 50.662 26.69 86.423 62.278 122.184 103.796 8.94 11.862 20.861 23.725 26.821 32.622 0-8.897 2.98-11.862 2.98-14.828 8.94-35.587 20.861-71.174 56.622-91.934 53.642-29.656 104.303-23.725 149.005 8.897 50.662 32.622 80.463 80.071 113.244 130.486 8.94 14.828 20.861 29.656 26.821 47.45 0 0 2.98 0 2.98-2.966s-2.98-8.897-2.98-11.862c-5.96-26.69-17.881-53.381-17.881-77.106-2.98-38.553 14.9-77.106 56.622-94.899 26.821-11.862 56.622-5.931 83.443 8.897 44.701 23.725 101.323 53.381 131.124 91.934 5.96 5.931 8.94 14.828 14.9 20.759 32.781 29.656 86.423 109.727 119.204 151.246 29.801 38.553 50.662 86.002 89.403 121.59 14.9 5.931 26.821 11.862 47.682 17.794 29.801 2.966 83.443 2.966 184.766-11.862-26.821-17.794-35.761-29.656-71.522-50.415-41.721-26.69-101.323-59.312-149.005-91.934-68.542-50.415-113.244-106.762-163.905-183.867-2.98-2.966-2.98-11.862-5.96-23.725 0-8.897 0-20.759 0-29.656v-2.966c0-17.794 14.9-32.622 32.781-32.622h5.96c5.96 0 11.92 2.966 17.881 2.966 2.98 2.966 8.94 5.931 11.92 8.897 8.94 5.931 14.9 8.897 23.841 11.862 11.92 5.931 26.821 8.897 38.741 8.897 26.821 0 50.662-2.966 77.483-8.897 5.96 0 11.92-2.966 17.881-2.966 26.821-5.931 32.781-11.862 59.602-17.794s50.662-8.897 74.502-8.897c8.94 0 17.881 0 26.821 0 29.801 2.966 62.582 14.828 92.383 29.656 26.821 20.759 56.622 41.518 80.463 71.174 20.861 20.759 32.781 38.553 50.662 62.278 0-2.966 2.98-5.931 2.98-11.862 0-14.828 0-26.69 2.98-38.553 0 0 0 0 0-2.966 5.96-26.69 17.881-56.346 38.741-77.106 41.721-38.553 89.403-44.484 137.085-26.69 44.701 14.828 77.483 44.484 110.264 77.106 5.96 5.931 8.94 8.897 17.881 17.794 2.98-8.897 5.96-14.828 5.96-20.759 5.96-26.69 20.861-44.484 38.741-59.312 2.98-2.966 8.94-5.931 11.92-5.931l2.98-2.966c5.96-2.966 11.92-5.931 17.881-8.897 32.781-14.828 65.562-8.897 89.403 5.931 14.9 5.931 26.821 14.828 38.741 26.69 26.821 20.759 41.721 41.518 59.602 68.209 11.92 20.759 23.841 35.587 29.801 56.346 8.94 17.794 23.841 53.381 29.801 86.002 2.98 8.897 0 8.897 0 8.897zM2784.158 401.568l146.025 275.801c26.821 47.45 62.582 91.934 95.363 136.418 8.94 11.862 20.861 26.69 35.761 26.69 11.92 2.966 17.881 0 17.881-11.862-2.98-17.794-5.96-35.587-11.92-53.381-26.821-74.14-65.562-139.383-107.284-204.626s-89.403-127.521-143.045-183.867c-23.841-23.725-47.682-41.518-71.522-65.243 17.881 32.622 26.821 59.312 38.741 80.071z" />
<glyph unicode="&#xe949;" glyph-name="fullscreen" d="M153.6 320h-153.6v-384h384v153.6h-230.4v230.4zM0 576h153.6v230.4h230.4v153.6h-384v-384zM870.4 89.6h-230.4v-153.6h384v384h-153.6v-230.4zM640 960v-153.6h230.4v-230.4h153.6v384h-384z" />
<glyph unicode="&#xe94a;" glyph-name="grid-stacked" d="M1024 704v-448h-128v192h-576v256h704zM704 960v-192h-448v-256h-256v448h704zM128 384h704v-448h-704v448z" />
<glyph unicode="&#xe94b;" glyph-name="time-hollow" d="M102.399 448.006c0 226.213 183.382 409.595 409.595 409.595s409.594-183.382 409.594-409.595c0-226.214-183.379-409.594-409.594-409.594-226.213 0-409.595 183.379-409.595 409.594zM511.994 960c-282.766 0-511.994-229.228-511.994-511.994s229.228-511.994 511.994-511.994c282.765 0 511.994 229.229 511.994 511.994s-229.229 511.994-511.994 511.994zM563.223 704.101c0 28.276-22.923 51.199-51.199 51.199s-51.199-22.923-51.199-51.199v-192.716c0.001-28.53 7.948-56.497 22.951-80.764 15-24.264 36.461-43.871 61.978-56.625l0.012-0.005 148.162-74.081c25.286-12.646 56.045-2.394 68.691 22.898s2.394 56.046-22.899 68.691l-148.182 74.091c-8.508 4.252-15.662 10.788-20.663 18.877s-7.65 17.41-7.651 26.92v192.714z" />
<glyph unicode="&#xe94c;" glyph-name="discord" d="M866.859 773.547c-60.191 28.408-130.126 50.863-203.325 63.888l-5.102 0.752c-0.181 0.037-0.39 0.058-0.604 0.058-1.186 0-2.219-0.654-2.759-1.621l-0.008-0.016c-8.96-16-18.944-36.864-25.941-53.333-35.182 5.625-75.744 8.839-117.056 8.839s-81.875-3.214-121.45-9.405l4.394 0.566c-9.204 21.511-18.014 39.029-27.717 55.97l1.391-2.637c-0.581 0.978-1.632 1.623-2.834 1.623-0.19 0-0.376-0.016-0.556-0.047l0.019 0.003c-78.291-13.746-148.229-36.203-213.589-66.812l5.162 2.172c-0.571-0.244-1.037-0.641-1.358-1.14l-0.007-0.012c-132.779-198.357-169.173-391.808-151.296-582.827 0.093-0.991 0.587-1.85 1.315-2.426l0.007-0.006c73.072-54.665 158.021-98.721 249.688-127.643l6.014-1.637c0.277-0.083 0.596-0.131 0.926-0.131 1.083 0 2.045 0.517 2.652 1.318l0.006 0.008c18.312 24.6 35.686 52.454 50.731 81.702l1.578 3.376c0.227 0.431 0.36 0.942 0.36 1.485 0 1.384-0.867 2.565-2.087 3.031l-0.022 0.007c-31.152 12.010-57.453 24.801-82.508 39.487l2.636-1.428c-0.988 0.579-1.641 1.635-1.641 2.844 0 1.065 0.506 2.011 1.292 2.611l0.008 0.006c6.364 4.765 11.531 8.848 16.6 13.044l-0.728-0.585c0.538 0.439 1.232 0.705 1.989 0.705 0.47 0 0.916-0.103 1.316-0.287l-0.020 0.008c167.595-76.501 349.013-76.501 514.645 0 0.388 0.184 0.844 0.291 1.324 0.291 0.763 0 1.464-0.271 2.009-0.722l-0.005 0.004c5.12-4.181 10.496-8.448 15.915-12.459 0.797-0.606 1.306-1.554 1.306-2.622 0-1.176-0.618-2.208-1.548-2.789l-0.014-0.008c-22.562-13.482-48.888-26.283-76.325-36.844l-3.589-1.215c-1.245-0.486-2.11-1.676-2.11-3.068 0-0.547 0.133-1.062 0.37-1.515l-0.009 0.018c15.36-29.781 32.939-58.112 52.267-85.035 0.596-0.816 1.55-1.34 2.625-1.34 0.342 0 0.672 0.053 0.981 0.151l-0.023-0.006c97.829 30.462 182.919 74.53 258.305 130.867l-2.22-1.587c0.743 0.531 1.252 1.349 1.364 2.288l0.002 0.016c21.333 220.885-35.755 412.757-151.424 582.827-0.275 0.575-0.737 1.023-1.306 1.273l-0.017 0.007zM342.187 305.92c-50.475 0-92.032 46.293-92.032 103.211 0 56.875 40.789 103.211 92.032 103.211 51.627 0 92.843-46.763 92.032-103.253 0-56.875-40.789-103.168-92.032-103.168zM682.453 305.92c-50.475 0-92.032 46.293-92.032 103.211 0 56.875 40.747 103.211 92.032 103.211 51.627 0 92.843-46.763 92.032-103.253 0-56.875-40.363-103.168-92.032-103.168z" />
<glyph unicode="&#xe94d;" glyph-name="cart" d="M384 32c0-53.020-42.98-96-96-96s-96 42.98-96 96c0 53.020 42.98 96 96 96s96-42.98 96-96zM1024 32c0-53.020-42.98-96-96-96s-96 42.98-96 96c0 53.020 42.98 96 96 96s96-42.98 96-96zM1024 448v384h-768c0 35.346-28.654 64-64 64h-192v-64h128l48.074-412.054c-29.294-23.458-48.074-59.5-48.074-99.946 0-70.696 57.308-128 128-128h768v64h-768c-35.346 0-64 28.654-64 64 0 0.218 0.014 0.436 0.016 0.656l831.984 127.344z" />
<glyph unicode="&#xe94e;" glyph-name="puzzle" d="M1024 384c0-70.7-42.98-128-96-128-64.86 0-63.44 64-111.28 64-26.92 0-48.72-21.8-48.72-48.8v-271.2c0-35.34-28.66-64-64-64h-143.28c-26.92 0-48.72 21.8-48.72 48.8 0 49 64 46.4 64 111.2 0 53.020-57.3 96-128 96s-128-42.98-128-96c0-64.86 64-63.44 64-111.28 0-26.92-21.8-48.72-48.8-48.72h-271.2c-35.34 0-64 28.66-64 64v271.2c0 27 21.82 48.8 48.72 48.8 47.38 0 46.48-64 111.28-64 53 0 96 57.4 96 128s-43 129.8-96 129.8c-64.86 0-63.44-64-111.28-64-26.9 0-48.72 20-48.72 47v143.28c0 35.34 28.66 62.2 64 62.2h271.2c27 3.52 48.8 23.52 48.8 50.52 0 47.38-64 46.48-64 111.28 0 53.020 57.3 94.2 128 94.2s128-42.98 128-94.2c0-64.86-64-63.44-64-111.28 0-26.9 21.82-48.72 48.72-48.72h143.28c35.34 0 64-28.66 64-62.2v-143.28c0-26.9 21.82-48.72 48.72-48.72 47.38 0 46.48 64 111.28 64 53-0.080 96-59.28 96-129.88z" />
<glyph unicode="&#xe94f;" glyph-name="bing" d="M852.181 509.013c-0.358 8.504-5.818 15.646-13.383 18.471l-0.142 0.047-400.341 123.989c-7.467 2.304-10.88-1.664-7.595-8.789l74.453-163.541c3.285-7.168 11.776-15.659 18.859-18.901l102.144-46.763c7.083-3.243 7.253-8.917 0.341-12.587l-435.797-231.765c-6.869-3.669-7.765-2.389-1.963 2.859l167.424 150.784c6.109 6.16 10.050 14.478 10.577 23.711l0.004 0.097 0.171 457.045c-0.36 8.527-5.837 15.687-13.425 18.513l-0.143 0.047-167.552 51.84c-7.467 2.304-13.568-2.261-13.568-10.155v-693.333c0-7.893 5.205-18.048 11.605-22.571l170.24-120.619c6.4-4.523 17.067-4.907 23.765-0.853l462.165 278.315c7.016 4.837 11.689 12.64 12.199 21.557l0.003 0.075v182.528z" />
<glyph unicode="&#xe950;" glyph-name="web" d="M512 960c-281.6 0-512-230.4-512-512s230.4-512 512-512c281.6 0 512 230.4 512 512s-230.4 512-512 512v0zM865.28 652.8h-148.48c-15.36 66.56-40.96 122.88-71.68 184.32 92.16-35.84 174.080-97.28 220.16-184.32v0zM512 857.6c40.96-61.44 76.8-128 97.28-204.8h-194.56c20.48 71.68 56.32 143.36 97.28 204.8v0zM117.76 345.6c-10.24 30.72-15.36 66.56-15.36 102.4s5.12 71.68 15.36 102.4h174.080c-5.12-35.84-5.12-66.56-5.12-102.4s5.12-66.56 5.12-102.4h-174.080zM158.72 243.2h148.48c15.36-66.56 40.96-122.88 71.68-184.32-92.16 35.84-174.080 97.28-220.16 184.32v0zM307.2 652.8h-148.48c51.2 87.040 128 148.48 220.16 184.32-30.72-61.44-56.32-117.76-71.68-184.32v0zM512 38.4c-40.96 61.44-76.8 128-97.28 204.8h194.56c-20.48-71.68-56.32-143.36-97.28-204.8v0zM629.76 345.6h-235.52c-5.12 35.84-10.24 66.56-10.24 102.4s5.12 66.56 10.24 102.4h240.64c5.12-35.84 10.24-66.56 10.24-102.4s-10.24-66.56-15.36-102.4v0zM645.12 58.88c30.72 56.32 56.32 117.76 71.68 184.32h148.48c-46.080-87.040-128-148.48-220.16-184.32v0zM737.28 345.6c5.12 35.84 5.12 66.56 5.12 102.4s-5.12 66.56-5.12 102.4h174.080c10.24-30.72 15.36-66.56 15.36-102.4s-5.12-71.68-15.36-102.4h-174.080z" />
<glyph unicode="&#xe952;" glyph-name="view-half" d="M143.361 816.639v-737.279h737.279v737.279h-737.279zM20.481 816.639c0 67.865 55.015 122.88 122.88 122.88h737.279c67.866 0 122.88-55.015 122.88-122.88v-737.279c0-67.866-55.014-122.88-122.88-122.88h-737.279c-67.865 0-122.88 55.014-122.88 122.88v737.279zM266.242 386.56c-33.932 0-61.44-27.51-61.44-61.44v-122.88c0-33.93 27.508-61.44 61.44-61.44h491.518c33.935 0 61.44 27.51 61.44 61.44v122.88c0 33.93-27.505 61.44-61.44 61.44h-491.518z" />
<glyph unicode="&#xe953;" glyph-name="view-full" d="M128 832v-768h768v768h-768zM-0.001 832c0 70.693 57.307 128 128 128h768c70.694 0 128-57.307 128-128v-768c0-70.694-57.306-128-128-128h-768c-70.693 0-128 57.306-128 128v768zM255.999 640.001c-35.346 0-64-28.654-64-64v-384c0-35.344 28.654-64 64-64h512.001c35.344 0 64 28.656 64 64v384c0 35.346-28.656 64-64 64h-512.001z" />
<glyph unicode="&#xe954;" glyph-name="moon" d="M509.071-23.040c-135.014 0-264.498 53.632-359.968 149.105-95.47 95.468-149.104 224.952-149.104 359.967 0 206.262 118.491 391.195 301.954 471.045 6.466 2.818 13.63 3.623 20.56 2.31s13.304-4.682 18.292-9.67c4.987-4.987 8.357-11.361 9.67-18.292s0.507-14.095-2.31-20.561c-21.065-48.362-32.19-110.306-32.19-179.074 0-241.985 196.87-438.855 438.856-438.855 68.767 0 130.714 11.126 179.072 32.189 6.467 2.816 13.635 3.625 20.562 2.309 6.932-1.311 13.302-4.68 18.294-9.667 4.987-4.987 8.356-11.361 9.667-18.294 1.316-6.927 0.507-14.095-2.309-20.562-79.852-183.46-264.781-301.952-471.045-301.952z" />
<glyph unicode="&#xe955;" glyph-name="sun" d="M512 838.984c30.846 0 55.855 25.007 55.855 55.855s-25.009 55.854-55.855 55.854c-30.85 0-55.857-25.007-55.857-55.854s25.007-55.855 55.857-55.855zM791.273 448c0-154.238-125.035-279.273-279.273-279.273-154.24 0-279.275 125.035-279.275 279.273 0 154.24 125.035 279.275 279.275 279.275 154.238 0 279.273-125.035 279.273-279.275zM567.855 1.168c0-30.85-25.009-55.855-55.855-55.855-30.85 0-55.857 25.004-55.857 55.855 0 30.846 25.007 55.85 55.857 55.85 30.846 0 55.855-25.004 55.855-55.85zM958.832 503.857c30.85 0 55.855-25.007 55.855-55.857 0-30.846-25.004-55.855-55.855-55.855-30.846 0-55.85 25.009-55.85 55.855 0 30.85 25.004 55.857 55.85 55.857zM121.016 448c0 30.85-25.007 55.857-55.855 55.857s-55.854-25.007-55.854-55.857c0-30.846 25.007-55.855 55.854-55.855s55.855 25.009 55.855 55.855zM867.43 171.543c21.811-21.811 21.811-57.176 0-78.992-21.816-21.811-57.181-21.811-78.992 0-21.811 21.816-21.811 57.181 0 78.992s57.176 21.811 78.992 0zM235.52 724.462c21.813 21.813 21.813 57.177 0 78.99s-57.178 21.813-78.99 0c-21.813-21.813-21.813-57.177 0-78.99s57.178-21.813 78.99 0zM788.485 803.46c21.811 21.813 57.176 21.813 78.988 0 21.816-21.812 21.816-57.177 0-78.99-21.811-21.813-57.176-21.813-78.988 0s-21.811 57.178 0 78.99zM235.511 171.539c-21.813 21.811-57.178 21.811-78.99 0s-21.813-57.176 0-78.992c21.813-21.811 57.178-21.811 78.99 0 21.813 21.816 21.813 57.181 0 78.992z" />
<glyph unicode="&#xe956;" glyph-name="settings" d="M344.976 920.382c2.497 11.236 8.752 21.284 17.73 28.487s20.143 11.129 31.654 11.131h202.391c11.512-0.002 22.674-3.928 31.655-11.131 8.975-7.203 15.234-17.251 17.727-28.487l22.263-100.234c20.239-9.614 39.52-20.745 57.681-33.394l98.057 30.865c10.981 3.453 22.811 3.058 33.539-1.118 10.722-4.177 19.703-11.885 25.461-21.853l101.195-175.27c5.758-9.97 7.939-21.605 6.192-32.984s-7.325-21.823-15.806-29.605l-75.746-69.471c1.807-22.159 1.807-44.428 0-66.587l75.746-69.468c8.481-7.782 14.059-18.227 15.806-29.606s-0.434-23.016-6.192-32.985l-101.195-175.273c-5.758-9.969-14.74-17.673-25.461-21.853-10.728-4.174-22.558-4.572-33.539-1.114l-98.003 30.865c-18.215-12.649-37.496-23.781-57.681-33.394l-22.263-100.183c-2.494-11.258-8.752-21.323-17.739-28.533-8.987-7.216-20.173-11.144-31.697-11.138h-202.391c-11.51 0-22.676 3.927-31.654 11.131s-15.232 17.251-17.73 28.485l-22.263 100.238c-20.239 9.614-39.517 20.745-57.681 33.394l-98.058-30.865c-10.98-3.458-22.809-3.060-33.535 1.114-10.725 4.18-19.707 11.884-25.461 21.853l-101.195 175.273c-5.757 9.969-7.942 21.606-6.195 32.985s7.324 21.823 15.808 29.606l75.745 69.468c-1.807 22.159-1.807 44.428 0 66.587l-75.745 69.42c-8.484 7.782-14.060 18.225-15.808 29.605s0.437 23.015 6.195 32.984l101.195 175.27c5.754 9.968 14.736 17.677 25.461 21.853s22.555 4.571 33.535 1.118l98.008-30.865c18.215 12.649 37.493 23.781 57.681 33.394l22.263 100.183 0.051 0.101zM495.555 302.231c40.258 0 78.867 15.992 107.334 44.46 28.467 28.466 44.46 67.075 44.46 107.333s-15.992 78.867-44.46 107.334c-28.467 28.467-67.077 44.459-107.334 44.459s-78.867-15.992-107.334-44.459c-28.467-28.467-44.459-67.076-44.459-107.334s15.992-78.867 44.459-107.333c28.467-28.467 67.076-44.46 107.334-44.46z" />
<glyph unicode="&#xe957;" glyph-name="search-lite" d="M1002.244-42.235c-17.237-17.237-45.183-17.235-62.42 0.002l-152.013 152.015c-83.292-69.309-190.385-110.995-307.212-110.995-265.43 0-480.599 215.176-480.599 480.606s215.169 480.607 480.599 480.607 480.599-215.176 480.599-480.607c0-116.815-41.675-223.896-110.968-307.186l152.016-152.020c17.237-17.237 17.237-45.185-0.002-62.422zM787.456 234.914c53.492 67.054 85.465 152.032 85.465 244.478 0 216.678-175.648 392.331-392.323 392.331-216.673 0-392.323-175.653-392.323-392.331s175.65-392.33 392.323-392.33c92.458 0 177.447 31.984 244.506 85.492 6.592 5.261 13.012 10.731 19.249 16.398 9.31 8.459 18.21 17.359 26.67 26.668 5.68 6.25 11.16 12.685 16.432 19.294z" />
<glyph unicode="&#xe958;" glyph-name="prefs-lite" d="M187.856 724.274c0-35.804 29.025-64.829 64.829-64.829s64.829 29.025 64.829 64.829v30.261h665.966c22.378 0 40.518 18.141 40.518 40.518s-18.14 40.518-40.518 40.518h-665.966v18.36c0 35.804-29.025 64.829-64.829 64.829s-64.829-29.025-64.829-64.829v-18.36h-147.338c-22.377 0-40.518-18.141-40.518-40.518s18.141-40.518 40.518-40.518h147.338v-30.261zM40.519 496.568c-22.377 0-40.518-18.14-40.518-40.518s18.141-40.518 40.518-40.518h665.969v-24.278c0-35.806 29.023-64.829 64.829-64.829 35.801 0 64.829 29.023 64.829 64.829v24.278h147.336c22.378 0 40.518 18.14 40.518 40.518s-18.14 40.518-40.518 40.518h-147.336v24.341c0 35.803-29.027 64.829-64.829 64.829-35.806 0-64.829-29.025-64.829-64.829v-24.341h-665.969zM0.001 106.882c0 22.378 18.141 40.518 40.518 40.518h341.825v24.327c0 35.801 29.024 64.829 64.83 64.829 35.801 0 64.829-29.027 64.829-64.829v-24.327h471.479c22.378 0 40.518-18.14 40.518-40.518s-18.14-40.518-40.518-40.518h-471.479v-24.295c0-35.806-29.027-64.829-64.829-64.829-35.806 0-64.83 29.023-64.83 64.829v24.295h-341.825c-22.377 0-40.518 18.14-40.518 40.518z" />
</font>
</defs>
</svg>
