<?xml version="1.0" encoding="UTF-8"?>
<svg width="256px" height="289px" viewBox="0 0 256 289" version="1.1" xmlns="http://www.w3.org/2000/svg" xmlns:xlink="http://www.w3.org/1999/xlink">
    <title>card 2</title>
    <defs>
        <path d="M3.55212013,0 L248.62928,0 C250.591061,1.53213367e-14 252.1814,1.59033835 252.1814,3.55212013 L252.1814,281.387456 C252.1814,283.349237 250.591061,284.939576 248.62928,284.939576 L3.55212013,284.939576 C1.59033835,284.939576 2.46069503e-15,283.349237 0,281.387456 L0,3.55212013 C-2.40248977e-16,1.59033835 1.59033835,-1.20741244e-14 3.55212013,0 Z" id="path-1"></path>
        <path d="M3.55212013,0 L248.62928,0 C250.591061,1.53213367e-14 252.1814,1.59033835 252.1814,3.55212013 L252.1814,281.387456 C252.1814,283.349237 250.591061,284.939576 248.62928,284.939576 L3.55212013,284.939576 C1.59033835,284.939576 2.46069503e-15,283.349237 0,281.387456 L0,3.55212013 C-2.40248977e-16,1.59033835 1.59033835,-1.20741244e-14 3.55212013,0 Z" id="path-3"></path>
        <linearGradient x1="100%" y1="21.3637395%" x2="2.45542093%" y2="77.229979%" id="linearGradient-5">
            <stop stop-color="#FF5151" offset="0%"></stop>
            <stop stop-color="#CC5EFF" offset="100%"></stop>
        </linearGradient>
        <path d="M15.5393468,17.7357537 C24.1214911,17.7357537 31.0786936,10.5146974 31.0786936,1.60707296 C31.0786936,-2.80809971 27.2325154,3.57524577 15.7415617,3.51809555 C4.25060802,3.46094532 7.531753e-13,-2.88537878 7.531753e-13,1.60707296 C7.531753e-13,10.5146974 6.95720255,17.7357537 15.5393468,17.7357537 Z" id="path-6"></path>
    </defs>
    <g id="Page-1" stroke="none" stroke-width="1" fill="none" fill-rule="evenodd">
        <g id="card-illustration" transform="translate(2.000000, -20.000000)">
            <g id="card-2" transform="translate(0.000000, 22.000000)">
                <mask id="mask-2" fill="white">
                    <use xlink:href="#path-1"></use>
                </mask>
                <use id="bg" fill="#222430" xlink:href="#path-1"></use>
                <mask id="mask-4" fill="white">
                    <use xlink:href="#path-3"></use>
                </mask>
                <path stroke="#13141C" stroke-width="1.77606006" d="M248.62928,-0.888030032 L3.55212013,-0.888030032 C2.32600652,-0.888030032 1.21596898,-0.391049297 0.41245984,0.41245984 C-0.391049297,1.21596898 -0.888030032,2.32600652 -0.888030032,3.55212013 L-0.888030032,281.387456 C-0.888030032,282.613569 -0.391049297,283.723607 0.41245984,284.527116 C1.21596898,285.330625 2.32600652,285.827606 3.55212013,285.827606 L248.62928,285.827606 C249.855393,285.827606 250.965431,285.330625 251.76894,284.527116 C252.572449,283.723607 253.06943,282.613569 253.06943,281.387456 L253.06943,3.55212013 C253.06943,2.32600652 252.572449,1.21596898 251.76894,0.41245984 C250.965431,-0.391049297 249.855393,-0.888030032 248.62928,-0.888030032 Z"></path>
                <path d="M248.62928,-0.888030032 L3.55212013,-0.888030032 C2.32600652,-0.888030032 1.21596898,-0.391049297 0.41245984,0.41245984 C-0.391049297,1.21596898 -0.888030032,2.32600652 -0.888030032,3.55212013 L-0.888030032,191.735409 L253.06943,191.735409 L253.06943,3.55212013 C253.06943,2.32600652 252.572449,1.21596898 251.76894,0.41245984 C250.965431,-0.391049297 249.855393,-0.888030032 248.62928,-0.888030032 Z" id="image" stroke="#13141C" stroke-width="1.77606006" fill="url(#linearGradient-5)"></path>
                <g id="Rectangle" transform="translate(110.995334, 119.716338)">
                    <mask id="mask-7" fill="white">
                        <use xlink:href="#path-6"></use>
                    </mask>
                    <use id="Mask" fill="#13141C" xlink:href="#path-6"></use>
                    <polygon id="Rectangle-2" fill="#FFFFFF" mask="url(#mask-7)" points="13.0370547 4.40678378 20.4367436 4.40678378 20.4367436 8.92218615 13.0370547 8.92218615"></polygon>
                </g>
                <g id="Group-8" transform="translate(97.971882, 101.162885)" fill="#13141C">
                    <path d="M4.88624854,4.86056385 C7.44058592,4.86056385 9.34289682,8.43631771 9.34289682,5.72570222 C9.34289682,3.01508672 7.27219724,0.817698704 4.71785985,0.817698704 C2.16352247,0.817698704 0.0928228892,3.01508672 0.0928228892,5.72570222 C0.0928228892,8.43631771 2.33191115,4.86056385 4.88624854,4.86056385 Z" id="Oval-2"></path>
                    <path d="M49.3786469,4.87886279 C51.9329843,4.87886279 53.7410306,8.43631771 53.7410306,5.72570222 C53.7410306,3.01508672 51.670331,0.817698704 49.1159936,0.817698704 C46.5616562,0.817698704 44.4909566,3.01508672 44.4909566,5.72570222 C44.4909566,8.43631771 46.8243095,4.87886279 49.3786469,4.87886279 Z" id="Oval-2"></path>
                </g>
                <path d="M23.6549499,178.829433 C19.7329098,178.829433 16.1821689,180.419154 13.6119381,182.989385 C11.0417072,185.559616 9.45198638,189.110356 9.45198638,193.032397 C9.45198638,196.954437 11.0417072,200.505177 13.6119381,203.075408 C16.1820152,205.645485 19.7324749,207.23536 23.6639632,207.23536 C27.5860033,207.23536 31.1367441,205.645639 33.706975,203.075408 C36.2772059,200.505177 37.8669267,196.954437 37.8669267,193.032397 C37.8669267,189.109759 36.2767363,185.558533 33.7046446,182.988182 C31.1334673,180.418744 27.5810327,178.829433 23.6549499,178.829433 Z" id="source" stroke="#13141C" stroke-width="1.77606006" fill="#222430"></path>
            </g>
        </g>
    </g>
</svg>