<?xml version="1.0" encoding="UTF-8"?>
<svg width="308px" height="348px" viewBox="0 0 308 348" version="1.1" xmlns="http://www.w3.org/2000/svg" xmlns:xlink="http://www.w3.org/1999/xlink">
    <!-- Generator: Sketch 61 (89581) - https://sketch.com -->
    <title>card 1</title>
    <desc>Created with Sketch.</desc>
    <defs>
        <path d="M4.08493806,0 L285.815902,0 C288.071951,-4.14429477e-16 289.90084,1.82888907 289.90084,4.08493806 L289.90084,324.027301 C289.90084,326.28335 288.071951,328.112239 285.815902,328.112239 L4.08493806,328.112239 C1.82888907,328.112239 -1.21582116e-14,326.28335 0,324.027301 L0,4.08493806 C-2.76286318e-16,1.82888907 1.82888907,-1.113189e-14 4.08493806,0 Z" id="path-1"></path>
        <path d="M21.2516644,16.3545041 L299.523085,16.3545041 C302.803656,16.3545041 305.463085,19.0139329 305.463085,22.2945045 L305.463085,338.690776 C305.463085,341.971348 302.803656,344.630777 299.523085,344.630777 L21.2516644,344.630777 C17.9710928,344.630777 15.3116641,341.971348 15.3116641,338.690776 L15.3116641,22.2945045 C15.3116641,19.0139329 17.9710928,16.3545041 21.2516644,16.3545041 Z" id="path-3"></path>
        <path d="M4.08493806,0 L285.815902,0 C288.071951,-4.14429477e-16 289.90084,1.82888907 289.90084,4.08493806 L289.90084,324.027301 C289.90084,326.28335 288.071951,328.112239 285.815902,328.112239 L4.08493806,328.112239 C1.82888907,328.112239 -1.21582116e-14,326.28335 0,324.027301 L0,4.08493806 C-2.76286318e-16,1.82888907 1.82888907,-1.113189e-14 4.08493806,0 Z" id="path-5"></path>
        <linearGradient x1="100%" y1="21.2668809%" x2="0%" y2="78.7331191%" id="linearGradient-7">
            <stop stop-color="#00F3FF" stop-opacity="0.1" offset="0%"></stop>
            <stop stop-color="#AE76EF" stop-opacity="0.2" offset="100%"></stop>
        </linearGradient>
    </defs>
    <g id="Muzli-V4" stroke="none" stroke-width="1" fill="none" fill-rule="evenodd">
        <g id="FTX" transform="translate(-807.000000, -493.000000)">
            <g id="popup" transform="translate(464.000000, 97.000000)">
                <g id="illustration" transform="translate(0.000000, 399.000000)">
                    <g id="card-illustration">
                        <g transform="translate(130.000000, 0.000000)">
                            <g id="card-1" transform="translate(215.160187, 0.000000)">
                                <mask id="mask-2" fill="white">
                                    <use xlink:href="#path-1"></use>
                                </mask>
                                <use id="bg" fill="#FFFFFF" xlink:href="#path-1"></use>
                                <mask id="mask-4" fill="white">
                                    <use xlink:href="#path-3"></use>
                                </mask>
                                <use id="bg" fill-opacity="0.100000001" fill="#97A3AA" xlink:href="#path-3"></use>
                                <mask id="mask-6" fill="white">
                                    <use xlink:href="#path-5"></use>
                                </mask>
                                <path stroke="#A2AFB7" stroke-width="2.04246903" d="M4.08493806,-1.02123452 L285.815902,-1.02123452 C288.635963,-1.02123452 290.922074,1.26487682 290.922074,4.08493806 L290.922074,324.027301 C290.922074,326.847362 288.635963,329.133473 285.815902,329.133473 L4.08493806,329.133473 C1.26487682,329.133473 -1.02123452,326.847362 -1.02123452,324.027301 L-1.02123452,4.08493806 C-1.02123452,1.26487682 1.26487682,-1.02123452 4.08493806,-1.02123452 Z"></path>
                                <path d="M4.08493806,-1.02123452 L285.815902,-1.02123452 C288.635963,-1.02123452 290.922074,1.26487682 290.922074,4.08493806 L290.922074,220.784884 L-1.02123452,220.784884 L-1.02123452,4.08493806 C-1.02123452,1.26487682 1.26487682,-1.02123452 4.08493806,-1.02123452 Z" id="image" stroke="#A2AFB7" stroke-width="2.04246903" fill="url(#linearGradient-7)"></path>
                                <g id="Group-8" transform="translate(112.625796, 116.490595)" fill="#7C878D">
                                    <path d="M32.3246242,34.0383152 C39.8414229,34.0383152 45.9349922,29.8807373 45.9349922,24.7521051 C45.9349922,22.210036 42.5662598,25.8852955 32.5017371,25.8523908 C22.4372144,25.8194861 18.7142561,22.165542 18.7142561,24.7521051 C18.7142561,29.8807373 24.8078254,34.0383152 32.3246242,34.0383152 Z" id="Oval-6"></path>
                                    <ellipse id="Oval-2" cx="5.42352265" cy="6.59323285" rx="5.316816" ry="5.65164041"></ellipse>
                                    <ellipse id="Oval-2" cx="56.4624029" cy="6.59323285" rx="5.316816" ry="5.65164041"></ellipse>
                                </g>
                                <path d="M26.5402177,208.294144 C36.1241361,208.294144 43.893437,216.063445 43.893437,225.647364 L43.893437,225.694246 C43.893437,235.278165 36.1241361,243.047466 26.5402177,243.047466 C16.9562994,243.047466 9.18699844,235.278165 9.18699844,225.694246 L9.18699844,225.647364 C9.18699844,216.063445 16.9562994,208.294144 26.5402177,208.294144 Z" id="source" fill="#A2AFB7"></path>
                                <path d="M26.5402177,210.338457 C34.9966163,210.338457 41.8518818,217.193723 41.8518818,225.650122 L41.8518818,225.691489 C41.8518818,234.147887 34.9966163,241.003153 26.5402177,241.003153 C18.0838192,241.003153 11.2285537,234.147887 11.2285537,225.691489 L11.2285537,225.650122 C11.2285537,217.193723 18.0838192,210.338457 26.5402177,210.338457 Z" id="source" fill="#F4F5F6"></path>
                            </g>
                        </g>
                    </g>
                </g>
            </g>
        </g>
    </g>
</svg>