<svg width="313" height="153" viewBox="0 0 313 153" fill="none" xmlns="http://www.w3.org/2000/svg">
<path fill-rule="evenodd" clip-rule="evenodd" d="M200.943 6.92414C201.089 6.09878 201.876 5.54767 202.701 5.6932L305.81 23.8741C306.636 24.0197 307.187 24.8067 307.041 25.6321L286.43 142.523C286.285 143.349 285.497 143.9 284.672 143.754L181.563 125.573C180.738 125.428 180.186 124.641 180.332 123.815L200.943 6.92414Z" fill="white"/>
<path fill-rule="evenodd" clip-rule="evenodd" d="M205.316 14.8921C205.56 13.5119 206.876 12.5904 208.256 12.8337L309.448 30.6765C310.828 30.9199 311.749 32.2361 311.506 33.6163L291.239 148.558C290.995 149.938 289.679 150.86 288.299 150.617L187.107 132.774C185.727 132.531 184.805 131.214 185.049 129.834L205.316 14.8921Z" fill="#97A3AA" fill-opacity="0.1"/>
<path d="M202.775 5.27417C201.718 5.08783 200.71 5.79347 200.524 6.85026L179.913 123.742C179.727 124.798 180.432 125.806 181.489 125.992L284.598 144.173C285.655 144.36 286.663 143.654 286.849 142.597L307.46 25.706C307.647 24.6492 306.941 23.6414 305.884 23.4551L202.775 5.27417Z" fill="white" stroke="black" stroke-width="0.850992"/>
<path d="M293.073 104.85L293.492 104.924L293.566 104.505L307.46 25.706C307.647 24.6492 306.941 23.6414 305.884 23.4551L202.775 5.27417C201.718 5.08783 200.71 5.79347 200.524 6.85026L186.63 85.6494L186.556 86.0684L186.975 86.1423L293.073 104.85Z" fill="white" stroke="black" stroke-width="0.850992"/>
<g filter="url(#filter0_d_3784_20094)">
<path d="M249.143 70.2516L240.406 57.1677C237.945 53.4824 239.055 48.3567 242.816 46.0388C246.547 43.7393 251.328 45.1672 253.242 49.1525L253.564 49.8225L254.098 49.3049C257.271 46.2264 262.251 46.5383 264.958 49.9852C267.687 53.4597 266.958 58.6532 263.375 61.2614L250.655 70.5211C250.16 70.8814 249.483 70.7608 249.143 70.2516Z" fill="#F6F7FF"/>
<path d="M249.143 70.2516L240.406 57.1677C237.945 53.4824 239.055 48.3567 242.816 46.0388C246.547 43.7393 251.328 45.1672 253.242 49.1525L253.564 49.8225L254.098 49.3049C257.271 46.2264 262.251 46.5383 264.958 49.9852C267.687 53.4597 266.958 58.6532 263.375 61.2614L250.655 70.5211C250.16 70.8814 249.483 70.7608 249.143 70.2516Z" stroke="black" stroke-width="0.850992" stroke-linecap="round" stroke-linejoin="round"/>
</g>
<path fill-rule="evenodd" clip-rule="evenodd" d="M190.03 88.4743C190.649 84.9679 193.995 82.6271 197.501 83.2453C201.007 83.8636 203.351 87.2076 202.732 90.714C202.114 94.2203 198.768 96.5612 195.262 95.9429C191.756 95.3247 189.412 91.9806 190.03 88.4743Z" fill="#A2AFB7"/>
<path fill-rule="evenodd" clip-rule="evenodd" d="M190.777 88.6058C191.323 85.512 194.275 83.4465 197.369 83.992C200.463 84.5375 202.53 87.4881 201.985 90.582C201.439 93.6758 198.487 95.7413 195.393 95.1958C192.3 94.6502 190.232 91.6996 190.777 88.6058Z" fill="#F4F5F6"/>
<path fill-rule="evenodd" clip-rule="evenodd" d="M1.29004 28.8329C1.13013 28.0102 1.66742 27.2136 2.49012 27.0537L105.266 7.07603C106.089 6.91611 106.886 7.45341 107.046 8.2761L129.694 124.79C129.853 125.613 129.316 126.409 128.493 126.569L25.7172 146.547C24.8945 146.707 24.0979 146.169 23.938 145.347L1.29004 28.8329Z" fill="white"/>
<path fill-rule="evenodd" clip-rule="evenodd" d="M8.22834 34.7044C7.96093 33.3286 8.85941 31.9966 10.2352 31.7292L111.1 12.123C112.476 11.8556 113.808 12.7541 114.075 14.1298L136.346 128.701C136.613 130.076 135.714 131.408 134.339 131.676L33.4739 151.282C32.0981 151.549 30.7661 150.651 30.4986 149.275L8.22834 34.7044Z" fill="#97A3AA" fill-opacity="0.1"/>
<path d="M2.40893 26.636C1.35555 26.8408 0.667609 27.8607 0.872365 28.9141L23.5204 145.428C23.7251 146.481 24.745 147.169 25.7984 146.964L128.575 126.987C129.628 126.782 130.316 125.762 130.111 124.709L107.463 8.19491C107.258 7.14154 106.239 6.4536 105.185 6.65835L2.40893 26.636Z" fill="white" stroke="black" stroke-width="0.850992"/>
<path d="M122.662 87.2384L123.08 87.1573L122.999 86.7396L107.731 8.19491C107.527 7.14154 106.507 6.4536 105.453 6.65835L2.67699 26.636C1.62362 26.8408 0.935675 27.8607 1.14043 28.9141L16.408 107.459L16.4892 107.876L16.9068 107.795L122.662 87.2384Z" fill="white" stroke="black" stroke-width="0.850992"/>
<g filter="url(#filter1_d_3784_20094)">
<path d="M65.0414 70.2511L73.7786 57.1672C76.2397 53.4819 75.1298 48.3562 71.3689 46.0383C67.6378 43.7389 62.8564 45.1667 60.9421 49.152L60.6202 49.822L60.0867 49.3044C56.9134 46.2259 51.9333 46.5378 49.2262 49.9847C46.4977 53.4592 47.2269 58.6528 50.8097 61.2609L63.5292 70.5206C64.0242 70.881 64.7013 70.7603 65.0414 70.2511Z" fill="#F6F7FF"/>
<path d="M65.0414 70.2511L73.7786 57.1672C76.2397 53.4819 75.1298 48.3562 71.3689 46.0383C67.6378 43.7389 62.8564 45.1667 60.9421 49.152L60.6202 49.822L60.0867 49.3044C56.9134 46.2259 51.9333 46.5378 49.2262 49.9847C46.4977 53.4592 47.2269 58.6528 50.8097 61.2609L63.5292 70.5206C64.0242 70.881 64.7013 70.7603 65.0414 70.2511Z" stroke="black" stroke-width="0.850992" stroke-linecap="round" stroke-linejoin="round"/>
</g>
<path fill-rule="evenodd" clip-rule="evenodd" d="M92.54 2.74513C92.54 1.78132 93.3214 1 94.2852 1H214.644C215.608 1 216.389 1.78132 216.389 2.74513V139.428C216.389 140.392 215.608 141.173 214.644 141.173H94.2852C93.3214 141.173 92.54 140.392 92.54 139.428V2.74513Z" fill="white"/>
<path fill-rule="evenodd" clip-rule="evenodd" d="M99.0815 10.5249C99.0815 9.12345 100.218 7.9873 101.619 7.9873H220.5C221.902 7.9873 223.038 9.12344 223.038 10.5249V145.693C223.038 147.095 221.902 148.231 220.5 148.231H101.619C100.218 148.231 99.0815 147.095 99.0815 145.693V10.5249Z" fill="#97A3AA" fill-opacity="0.1"/>
<path d="M94.2852 0.574504C93.0864 0.574504 92.1145 1.54632 92.1145 2.74513V139.428C92.1145 140.627 93.0864 141.599 94.2852 141.599H214.644C215.843 141.599 216.815 140.627 216.815 139.428V2.74513C216.815 1.54633 215.843 0.574504 214.644 0.574504H94.2852Z" fill="white" stroke="black" stroke-width="0.850992"/>
<path d="M216.389 95.3111H216.815V94.8856V2.74513C216.815 1.54633 215.843 0.574504 214.644 0.574504H94.2852C93.0864 0.574504 92.1145 1.54632 92.1145 2.74513V94.8856V95.3111H92.54H216.389Z" fill="white" stroke="black" stroke-width="0.850992"/>
<g clip-path="url(#clip0_3784_20094)">
<rect width="44.2516" height="44.2516" transform="translate(135.725 25.6787)" fill="white"/>
<g filter="url(#filter2_d_3784_20094)">
<path d="M156.829 63.9581L142.319 48.849C138.232 44.5932 138.49 37.6151 142.878 33.6983C147.232 29.8125 153.833 30.5671 157.273 35.3438L157.851 36.1468L158.43 35.3438C161.87 30.5671 168.471 29.8125 172.825 33.6983C177.213 37.6151 177.47 44.5932 173.383 48.849L158.874 63.9581C158.309 64.5461 157.393 64.5461 156.829 63.9581Z" fill="#F6F7FF"/>
<path d="M156.829 63.9581L142.319 48.849C138.232 44.5932 138.49 37.6151 142.878 33.6983C147.232 29.8125 153.833 30.5671 157.273 35.3438L157.851 36.1468L158.43 35.3438C161.87 30.5671 168.471 29.8125 172.825 33.6983C177.213 37.6151 177.47 44.5932 173.383 48.849L158.874 63.9581C158.309 64.5461 157.393 64.5461 156.829 63.9581Z" stroke="black" stroke-width="0.850992" stroke-linecap="round" stroke-linejoin="round"/>
</g>
</g>
<defs>
<filter id="filter0_d_3784_20094" x="238.668" y="44.5122" width="31.7741" height="30.0461" filterUnits="userSpaceOnUse" color-interpolation-filters="sRGB">
<feFlood flood-opacity="0" result="BackgroundImageFix"/>
<feColorMatrix in="SourceAlpha" type="matrix" values="0 0 0 0 0 0 0 0 0 0 0 0 0 0 0 0 0 0 127 0" result="hardAlpha"/>
<feOffset dx="3.40397" dy="3.40397"/>
<feComposite in2="hardAlpha" operator="out"/>
<feColorMatrix type="matrix" values="0 0 0 0 0 0 0 0 0 0 0 0 0 0 0 0 0 0 0.05 0"/>
<feBlend mode="normal" in2="BackgroundImageFix" result="effect1_dropShadow_3784_20094"/>
<feBlend mode="normal" in="SourceGraphic" in2="effect1_dropShadow_3784_20094" result="shape"/>
</filter>
<filter id="filter1_d_3784_20094" x="47.1465" y="44.5117" width="31.7741" height="30.0461" filterUnits="userSpaceOnUse" color-interpolation-filters="sRGB">
<feFlood flood-opacity="0" result="BackgroundImageFix"/>
<feColorMatrix in="SourceAlpha" type="matrix" values="0 0 0 0 0 0 0 0 0 0 0 0 0 0 0 0 0 0 127 0" result="hardAlpha"/>
<feOffset dx="3.40397" dy="3.40397"/>
<feComposite in2="hardAlpha" operator="out"/>
<feColorMatrix type="matrix" values="0 0 0 0 0 0 0 0 0 0 0 0 0 0 0 0 0 0 0.05 0"/>
<feBlend mode="normal" in2="BackgroundImageFix" result="effect1_dropShadow_3784_20094"/>
<feBlend mode="normal" in="SourceGraphic" in2="effect1_dropShadow_3784_20094" result="shape"/>
</filter>
<filter id="filter2_d_3784_20094" x="138.988" y="30.7847" width="41.131" height="37.444" filterUnits="userSpaceOnUse" color-interpolation-filters="sRGB">
<feFlood flood-opacity="0" result="BackgroundImageFix"/>
<feColorMatrix in="SourceAlpha" type="matrix" values="0 0 0 0 0 0 0 0 0 0 0 0 0 0 0 0 0 0 127 0" result="hardAlpha"/>
<feOffset dx="3.40397" dy="3.40397"/>
<feComposite in2="hardAlpha" operator="out"/>
<feColorMatrix type="matrix" values="0 0 0 0 0 0 0 0 0 0 0 0 0 0 0 0 0 0 0.05 0"/>
<feBlend mode="normal" in2="BackgroundImageFix" result="effect1_dropShadow_3784_20094"/>
<feBlend mode="normal" in="SourceGraphic" in2="effect1_dropShadow_3784_20094" result="shape"/>
</filter>
<clipPath id="clip0_3784_20094">
<rect width="44.2516" height="44.2516" fill="white" transform="translate(135.725 25.6787)"/>
</clipPath>
</defs>
</svg>
