<?xml version="1.0" encoding="UTF-8"?>
<svg width="992px" height="665px" viewBox="0 0 992 665" version="1.1" xmlns="http://www.w3.org/2000/svg" xmlns:xlink="http://www.w3.org/1999/xlink">
    <title>illustration</title>
    <g id="Page-1" stroke="none" stroke-width="1" fill="none" fill-rule="evenodd">
        <g id="illustration">
            <g id="tab">
                <g>
                    <path d="M0,0 L992,0 L992,36 C992,41.5228475 987.522847,46 982,46 L10,46 C4.4771525,46 6.76353751e-16,41.5228475 0,36 L0,0 L0,0 Z" id="Rectangle-6" fill="#212330" transform="translate(496.000000, 23.000000) scale(1, -1) translate(-496.000000, -23.000000) "></path>
                    <path d="M971.85091,28.5763969 C971.694795,28.3367838 971.372866,28.2586473 971.132228,28.5365008 C970.935192,28.7333005 970.765515,28.9472887 970.587718,29.1624595 C967.823218,31.1428355 967.774806,29.1867441 967.806266,28.7034178 C967.932341,28.1697878 968.099731,27.7079077 968.306623,27.2121238 C968.814864,25.9435699 969.500746,24.8905022 970.051328,23.6219482 C970.390129,22.8185071 970.771271,22.0150659 971.067653,21.1693633 C971.279434,20.5773872 971.152413,19.9430708 970.728852,19.4356965 C970.26303,18.9705049 969.670186,18.8859819 968.950243,19.0551067 C967.976179,19.3088332 967.086875,19.8162075 966.324591,20.4505239 C966.19757,20.5773872 966.02813,20.6619101 965.901109,20.7887734 C965.901109,20.6619101 965.943449,20.5773872 965.943449,20.4927854 C966.15523,19.8162075 966.409272,19.18197 966.112811,18.4207903 C965.98579,18.0825408 965.816428,17.7865527 965.477627,17.5750876 C964.757684,17.1945767 964.080081,17.2790996 963.444818,17.4483032 C962.386152,17.7442912 961.539109,18.3785288 960.776826,19.0973682 C960.565124,19.3088332 960.311003,19.5202195 960.099302,19.773946 C960.183982,19.3088332 960.311003,18.8859819 960.311003,18.4207903 C960.311003,17.2790996 959.633401,16.5602603 958.489975,16.1796704 C957.600671,15.9260227 956.711366,15.9682842 955.821983,16.1374089 C954.932678,16.3065337 954.085714,16.6026006 953.323431,17.1099749 C952.815268,17.4483032 952.349367,17.8288142 952.095325,18.4631306 C951.968225,18.8013801 951.968225,19.18197 952.095325,19.5625598 C952.264686,20.0276726 952.772849,20.2813992 953.28109,19.9008093 C953.873934,19.5202195 954.382175,19.0551067 954.975019,18.6322554 C955.864402,17.9556775 956.753707,17.3637014 957.939472,17.2790996 C958.320614,17.2368381 958.659415,17.4059629 958.786436,17.7865527 C958.828777,17.9556775 958.871117,18.209404 958.786436,18.3785288 C958.659415,18.8013801 958.532394,19.2242314 958.320614,19.6048213 C957.770111,20.5773872 957.177189,21.5076128 956.541926,22.4801787 C955.737302,23.7064712 954.847998,24.9327636 954.043374,26.1590561 C953.450452,27.0470202 952.899949,27.9773247 952.391786,28.8652888 C952.137665,29.2881401 951.968225,29.7532529 952.052985,30.260706 C952.137665,30.9795454 953.11165,31.3601352 953.577552,31.1486701 C954.043374,30.9372839 954.297416,30.556694 954.551537,30.1761042 C955.017359,29.372663 955.48326,28.5693007 955.949083,27.7658596 C957.134848,25.6093415 958.447635,23.5373464 959.972202,21.6344761 C960.734486,20.6619101 961.581529,19.773946 962.597854,19.0551067 C963.063676,18.7591186 963.529578,18.5053921 964.122421,18.4631306 C964.334202,18.4207903 964.503563,18.5476536 964.545903,18.7591186 C964.588243,19.0128452 964.673003,19.3088332 964.588243,19.5625598 C964.418882,20.1121955 964.207102,20.6619101 963.910719,21.1693633 C962.851975,22.9876318 961.75089,24.8059004 960.692145,26.6241689 C960.226323,27.3852697 959.802841,28.2309724 959.421699,29.0344135 C959.209919,29.4572648 959.421699,30.0492409 959.887521,30.260706 C960.395684,30.5144326 960.988606,30.5144326 961.242727,30.0069794 C962.174372,28.1887109 963.148436,26.3704423 964.122421,24.5944353 C964.884705,23.1567566 965.901109,21.8882026 967.298576,20.957977 C967.806818,20.6196487 968.31498,20.3659221 968.950243,20.2390588 C969.289044,20.1545359 969.543086,20.3236606 969.500746,20.6619101 C969.500746,20.8733752 969.458406,21.0847615 969.331385,21.2539651 C968.907903,22.0573274 968.44208,22.8185071 968.018519,23.6219482 C967.298576,24.8481618 966.536371,26.0744543 966.15523,27.512133 C965.98579,28.1464494 965.858769,28.8230273 966.112811,29.5418666 C966.461783,30.4920403 967.449487,31.2351642 968.510597,31.2640219 C968.548838,31.2720642 968.59244,31.2787661 968.642901,31.2837334 C969.181893,31.313616 969.68288,31.1774489 970.167705,30.970005 C970.65245,30.7626399 971.096905,30.4893595 971.465905,30.1082178 C971.711983,29.854097 971.928495,29.581605 971.991887,29.193446 C972.020823,28.9875001 971.972018,28.7739062 971.85091,28.5763969" id="Fill-3" fill="#C0C2C4"></path>
                    <path d="M206.792729,12 C208.462596,12 209.956758,13.0373361 210.540428,14.6018758 L221.881,45 L992,45 L992,665 L0,665 L0,45 L70.119,45 L81.4595715,14.6018758 C82.0432419,13.0373361 83.5374037,12 85.2072707,12 L206.792729,12 Z" id="Combined-Shape" fill="#292C3D"></path>
                    <g id="Group-4" transform="translate(15.000000, 18.000000)">
                        <circle id="Oval-3" fill="#F55F57" cx="5.38371198" cy="6" r="5.19999969"></circle>
                        <circle id="Oval-3" fill="#F8BC2E" cx="21.5" cy="6" r="5.19999969"></circle>
                        <circle id="Oval-3" fill="#41C940" cx="37.616288" cy="6" r="5.19999969"></circle>
                    </g>
                </g>
            </g>
        </g>
    </g>
</svg>