<?xml version="1.0" encoding="utf-8"?>
<!-- Generator: Adobe Illustrator 19.1.0, SVG Export Plug-In . SVG Version: 6.00 Build 0)  -->
<svg version="1.1" id="Capa_1" xmlns="http://www.w3.org/2000/svg" xmlns:xlink="http://www.w3.org/1999/xlink" x="0px" y="0px"
	 viewBox="-68 81.5 30.1 20" style="enable-background:new -68 81.5 30.1 20;" xml:space="preserve">
<style type="text/css">
	.st0{fill:none;}
	.st1{fill:#4F4F4F;}
</style>
<path class="st0" d="M239.8,173c2-2,5.4-2,7.3,0l1.8,1.8c1,1,2.6,1,3.7,0c1-1,1-2.7,0-3.7l-1.8-1.8c-2-2-4.6-3-7.3-3
	c-2.8,0-5.4,1.1-7.3,3l-11.9,11.9c-4,4-4,10.6,0,14.7l1.8,1.8c2,2,4.6,3,7.3,3c2.8,0,5.4-1.1,7.3-3l5.6-5.6c1-1,1-2.7,0-3.7
	s-2.6-1-3.7,0L237,194c-2,2-5.4,2-7.3,0l-1.8-1.8c-2-2-2-5.3,0-7.3L239.8,173z M256.3,182.2l11.9-11.9c2-2,3-4.6,3-7.3
	c0-2.8-1.1-5.4-3-7.3l-1.8-1.8c-2-2-4.6-3-7.3-3c-2.8,0-5.4,1.1-7.3,3l-5.1,5.1c-1,1-1,2.7,0,3.7s2.7,1,3.7,0l5.1-5.1
	c1-1,2.3-1.5,3.7-1.5c1.4,0,2.7,0.5,3.7,1.5l1.8,1.8c1,1,1.5,2.3,1.5,3.7c0,1.4-0.5,2.7-1.5,3.7l-11.9,11.9c-2,2-5.4,2-7.3,0
	c-1-1-2.6-1-3.7,0c-1,1-1,2.7,0,3.7c2,2,4.6,3,7.3,3C251.7,185.2,254.3,184.1,256.3,182.2z"/>
<path class="st1" d="M-53,81.5c-9.9,0-15,8.6-15,10s5.2,10,15,10c9.9,0,15-8.6,15-10S-43.1,81.5-53,81.5z M-53,99.2
	c-3.7,0-6.7-3.4-6.7-7.7c0-4.2,3-7.7,6.7-7.7c3.7,0,6.7,3.4,6.7,7.7C-46.3,95.7-49.3,99.2-53,99.2z M-53,91.5c-0.6-0.8,1-3.8,0-3.8
	c-1.8,0-3.3,1.7-3.3,3.8c0,2.1,1.5,3.8,3.3,3.8c1.8,0,3.3-1.7,3.3-3.8C-49.6,90.5-52.5,92.2-53,91.5z"/>
</svg>
