<?xml version="1.0" encoding="UTF-8"?>
<svg width="15px" height="15px" viewBox="0 0 15 15" version="1.1" xmlns="http://www.w3.org/2000/svg" xmlns:xlink="http://www.w3.org/1999/xlink">
    <!-- Generator: Sketch 45.1 (43504) - http://www.bohemiancoding.com/sketch -->
    <title>search</title>
    <desc>Created with Sketch.</desc>
    <defs></defs>
    <g id="final" stroke="none" stroke-width="1" fill="none" fill-rule="evenodd">
        <g id="sidebar-open" transform="translate(-36.000000, -1053.000000)" fill="#CCCCCC">
            <g id="sidebar" transform="translate(0.000000, -23.000000)">
                <g id="feed-hover">
                    <g transform="translate(0.000000, 169.071230)">
                        <g id="Group-2" transform="translate(0.000000, 884.355778)">
                            <path d="M46.416666,31.8032897 L50.5749989,35.6817395 L49.3333325,36.8375173 L45.1666661,32.9668246 L45.1666661,32.3540296 L44.9416657,32.1368366 C43.9916663,32.8970124 42.7583326,33.3546696 41.4166663,33.3546696 C38.4249997,33.3546696 36,31.0974119 36,28.3126849 C36,25.5279578 38.4249997,23.2707001 41.4166663,23.2707001 C44.4083329,23.2707001 46.8333327,25.5279578 46.8333327,28.3126849 C46.8333327,29.5615454 46.3416659,30.7095669 45.5249997,31.593853 L45.7583327,31.8032897 L46.416666,31.8032897 Z M37.6666666,28.3126849 C37.6666666,30.2441526 39.3416666,31.8032897 41.4166663,31.8032897 C43.491666,31.8032897 45.1666661,30.2441526 45.1666661,28.3126849 C45.1666661,26.381217 43.491666,24.8220801 41.4166663,24.8220801 C39.3416666,24.8220801 37.6666666,26.381217 37.6666666,28.3126849 Z" id="search"></path>
                        </g>
                    </g>
                </g>
            </g>
        </g>
    </g>
</svg>